<svg xmlns="http://www.w3.org/2000/svg" width="142" height="142" viewBox="0 0 142 142"><defs><style>.a,.b{fill:#fff;}.b,.c,.d,.e,.f,.g,.h,.i,.j,.l{fill-rule:evenodd;}.c{fill:#7cb880;}.d{fill:#60629a;}.e,.k{fill:#3a3c6c;}.f{fill:#f4f4f4;}.g{fill:#8ac598;}.h{fill:#dc8c8c;}.i{fill:#232446;}.j{fill:#ebb39d;}.l{fill:#d7d2d2;}</style></defs><g transform="translate(-106.873 -86.873)"><circle class="a" cx="71" cy="71" r="71" transform="translate(106.873 86.873)"/><g transform="translate(107 95.728)"><g transform="translate(0 19.251)"><path class="b" d="M89.556,160.495a2.782,2.782,0,0,1,1.359,1.9h0a2.8,2.8,0,0,1-1.877,3.169l-.007.247a2.794,2.794,0,0,1,1.712,2.073h0a2.8,2.8,0,0,1-1.22,2.854,2.535,2.535,0,0,1,1.509,2.131h0a3.122,3.122,0,0,1-2.493,3.291l-.965.175-.091.015c-.064.328-.136.655-.217.981-3.113,2.242-9.82,4.261-14.021,4.464a.937.937,0,0,1-.948-.658,10.627,10.627,0,0,1-.287-1.132l-2.673.923-12.013,2.881-5.419,2.4a72.056,72.056,0,0,1-.429-17.873l4.988-1.047h0a7.816,7.816,0,0,1,.51-.67,26.979,26.979,0,0,1,9.119-6.834,2.029,2.029,0,0,1-.085-.64c.052-1.643,2.137-2.955,4.9-3.24-.26-.138-.4-.22-.4-.22h0a5.372,5.372,0,0,1-2.872-5.977l1.742-9.543A7.691,7.691,0,0,1,76.9,134.03h0l27.366.561c2.615.082,4.639,3.2,4.521,6.955s-2.334,6.74-4.949,6.658l-3.065-.269c-7.9.84-11.23,3.528-12.533,7.244a2.8,2.8,0,0,1,2.927,2.578h0a2.8,2.8,0,0,1-1.61,2.737Zm-18.79-4.7.1.042-.1-.042Zm.1.042,0,0,.137.053h0Z" transform="translate(-51.113 -134.027)"/><path class="c" d="M77.27,197.39c4.43-.823,9.638-1.34,12.827-.13l-.707,17.677-19.55,6.471-12.048,2.728-5.824,2.489a71.827,71.827,0,0,1-.854-11.051c0-2.311.114-4.6.329-6.849l5.7-1.121h0a7.7,7.7,0,0,1,.519-.663,26.978,26.978,0,0,1,9.206-6.718,2.021,2.021,0,0,1-.077-.641c.085-1.926,2.965-3.363,6.433-3.21A9.667,9.667,0,0,1,77.27,197.39Z" transform="translate(-51.113 -174.035)"/><g transform="translate(17.307 0.57)"><path class="d" d="M140.99,150.152l-3.062-.308c-20.434,1.91-10.555,16.546-13.881,29.222-3.14,2.2-9.873,4.137-14.077,4.285a.938.938,0,0,1-.94-.67c-1.53-5.02-.048-17.744,1.53-24.013a25.319,25.319,0,0,1-2.992-1.462h0c3.855,1.914,8.715-.934,9.812-4.973l.112-.478,1.864-9.521a5.36,5.36,0,0,0-5.123-6.6l27.356.91c2.614.115,4.6,3.255,4.433,7.013S143.6,150.267,140.99,150.152Z" transform="translate(-104.656 -135.629)"/><path class="e" d="M142.5,156.287l-3.062-.308C119,157.889,128.881,172.525,125.555,185.2a21.472,21.472,0,0,1-5.027,2.391c-.153-2.819-.994-8.564-5.328-8.564a7.677,7.677,0,0,0-5.282,2.151,89.376,89.376,0,0,1,1.559-13.7c8.1.359,9.388-6.146,9.388-6.146s1.978-11.621,2.405-13.386a3.1,3.1,0,0,0-.466-2.755c2.774.815,1.416,5.859,1.416,5.859h23.155C146.8,154.137,144.786,156.388,142.5,156.287Z" transform="translate(-106.163 -141.764)"/><path class="e" d="M197.223,151.6l-1.183-.119a4.559,4.559,0,0,0,2.427-1.724,9.174,9.174,0,0,0,.432-9.773,4.433,4.433,0,0,0-2.5-2l1.407.049a5.657,5.657,0,0,1,1.559,1.655,9.718,9.718,0,0,1-.46,10.412A5.671,5.671,0,0,1,197.223,151.6Z" transform="translate(-161.439 -137.137)"/><path class="f" d="M109.013,135.624h0a5.359,5.359,0,0,1,5.123,6.6l-1.864,9.521a7.692,7.692,0,0,1-7.6,6.036h0a5.36,5.36,0,0,1-5.123-6.6l1.864-9.521A7.691,7.691,0,0,1,109.013,135.624Z" transform="translate(-99.435 -135.617)"/><path class="e" d="M110.157,140.317h0a4.069,4.069,0,0,1,3.889,5.01l-1.415,7.227a5.84,5.84,0,0,1-5.767,4.583h0a4.069,4.069,0,0,1-3.889-5.009l1.415-7.228A5.84,5.84,0,0,1,110.157,140.317Z" transform="translate(-101.649 -138.631)"/><path class="d" d="M111.666,143.519h0a3.8,3.8,0,0,1,3.629,4.674l-1.32,6.743a5.448,5.448,0,0,1-5.381,4.276h0a3.8,3.8,0,0,1-3.629-4.674l1.32-6.744A5.448,5.448,0,0,1,111.666,143.519Z" transform="translate(-102.931 -140.686)"/><path class="f" d="M166.994,141.064l-1.48-.065a1.41,1.41,0,0,0-1.467,1.343h0a1.411,1.411,0,0,0,1.343,1.467l1.479.065a1.411,1.411,0,0,0,1.467-1.343h0a1.411,1.411,0,0,0-1.343-1.467Zm-11.647-.515,6.138.271a1.41,1.41,0,0,1,1.342,1.467h0a1.411,1.411,0,0,1-1.467,1.343l-6.138-.272a1.41,1.41,0,0,1-1.343-1.467h0A1.411,1.411,0,0,1,155.347,140.55Z" transform="translate(-134.378 -138.782)"/></g><g transform="translate(14.964 21.865)"><g transform="translate(13.9)"><path class="g" d="M135.537,195.447l5.976-.368a2.8,2.8,0,0,1,2.955,2.612h0a2.8,2.8,0,0,1-2.612,2.955l-5.976.368a2.8,2.8,0,0,1-2.955-2.613h0A2.8,2.8,0,0,1,135.537,195.447Z" transform="translate(-132.483 -195.074)"/><path class="g" d="M134.685,209.961l5.9-1.035a2.8,2.8,0,0,1,3.229,2.266h0a2.8,2.8,0,0,1-2.265,3.229l-5.9,1.034a2.8,2.8,0,0,1-3.229-2.265h0A2.8,2.8,0,0,1,134.685,209.961Z" transform="translate(-132.135 -203.938)"/><path class="g" d="M134.008,225.279l5.9-1.035a2.8,2.8,0,0,1,3.229,2.265h0a2.8,2.8,0,0,1-2.265,3.229l-5.9,1.034a2.8,2.8,0,0,1-3.229-2.265h0A2.8,2.8,0,0,1,134.008,225.279Z" transform="translate(-131.701 -213.769)"/><path class="g" d="M148.687,238.151l.967-.163a2.523,2.523,0,0,1,2.975,2.333h0a3.123,3.123,0,0,1-2.536,3.259l-.967.163a2.524,2.524,0,0,1-2.975-2.333h0A3.123,3.123,0,0,1,148.687,238.151Z" transform="translate(-140.97 -222.594)"/></g><path class="g" d="M97.2,199.306l5.42.819a3.754,3.754,0,0,1,3.143,4.262h0a3.755,3.755,0,0,1-4.261,3.143l-5.42-.819a3.755,3.755,0,0,1-3.143-4.261h0A3.756,3.756,0,0,1,97.2,199.306Z" transform="translate(-92.892 -197.763)"/></g></g><g transform="translate(51.989 0)"><path class="b" d="M251.549,124.46l-1.427,27.97,4.105,1.83c5.242,2.379,17.973,8.275,22.485,11.789a7.638,7.638,0,0,1,1.91,3.672l-2.285,4.513a71.321,71.321,0,0,1-53.912,36.376l-3.635.34a70.967,70.967,0,0,1-22.527-2.046c.622-8.319,2.647-35.091,3.456-38.287,1.127-4.46,26.7-17.875,26.7-17.875l.274-5.54-1.324-.115c-3.573-.474-13.355-2.931-16.1-15.642a36.231,36.231,0,0,1-.661-9.716l0-.052-.122-9.281c-2.425-2.162-5.656-6.368-7.224-14.114-2.694-13.3,7.558-11.213,7.558-11.213,16.035-15.824,37.247.271,43.261,5.467,1.023-2.747-2.053-4.379-2.053-4.379,4.785,1.009,4.827,3.9,4.293,5.769,7.476-1.107,1.318,13.065-1.173,18.262,4.526,1.54,4.679,7.605.759,10.9A7.643,7.643,0,0,1,251.549,124.46Z" transform="translate(-196.263 -80.28)"/><path class="h" d="M310.228,194.454l-2.109,32.854c0,7.112-23.707,6.519-23.707,0l1.22-19.519S305.19,192.973,310.228,194.454Z" transform="translate(-252.839 -153.493)"/><g transform="translate(6.741 1.336)"><path class="e" d="M266.23,118.151s11.521-21.338,2.364-20.1c.558-1.859.555-4.754-4.217-5.825,0,0,3.054,1.672,1.995,4.406-5.945-5.274-26.944-21.647-43.185-6.035,0,0-10.224-2.222-7.7,11.113S225.557,118,225.557,118Z" transform="translate(-215.082 -84.01)"/><path class="i" d="M340.189,158.177a74.034,74.034,0,0,0,5.023-11.8c-1.7,2.376-4.6,4.3-9.489,3.277-4.343-.9-5.524,3.25-5.4,8.491Z" transform="translate(-289.041 -124.036)"/><path class="d" d="M225.535,92.509c1.159-.119,2.1.306,2.1.951s-.939,1.262-2.1,1.381-2.1-.307-2.1-.95.939-1.263,2.1-1.381ZM252.5,89.07c.738,0,1.336.332,1.336.742s-.6.743-1.336.743-1.336-.332-1.336-.743.6-.742,1.336-.742Zm-8.648-2.809c3.044,0,5.511.819,5.511,1.829s-2.467,1.829-5.511,1.829-5.51-.819-5.51-1.829S240.811,86.261,243.854,86.261Z" transform="translate(-220.444 -85.455)"/></g><g transform="translate(14.178 24.957)"><path class="j" d="M277.632,158.4A5.274,5.274,0,0,1,284,163.734a7.8,7.8,0,0,1-6.371,7.411v1.482a20.953,20.953,0,0,1-20.892,20.892h0a20.953,20.953,0,0,1-20.892-20.892V152.035c2.973.542,8.446-1.707,8.446-1.707s-.815,2.741,8.075,3.853,22.448-4.224,22.448-4.224A18.08,18.08,0,0,0,277.632,158.4Z" transform="translate(-235.848 -149.957)"/><path class="h" d="M297.171,158.4a5.274,5.274,0,0,1,6.371,5.331,7.8,7.8,0,0,1-6.371,7.411v1.482a20.953,20.953,0,0,1-20.892,20.892h0a20.829,20.829,0,0,1-3.27-.259l-1.767-19.415c-5.9-1.063-7.416-9.461.411-6.834.544-2.311.408-7.7.1-12.85l.153.02c8.89,1.111,22.448-4.224,22.448-4.224A18.081,18.081,0,0,0,297.171,158.4Z" transform="translate(-255.388 -149.957)"/><path class="h" d="M235.848,155.276V152.7c2.973.542,8.446-1.707,8.446-1.707s-.815,2.741,8.075,3.852c5.142.643,11.845-.871,16.584-2.261-19.072,8.248-25.622.484-25.622.484C239.795,154.944,237.428,155.422,235.848,155.276Z" transform="translate(-235.848 -150.622)"/></g><g transform="translate(0.682 73.815)"><path class="g" d="M252.765,286.369s20.482,9.225,26.409,13.967a7.643,7.643,0,0,1,1.861,3.7,71.32,71.32,0,0,1-82.868,38.1c1.319-14.976,3.218-35.46,3.958-38.239,1.186-4.445,26.932-17.522,26.932-17.522C229.058,292.888,252.765,293.481,252.765,286.369Z" transform="translate(-198.167 -286.369)"/><path class="e" d="M320.6,286.624c-.489,7.914-10.449,8.929-17.06,8.541v7.382h5.253l.568,37.682A71.48,71.48,0,0,0,348.665,304.2a7.645,7.645,0,0,0-1.861-3.7C341.221,296.033,322.728,287.591,320.6,286.624Z" transform="translate(-265.797 -286.533)"/><path class="i" d="M319.221,354.145l.2,14.464a71.48,71.48,0,0,0,39.306-36.033,16.5,16.5,0,0,0-.594-1.735C345.554,345.3,332.059,351.979,319.221,354.145Z" transform="translate(-275.863 -314.913)"/><path class="e" d="M229.058,286.369s-1,5.669,3.146,7.892l2.012,48.154a71.643,71.643,0,0,1-36.048-.284c1.319-14.976,3.218-35.46,3.958-38.239C203.311,299.447,229.058,286.369,229.058,286.369Z" transform="translate(-198.167 -286.369)"/><path class="i" d="M233.546,345.23l.669,16.01a71.642,71.642,0,0,1-36.048-.284c.632-7.169,1.4-15.6,2.1-22.746a78.506,78.506,0,0,0,30.228,7.049l-.784-29.545.584-.014.784,29.565Q232.307,345.27,233.546,345.23Z" transform="translate(-198.167 -305.194)"/></g><g transform="translate(14.076 29.366)"><g transform="translate(3.88)"><path class="e" d="M246.4,164.528h8.816a3.364,3.364,0,0,0-1.5-2.259.962.962,0,0,1-.111.907C251.269,161.286,247.572,162.678,246.4,164.528Z" transform="translate(-246.396 -162.269)"/><path class="e" d="M312.2,164.528h-8.816a3.364,3.364,0,0,1,1.5-2.259.962.962,0,0,0,.111.907C307.325,161.286,311.021,162.678,312.2,164.528Z" transform="translate(-282.971 -162.269)"/><path class="e" d="M257.916,175.4h0a1.337,1.337,0,0,1,1.334,1.333v.889a1.337,1.337,0,0,1-1.334,1.333h0a1.337,1.337,0,0,1-1.333-1.333v-.889A1.337,1.337,0,0,1,257.916,175.4Z" transform="translate(-252.934 -170.698)"/><path class="k" d="M1.334,0h0A1.333,1.333,0,0,1,2.667,1.333v.889A1.333,1.333,0,0,1,1.334,3.556h0A1.333,1.333,0,0,1,0,2.223V1.334A1.334,1.334,0,0,1,1.334,0Z" transform="translate(22.688 4.704)"/></g><g transform="translate(0 3.308)"><g transform="translate(0 7.217)"><path class="g" d="M235.665,194.282s3.038,1.442,7.533-.594,9.546-3.62,15.519.763,18-1.314,18-1.314,6.974,24.591-23.31,26.9C253.405,220.041,233.99,219.639,235.665,194.282Z" transform="translate(-235.562 -191.654)"/><path class="c" d="M296.549,198.6A36.049,36.049,0,0,0,306.1,195.8s6.974,24.591-23.31,26.9a12.267,12.267,0,0,1-1.447-.15C297.634,217.8,297.488,204.5,296.549,198.6Z" transform="translate(-264.944 -194.313)"/><path class="c" d="M267.294,203.847s.763,5,7.8,4.41C275.1,208.257,266.149,213.006,267.294,203.847Z" transform="translate(-255.863 -199.48)"/><path class="f" d="M235.669,194.282s3.038,1.442,7.533-.594,9.546-3.62,15.519.763,18-1.314,18-1.314a19.7,19.7,0,0,1,.494,2.659c-4.135,2.419-13.418,4.264-18.979,1.077-6.907-3.957-8.844-3.607-15.908-.776a15.842,15.842,0,0,1-6.757,1.327C235.567,196.422,235.6,195.377,235.669,194.282Z" transform="translate(-235.567 -191.654)"/><path class="l" d="M323.8,198.6l.019,0c.141-.018.283-.037.423-.057l.03,0q.336-.049.667-.107l.02,0c.375-.065.745-.138,1.11-.216h0a36.029,36.029,0,0,0,4.17-1.182l.021-.007c.446-.155.854-.306,1.219-.446l.019-.007.125-.048.132-.052q.259-.1.481-.193l.108-.045.026-.01.078-.033.009,0c.2-.082.366-.155.5-.214l.066-.029.02-.009.04-.018.051-.023h0l.048-.022.023-.011.019-.008.035-.016.005,0,.024-.011.018-.009,0,0,.016-.008.005,0,.005,0h0v.011l0,.006h0l0,.008,0,.009,0,.011,0,.012,0,.011v0l0,.015.009.034.005.019,0,.016v.005l.011.045.006.025.007.026,0,.018,0,.01.007.028.007.03.007.031.008.032,0,.019,0,.015.008.035.025.113,0,.019,0,.021.036.172,0,.018.005.028.038.191v.005l0,.016,0,.016c.015.076.03.155.045.238l0,.013,0,.02c.014.08.029.163.043.249l.009.051c.014.085.028.174.043.265l.009.055c.015.1.029.195.043.3l.005.041c.015.106.03.215.044.327l0,.027a24.2,24.2,0,0,1-9.755,2.711C324.027,200.216,323.921,199.351,323.8,198.6Z" transform="translate(-292.197 -194.313)"/></g><path class="l" d="M348.608,181.94c0-.024.217-8.479,1.956-10.006,1.867-1.639,4.861,1.949,4.87,1.959l-.447.376c-.007-.009-2.622-3.139-4.038-1.9-1.544,1.355-1.757,9.559-1.757,9.581Z" transform="translate(-308.118 -171.506)"/></g></g></g><g transform="translate(17.662 82.719)"><g transform="translate(5.99 6.966)"><path class="b" d="M125.005,346.385a7.855,7.855,0,1,0-7.855-7.855A7.87,7.87,0,0,0,125.005,346.385Z" transform="translate(-117.15 -330.676)"/><path class="c" d="M121.91,344.3l2.57-1.723,2.266,2.849,6.1-5.256,2.161,2.1-8.585,6.8Z" transform="translate(-120.205 -336.773)"/></g><path class="e" d="M122.024,311.5l-1.686,3.776-.972-.274,1.686-3.775.972.273Zm5.02,19.8,1.753,1.348-.621.8-1.753-1.349.621-.8Zm-16.424,4.636-1.079,2.7-.944-.378,1.078-2.7.944.378Zm-9.9-15.238,1.753.539-.3.971-1.753-.539Z" transform="translate(-100.425 -311.226)"/></g></g></g></svg>