<svg xmlns="http://www.w3.org/2000/svg" width="181.023" height="181.023" viewBox="0 0 181.023 181.023"><defs><style>.a{fill:#efecf5;}.b{fill:#ddd9e7;}.c{fill:#fafafa;}.d{fill:#f39e4b;}.e{fill:#263238;}.f{fill:#ffbe9d;}.g{fill:#fff;}.h{fill:#eb996e;}.i,.l{fill:#455a64;}.j{fill:#3a3c6c;}.k{fill:#ebebeb;}.l{font-size:10px;font-family:OpenSans-Light, Open Sans;font-weight:300;}</style></defs><g transform="translate(-97.484 -476.014)"><path class="a" d="M283.28,158.477A90.511,90.511,0,1,1,149.95,78.716c.3-.156.6-.318.893-.467,1.72-.907,3.48-1.753,5.267-2.545a89.845,89.845,0,0,1,13.675-4.793q1.767-.467,3.561-.853,1.229-.275,2.477-.508c.887-.17,1.774-.325,2.667-.467,2.126-.331,4.272-.6,6.445-.778.622-.061,1.252-.108,1.882-.149,1.97-.121,3.953-.189,5.95-.189a92.114,92.114,0,0,1,11.082.67A90.6,90.6,0,0,1,274.29,119.1q1.046,2.153,1.97,4.367,1.3,3.087,2.369,6.289c.135.413.278.833.406,1.253q.8,2.508,1.449,5.084c.183.691.352,1.381.508,2.079.224.975.433,1.949.622,2.931.42,2.146.758,4.326,1.023,6.526a.136.136,0,0,0,.007.048A91.8,91.8,0,0,1,283.28,158.477Z" transform="translate(-4.773 408.048)"/><path class="b" d="M280.971,162.448A84.232,84.232,0,1,1,156.89,88.22c.278-.145.554-.3.832-.435,1.6-.844,3.238-1.631,4.9-2.368a83.545,83.545,0,0,1,12.726-4.461q1.644-.435,3.314-.794,1.143-.255,2.306-.472c.825-.157,1.65-.3,2.482-.435,1.978-.309,3.975-.554,6-.724.58-.057,1.165-.1,1.751-.139,1.833-.113,3.679-.176,5.538-.176a85.62,85.62,0,0,1,10.313.624A84.314,84.314,0,0,1,272.6,125.8q.973,2,1.833,4.063,1.209,2.874,2.2,5.853c.126.384.259.775.378,1.165q.747,2.335,1.348,4.732c.17.642.328,1.285.473,1.934.208.907.4,1.814.58,2.728.39,2,.705,4.026.951,6.073a.115.115,0,0,0,.007.044A85.509,85.509,0,0,1,280.971,162.448Z" transform="translate(-8.743 404.077)"/><g transform="translate(-133.35 388.014)"><g transform="translate(253.377 88.279)"><g transform="translate(0 67.314)"><g transform="translate(10.528 55.685)"><path class="c" d="M273.321,328.587a54.131,54.131,0,0,1,.532-7.694,53.914,53.914,0,0,1-.532,7.694Z" transform="translate(-273.288 -320.893)"/></g><g transform="translate(0 0.758)"><path class="d" d="M399.022,269.374c-10.814-16.729-22.051-35.492-22.051-35.492-9.77-11.921-17.666-16.085-33.066-16.732h0l-29.968-.124c-5.89.329-19.573-2.706-32.254,15.5l-.057-.088S270.39,251.2,259.576,267.925c-12.125,18.757-4.871,38.236,8.084,39.371,13.1,1.148,21.221,1.5,25.574,1.6v9.588s16.661,6.178,33.353,5.05,35.208-10.358,35.208-10.358v-5.4c6.97-.012,26.264-.077,29.116-.429C403.815,305.744,411.147,288.13,399.022,269.374Zm-104.808-3.732-.434,19.494-12.153.034Zm68.9,20.938,1.9-18.519,11.961,18.557Z" transform="translate(-253.377 -217.015)"/></g><g transform="translate(62.199)"><path class="e" d="M398.17,215.582a2.541,2.541,0,0,1,.006.436,10.932,10.932,0,0,1-.087,1.247,16.058,16.058,0,0,1-.377,1.944,16.365,16.365,0,0,1-.9,2.466,15.172,15.172,0,0,1-4.164,5.369,13.6,13.6,0,0,1-7.722,2.979,12.822,12.822,0,0,1-7.994-2.1,13.641,13.641,0,0,1-4.456-5.12,14.018,14.018,0,0,1-1.362-4.384,10.771,10.771,0,0,1-.1-1.246,2.56,2.56,0,0,1,0-.436,2.591,2.591,0,0,1,.053.433c.016.284.068.7.15,1.234a14.6,14.6,0,0,0,1.43,4.312,13.617,13.617,0,0,0,4.424,5,12.657,12.657,0,0,0,7.836,2.039,13.444,13.444,0,0,0,7.58-2.9,15.191,15.191,0,0,0,4.147-5.254,16.792,16.792,0,0,0,.929-2.424,17.216,17.216,0,0,0,.419-1.918c.077-.534.124-.951.138-1.235A2.614,2.614,0,0,1,398.17,215.582Z" transform="translate(-371.007 -215.582)"/></g><g transform="translate(111.4 18.709)"><path class="e" d="M464.066,286.691c-.076,0,.214-8,.647-17.868s.846-17.861.922-17.858-.213,8-.647,17.87S464.142,286.694,464.066,286.691Z" transform="translate(-464.054 -250.964)"/></g><g transform="translate(40.798 18.709)"><path class="e" d="M331.993,250.964a1.392,1.392,0,0,1,.028.319l.026.915c.018.795.028,1.944.025,3.365,0,2.842-.077,6.768-.277,11.1s-.493,8.249-.752,11.079c-.129,1.415-.245,2.559-.336,3.348-.045.37-.082.671-.111.908a1.374,1.374,0,0,1-.057.315,1.392,1.392,0,0,1,0-.32c.015-.238.035-.541.059-.913.061-.828.146-1.965.249-3.354.209-2.832.469-6.747.671-11.076s.3-8.249.356-11.089c.026-1.392.048-2.532.063-3.363.011-.373.019-.676.025-.914A1.414,1.414,0,0,1,331.993,250.964Z" transform="translate(-330.533 -250.964)"/></g><g transform="translate(104.159 70.172)"><path class="e" d="M452.051,368.914a2.583,2.583,0,0,1-.053-.394q-.04-.42-.108-1.144c-.087-1.021-.209-2.468-.362-4.274-.289-3.666-.692-8.78-1.155-14.666l-.012-.145.146,0,6.837.107,19.363.356,5.867.14,1.6.052.415.021a.524.524,0,0,1,.141.016.554.554,0,0,1-.142.012l-.415.007h-1.6l-5.868-.052-19.364-.276-6.836-.116.134-.143c.425,5.889.794,11,1.059,14.673.119,1.808.216,3.258.283,4.28q.041.726.065,1.147A2.506,2.506,0,0,1,452.051,368.914Z" transform="translate(-450.36 -348.29)"/></g><g transform="translate(123.404 66.726)"><path class="e" d="M499.227,341.9c0,.048-.749,0-1.948.064a19.306,19.306,0,0,0-8.871,2.7c-1.031.615-1.623,1.071-1.652,1.032a1.937,1.937,0,0,1,.388-.357,12.223,12.223,0,0,1,1.162-.841,17.152,17.152,0,0,1,8.966-2.73,12.154,12.154,0,0,1,1.434.05A1.944,1.944,0,0,1,499.227,341.9Z" transform="translate(-486.756 -341.772)"/></g><g transform="translate(15.744 68.712)"><path class="e" d="M311.238,369.584a.452.452,0,0,1,0-.122c.011-.094.023-.21.038-.354q.063-.5.171-1.363c.163-1.206.4-2.92.682-5.045.605-4.3,1.444-10.257,2.392-16.99l.132.156-3.7-.052c-7.677-.052-14.628.088-19.661.062-2.516-.006-4.553-.038-5.959-.071l-1.62-.053-.421-.021a.569.569,0,0,1-.143-.016.539.539,0,0,1,.144-.012l.421-.006h1.62l5.958-.016c5.03-.024,11.98-.2,19.663-.143l3.707.055.154,0-.022.154c-.984,6.728-1.854,12.681-2.482,16.976-.322,2.12-.582,3.831-.764,5.034q-.139.861-.219,1.356l-.063.35A.441.441,0,0,1,311.238,369.584Z" transform="translate(-283.151 -345.529)"/></g><g transform="translate(21.778 61.881)"><path class="e" d="M300.732,339.861a6.228,6.228,0,0,1-1.065-.911,34.173,34.173,0,0,1-4.373-5.142,6.263,6.263,0,0,1-.728-1.2,8.15,8.15,0,0,1,.885,1.082c.526.682,1.262,1.615,2.112,2.615s1.654,1.876,2.243,2.5A8.216,8.216,0,0,1,300.732,339.861Z" transform="translate(-294.564 -332.61)"/></g><g transform="translate(54.897 15.793)"><path class="c" d="M361.311,253.609a75.626,75.626,0,0,1-4.111-8.159,76.025,76.025,0,0,1,4.111,8.159Z" transform="translate(-357.197 -245.449)"/></g><g transform="translate(80.43 23.551)"><path class="c" d="M413.823,260.123a7.023,7.023,0,0,1-1.05,1.1,31.121,31.121,0,0,1-5.92,4.329,7.019,7.019,0,0,1-1.368.667,10.3,10.3,0,0,1,1.269-.834c.792-.5,1.873-1.2,3.025-2.045s2.151-1.658,2.865-2.262A10.184,10.184,0,0,1,413.823,260.123Z" transform="translate(-405.484 -260.121)"/></g><g transform="translate(97.233 13.268)"><path class="c" d="M443.1,248.371a84.612,84.612,0,0,1-5.835-7.7,84.827,84.827,0,0,1,5.835,7.7Z" transform="translate(-437.261 -240.674)"/></g><g transform="translate(95.729 39.546)"><path class="c" d="M440.776,290.374a47.921,47.921,0,0,1-6.359,3.465,47.516,47.516,0,0,1,6.359-3.465Z" transform="translate(-434.417 -290.37)"/></g><g transform="translate(122.637 31.006)"><path class="c" d="M485.374,284.3a92.378,92.378,0,0,1,.209-10.084,92.7,92.7,0,0,1-.209,10.084Z" transform="translate(-485.306 -274.219)"/></g><g transform="translate(120.365 55.488)"><path class="c" d="M491.894,320.546a107.817,107.817,0,0,1-10.886.655,108.2,108.2,0,0,1,10.886-.655Z" transform="translate(-481.008 -320.519)"/></g><g transform="translate(144.391 55.843)"><path class="c" d="M527.143,331.567a98.147,98.147,0,0,1-.67-10.376,98.211,98.211,0,0,1,.67,10.376Z" transform="translate(-526.446 -321.191)"/></g><g transform="translate(131.362 79.649)"><path class="c" d="M509.7,366.214a108.273,108.273,0,0,1-7.895,7.538,107.962,107.962,0,0,1,7.895-7.538Z" transform="translate(-501.806 -366.213)"/></g><g transform="translate(110.955 79.113)"><path class="c" d="M468.5,370.046a3.257,3.257,0,0,1-.982-.429,11.225,11.225,0,0,1-3.791-3.475,3.226,3.226,0,0,1-.512-.942,17.514,17.514,0,0,0,5.286,4.846Z" transform="translate(-463.213 -365.199)"/></g><g transform="translate(48.682 35.98)"><path class="c" d="M352.6,283.627a80.492,80.492,0,0,1-7.153,6.115,80.262,80.262,0,0,1,7.153-6.115Z" transform="translate(-345.444 -283.626)"/></g><g transform="translate(68.35 38.437)"><path class="c" d="M384.776,293.049a8.9,8.9,0,0,1-2.123-4.776c.08-.018.365,1.123.954,2.435S384.843,293,384.776,293.049Z" transform="translate(-382.639 -288.273)"/></g><g transform="translate(35.831 6.657)"><path class="c" d="M330.108,228.174c.048.059-1.921,1.726-4.4,3.722s-4.523,3.567-4.57,3.507,1.921-1.725,4.4-3.722S330.06,228.114,330.108,228.174Z" transform="translate(-321.139 -228.172)"/></g><g transform="translate(30.979 27.008)"><path class="c" d="M315.619,274.119c-.079.026-.68-1.739-1.692-3.8s-2.029-3.618-1.96-3.664a4.693,4.693,0,0,1,.744.975,23.618,23.618,0,0,1,2.595,5.3A4.691,4.691,0,0,1,315.619,274.119Z" transform="translate(-311.964 -266.659)"/></g><g transform="translate(20.872 46.128)"><path class="c" d="M302.4,302.823a5.886,5.886,0,0,1-1.321.555,21.5,21.5,0,0,1-6.8,1.132,5.85,5.85,0,0,1-1.429-.1,9.942,9.942,0,0,1,1.424-.1,30.006,30.006,0,0,0,6.749-1.123A10,10,0,0,1,302.4,302.823Z" transform="translate(-292.849 -302.817)"/></g><g transform="translate(9.985 75.564)"><path class="c" d="M281.546,358.49a109.357,109.357,0,0,1-9.284,5.84,109.22,109.22,0,0,1,9.284-5.84Z" transform="translate(-272.261 -358.488)"/></g><g transform="translate(29.227 73.772)"><path class="c" d="M313.162,367.569c-.072.025-1.139-2.745-2.384-6.188s-2.2-6.257-2.125-6.283,1.138,2.745,2.384,6.189S313.234,367.543,313.162,367.569Z" transform="translate(-308.65 -355.098)"/></g><g transform="translate(46.119 57.139)"><path class="c" d="M343.787,330.531a52.409,52.409,0,0,1-3.186-6.888,52.214,52.214,0,0,1,3.186,6.888Z" transform="translate(-340.596 -323.642)"/></g><g transform="translate(105.034 54.43)"><path class="c" d="M455.135,318.52a6.406,6.406,0,0,1-.44,1.19c-.3.723-.707,1.72-1.137,2.831s-.8,2.125-1.062,2.86a6.319,6.319,0,0,1-.474,1.177,5.371,5.371,0,0,1,.289-1.237c.219-.752.559-1.782.99-2.9s.872-2.107,1.216-2.811A5.336,5.336,0,0,1,455.135,318.52Z" transform="translate(-452.015 -318.519)"/></g><g transform="translate(48.881 97.169)"><path class="c" d="M355.648,399.574a10.534,10.534,0,0,1-1.457,0,29.322,29.322,0,0,0-6.946.743,10.49,10.49,0,0,1-1.426.3,6.064,6.064,0,0,1,1.377-.493,21.414,21.414,0,0,1,7-.749A6.06,6.06,0,0,1,355.648,399.574Z" transform="translate(-345.819 -399.346)"/></g><g transform="translate(68.047 92.764)"><path class="c" d="M386.983,396.673c-.075.042-.891-1.443-2.256-3s-2.713-2.584-2.66-2.652a3.674,3.674,0,0,1,.928.614,14.694,14.694,0,0,1,3.509,4.036A3.653,3.653,0,0,1,386.983,396.673Z" transform="translate(-382.065 -391.015)"/></g><g transform="translate(82.101 94.261)"><path class="c" d="M415.256,393.85a54.208,54.208,0,0,1-6.611,3.978,54.122,54.122,0,0,1,6.611-3.978Z" transform="translate(-408.644 -393.846)"/></g><g transform="translate(100.746 97.153)"><path class="c" d="M448.576,399.84a20.089,20.089,0,0,1-4.671-.49,20.09,20.09,0,0,1,4.671.49Z" transform="translate(-443.905 -399.314)"/></g></g><g transform="translate(42.607)"><path class="e" d="M376.573,119.491a2.345,2.345,0,0,0,3.457,2.583c1.5-.87,1.575-3.012,1.174-4.7s-1.083-3.474-.458-5.091c.479-1.238,1.62-2.069,2.49-3.071a7.485,7.485,0,0,0,1.716-6.457,6.293,6.293,0,0,0-4.6-4.7c-2.3-.506-5.061.35-6.844-1.2-1.292-1.121-1.477-3.067-2.505-4.434-1.6-2.122-4.725-2.3-7.33-1.788s-5.233,1.5-7.842,1.008c-2.179-.412-4.027-1.813-6.093-2.62a11.622,11.622,0,0,0-14.2,16.787,7.423,7.423,0,0,0,3.8,3.358" transform="translate(-333.955 -88.279)"/><g transform="translate(6.761 11.095)"><path class="f" d="M373.819,178.52h0a13.2,13.2,0,0,1-14.236-12.029c-.356-4.146-.648-7.638-.648-7.638s-10.587-.894-11.45-11.355-.738-33.253-.738-33.253l0-1.378c11.756-6.059,25.942-4.134,36.96,3.18l.136,2.158,2.087,46.984A13.2,13.2,0,0,1,373.819,178.52Z" transform="translate(-346.74 -109.26)"/><g transform="translate(1.339 17.464)"><g transform="translate(1.676 0.914)"><path class="e" d="M354.55,146.977a1.539,1.539,0,0,0-.088-2.869,1.41,1.41,0,0,0-1.079.034,1.538,1.538,0,0,0,.087,2.869A1.409,1.409,0,0,0,354.55,146.977Z" transform="translate(-352.441 -144.018)"/></g><path class="e" d="M349.3,143.972c.177.17,1.15-.694,2.59-.8,1.44-.129,2.541.564,2.687.368.072-.088-.114-.4-.6-.719a3.563,3.563,0,0,0-4.212.346C349.344,143.555,349.212,143.9,349.3,143.972Z" transform="translate(-349.273 -142.288)"/></g><g transform="translate(16.704 17.707)"><g transform="translate(1.398 0.866)"><path class="e" d="M381.611,144.671a1.524,1.524,0,1,0,2.127.352A1.524,1.524,0,0,0,381.611,144.671Z" transform="translate(-380.975 -144.386)"/></g><path class="e" d="M378.355,144.431c.177.17,1.15-.694,2.59-.8,1.44-.129,2.541.564,2.687.367.072-.088-.114-.4-.6-.718a3.561,3.561,0,0,0-4.212.346C378.4,144.015,378.27,144.356,378.355,144.431Z" transform="translate(-378.331 -142.748)"/></g><g transform="translate(7.977 19.096)"><path class="e" d="M365.629,157.972a7.391,7.391,0,0,0-2.367-.315c-.378-.014-.692-.075-.741-.289a2.055,2.055,0,0,1,.192-1.113c.3-.974.61-1.968.933-3.01,1.283-4.285,2.156-7.808,1.951-7.87s-1.412,3.361-2.695,7.647c-.3,1.048-.592,2.048-.875,3.028a2.4,2.4,0,0,0-.1,1.569.971.971,0,0,0,.679.547,2.418,2.418,0,0,0,.645.04A7.391,7.391,0,0,0,365.629,157.972Z" transform="translate(-361.826 -145.374)"/></g><g transform="translate(9.649 32.778)"><path class="g" d="M371.916,171.429c1.44-1-3.983,2.488-6.928,2.551a4,4,0,0,0,4.814,1.256C372.855,173.869,371.916,171.429,371.916,171.429Z" transform="translate(-364.988 -171.249)"/></g><g transform="translate(12.166 44.606)"><path class="h" d="M369.749,198.455a24.407,24.407,0,0,0,13.378-4.836s-2.7,7.761-13.212,7.551Z" transform="translate(-369.749 -193.619)"/></g><g transform="translate(34.642 15.849)"><path class="f" d="M414.557,139.314c.226-.088,7.763-1.132,7.125,7.784s-9.431,5.323-9.429,5.066S414.557,139.314,414.557,139.314Z" transform="translate(-412.254 -139.233)"/><g transform="translate(2.945 3.06)"><path class="h" d="M417.834,151.957c.041-.025.148.12.4.259a1.557,1.557,0,0,0,1.159.107c.967-.279,1.867-1.717,2.024-3.321a5.134,5.134,0,0,0-.275-2.255,1.8,1.8,0,0,0-1.083-1.276.793.793,0,0,0-.947.36c-.138.241-.094.423-.142.435-.026.021-.18-.163-.082-.526a1,1,0,0,1,.391-.533,1.173,1.173,0,0,1,.876-.166,2.188,2.188,0,0,1,1.523,1.5,5.276,5.276,0,0,1,.36,2.524c-.185,1.792-1.225,3.407-2.541,3.688a1.665,1.665,0,0,1-1.4-.337C417.834,152.174,417.8,151.971,417.834,151.957Z" transform="translate(-417.824 -145.02)"/></g></g></g><g transform="translate(21.848 23.019)"><path class="e" d="M383.005,133.637c-.228.321-1.8-.465-3.853-.449-2.054-.041-3.634.728-3.858.4-.1-.149.187-.574.87-1a5.985,5.985,0,0,1,5.983.035C382.824,133.062,383.108,133.49,383.005,133.637Z" transform="translate(-375.274 -131.811)"/></g><g transform="translate(8.091 24.551)"><path class="e" d="M354.337,135.614c-.087.377-1.208.433-2.525.474s-2.44.03-2.547-.342c-.109-.356,1-1,2.511-1.034S354.428,135.252,354.337,135.614Z" transform="translate(-349.257 -134.709)"/></g><g transform="translate(3.893 3.812)"><g transform="translate(0 4.592)"><path class="e" d="M341.954,116.289s6.44,2.827,14.52-1.589c5.3-2.9,11.551-4.45,12.979-3.415s1.929,6.59,7.341,8.016c0,0,.028,10.635,4.249,10.1s.961-16.888.961-16.888l-9.953-6.623-11.384-1.715-12.42,1.851-6.93,4.561Z" transform="translate(-341.318 -104.173)"/></g><g transform="translate(36.816 3.903)"><path class="e" d="M415.241,102.978a6.175,6.175,0,0,0-4.293,1.885c-.027-.019.1-.27.408-.6a4.457,4.457,0,0,1,3.164-1.389A1.433,1.433,0,0,1,415.241,102.978Z" transform="translate(-410.944 -102.87)"/></g><g transform="translate(35.785)"><path class="e" d="M409.808,95.488a3.026,3.026,0,0,1,.23.951,9.6,9.6,0,0,1,.09,2.363,6.852,6.852,0,0,1-.6,2.293,2.522,2.522,0,0,1-.526.829,5.646,5.646,0,0,1,.347-.9,8.582,8.582,0,0,0,.508-2.243,13.849,13.849,0,0,0-.009-2.315A4.067,4.067,0,0,1,409.808,95.488Z" transform="translate(-408.994 -95.488)"/></g></g><g transform="translate(1.337 3.866)"><path class="i" d="M375.221,100.084s-.019.1-.07.283a5.013,5.013,0,0,1-.3.8,6.573,6.573,0,0,1-4.232,3.548,5.843,5.843,0,0,1-2.828.05,6.679,6.679,0,0,1-2.9-1.473,6.231,6.231,0,0,1-1.955-3.069,4.712,4.712,0,0,1-.115-1.981,3.258,3.258,0,0,1,.948-1.845,2.716,2.716,0,0,1,2-.807,2.547,2.547,0,0,1,1.922,1.132,3.451,3.451,0,0,1,.622,2.236,4.449,4.449,0,0,1-.892,2.223,9.021,9.021,0,0,1-4.018,2.861,11.524,11.524,0,0,1-5.146.694,10.824,10.824,0,0,1-5.093-1.831,6.335,6.335,0,0,1-1.917-2.058,4.126,4.126,0,0,1-.478-1.364,3.811,3.811,0,0,1,.076-1.459,3.54,3.54,0,0,1,.653-1.322,2.708,2.708,0,0,1,1.225-.857,3.392,3.392,0,0,1,2.875.534,4.946,4.946,0,0,1,1.8,2.325,5.78,5.78,0,0,1,.311,2.886,6.459,6.459,0,0,1-3.25,4.477,8.177,8.177,0,0,1-5.314.9,9.722,9.722,0,0,1-4.756-2.071,5.633,5.633,0,0,1-1.532-2.016,4.608,4.608,0,0,1-.365-2.439,3.429,3.429,0,0,1,1.088-2.131,2.773,2.773,0,0,1,2.191-.744,2.737,2.737,0,0,1,1.865,1.235,3.412,3.412,0,0,1,.533,2.095,4.365,4.365,0,0,1-2.034,3.386,5.885,5.885,0,0,1-3.555.762,7.741,7.741,0,0,1-3.109-.966,5.5,5.5,0,0,1-2.969-4.1,4.239,4.239,0,0,1,.889-3.108,3.209,3.209,0,0,1,.627-.584c.163-.1.249-.152.249-.152a4.03,4.03,0,0,0-.832.771,4.218,4.218,0,0,0-.826,3.062,5.4,5.4,0,0,0,2.938,3.976,7.591,7.591,0,0,0,3.048.925,5.707,5.707,0,0,0,3.439-.753,4.166,4.166,0,0,0,1.924-3.233,3.2,3.2,0,0,0-.5-1.959,2.516,2.516,0,0,0-1.713-1.131,2.544,2.544,0,0,0-2,.693,3.192,3.192,0,0,0-1.005,1.988,4.366,4.366,0,0,0,.352,2.309,5.384,5.384,0,0,0,1.469,1.922,9.474,9.474,0,0,0,4.63,2,7.914,7.914,0,0,0,5.141-.869,6.192,6.192,0,0,0,3.114-4.285,5.506,5.506,0,0,0-.3-2.746,4.669,4.669,0,0,0-1.7-2.195,3.122,3.122,0,0,0-2.636-.5,2.434,2.434,0,0,0-1.1.769,3.285,3.285,0,0,0-.6,1.216,3.538,3.538,0,0,0-.071,1.35,3.841,3.841,0,0,0,.446,1.274,6.062,6.062,0,0,0,1.835,1.969,10.566,10.566,0,0,0,4.961,1.789,11.287,11.287,0,0,0,5.03-.669,8.792,8.792,0,0,0,3.913-2.768,4.212,4.212,0,0,0,.852-2.1,3.22,3.22,0,0,0-.574-2.084,2.322,2.322,0,0,0-1.747-1.043,2.5,2.5,0,0,0-1.841.74,3.049,3.049,0,0,0-.894,1.726,4.526,4.526,0,0,0,.1,1.9,6.062,6.062,0,0,0,1.881,2.986,6.537,6.537,0,0,0,2.819,1.454,5.718,5.718,0,0,0,2.761-.026,6.356,6.356,0,0,0,2.119-.988,6.522,6.522,0,0,0,2.1-2.457,5.649,5.649,0,0,0,.319-.788C375.183,100.176,375.221,100.084,375.221,100.084Z" transform="translate(-336.483 -95.59)"/></g><g transform="translate(34.512 14.167)"><path class="i" d="M415.154,119.715s-.021.029-.071.076a2.487,2.487,0,0,1-.232.195,3.948,3.948,0,0,1-1.019.566,4.586,4.586,0,0,1-1.821.309,4.285,4.285,0,0,1-2.321-.762,4.664,4.664,0,0,1-1.776-2.366,2.964,2.964,0,0,1-.129-1.678,1.414,1.414,0,0,1,.477-.788.958.958,0,0,1,.958-.117,1.413,1.413,0,0,1,.671.7,2.349,2.349,0,0,1,.231.944,4.227,4.227,0,0,1-7.378,2.873,2.264,2.264,0,0,1-.549-1.877,1.59,1.59,0,0,1,1.3-1.329,1.843,1.843,0,0,1,1.653.678,2.5,2.5,0,0,1,.508,1.609,3.468,3.468,0,0,1-1.341,2.615,3.318,3.318,0,0,1-2.32.736,3.609,3.609,0,0,1-1.741-.617,3.33,3.33,0,0,1-.831-.82,1.643,1.643,0,0,1-.2-.354,4.081,4.081,0,0,0,1.09,1.084,3.562,3.562,0,0,0,1.691.553,3.166,3.166,0,0,0,2.189-.733,3.273,3.273,0,0,0,1.235-2.466,2.271,2.271,0,0,0-.467-1.454,1.6,1.6,0,0,0-1.428-.58,1.331,1.331,0,0,0-1.077,1.128,2,2,0,0,0,.5,1.655,3.976,3.976,0,0,0,6.907-2.7,1.637,1.637,0,0,0-.74-1.422.706.706,0,0,0-.708.083,1.177,1.177,0,0,0-.392.651,2.749,2.749,0,0,0,.111,1.546,4.486,4.486,0,0,0,1.67,2.277,4.156,4.156,0,0,0,2.216.768,4.589,4.589,0,0,0,1.777-.256A5.72,5.72,0,0,0,415.154,119.715Z" transform="translate(-399.222 -115.071)"/></g></g><g transform="translate(44.244 107.347)"><g transform="translate(8.559)"><g transform="translate(0.001 17.709)"><path class="i" d="M354.3,324.781l44.461.765.5,30.253-46.019-1.553Z" transform="translate(-353.237 -324.781)"/></g><g transform="translate(1.059)"><path class="e" d="M355.239,309l23.015-17.709L399.7,309.764" transform="translate(-355.239 -291.291)"/></g><g transform="translate(0 30.399)"><path class="e" d="M353.236,365.555c-.054-.053,3.6-3.852,8.16-8.483s8.3-8.344,8.357-8.291-3.6,3.851-8.161,8.484S353.291,365.609,353.236,365.555Z" transform="translate(-353.236 -348.781)"/></g><g transform="translate(31.165 31.164)"><path class="e" d="M427.029,367.79c-.058.049-3.431-3.843-7.532-8.691s-7.381-8.821-7.322-8.871,3.43,3.842,7.532,8.693S427.087,367.741,427.029,367.79Z" transform="translate(-412.174 -350.227)"/></g><g transform="translate(1.059 17.709)"><path class="j" d="M399.7,325.546l-22.758,17.286-21.7-18.051" transform="translate(-355.239 -324.781)"/></g><g transform="translate(3.258 6.482)"><path class="k" d="M359.4,316.483l.252-12.933H398.6l.079,14.158L378.9,332.594Z" transform="translate(-359.396 -303.55)"/></g><text class="l" transform="translate(23.17 19.361)"><tspan x="-13.313" y="0">Guest</tspan></text></g><g transform="translate(0 28.601)"><path class="f" d="M346.277,345.381s-.667,6.717.961,6.689c2.845-.05,13.75-2.85,14.515-.752s-2.787,4.068-2.787,4.068,3.484.656,1.769,2.47-7.558,10.747-11.316,10.931c-5.406.266-12.368-1.556-12.368-1.556l2.844-19.694Z" transform="translate(-337.05 -345.381)"/><g transform="translate(9.782 9.009)"><path class="h" d="M369,362.422a2.252,2.252,0,0,1-.463.328c-.306.2-.761.465-1.334.776a33.272,33.272,0,0,1-9.569,3.394c-.641.119-1.162.2-1.524.238a2.211,2.211,0,0,1-.566.037c-.006-.043.786-.18,2.051-.465a41.644,41.644,0,0,0,9.519-3.376C368.28,362.777,368.982,362.384,369,362.422Z" transform="translate(-355.549 -362.419)"/></g><g transform="translate(10.007 13.75)"><path class="h" d="M368.908,371.387a2.21,2.21,0,0,1-.385.415,14.126,14.126,0,0,1-1.168,1.008,19.757,19.757,0,0,1-9.278,3.967,14.235,14.235,0,0,1-1.536.148,2.247,2.247,0,0,1-.566-.008c0-.048.8-.1,2.071-.332a22.232,22.232,0,0,0,9.192-3.93C368.282,371.893,368.876,371.351,368.908,371.387Z" transform="translate(-355.975 -371.385)"/></g></g><g transform="translate(38.093 28.448)"><path class="f" d="M425.241,345.091s.606,5.607-1.527,6.36c-2.684.947-13.75-2.85-14.515-.752s2.787,4.068,2.787,4.068-3.483.656-1.768,2.47,7.558,10.747,11.316,10.932a56.174,56.174,0,0,0,11.07-.762l-1.546-20.488Z" transform="translate(-409.091 -345.091)"/><g transform="translate(1.573 8.68)"><path class="h" d="M412.066,361.509c.022-.038.724.355,1.886.931a41.71,41.71,0,0,0,9.519,3.376c1.265.285,2.057.422,2.051.465a2.261,2.261,0,0,1-.566-.037c-.363-.039-.884-.119-1.524-.238a33.269,33.269,0,0,1-9.569-3.394c-.573-.311-1.027-.578-1.334-.776A2.265,2.265,0,0,1,412.066,361.509Z" transform="translate(-412.065 -361.506)"/></g><g transform="translate(2.181 13.421)"><path class="h" d="M413.216,370.474c.032-.035.616.494,1.631,1.253a22.718,22.718,0,0,0,4.25,2.5,21.218,21.218,0,0,0,4.711,1.449c1.246.226,2.033.28,2.029.328a2.144,2.144,0,0,1-.556.008,13.536,13.536,0,0,1-1.505-.144,18.547,18.547,0,0,1-4.791-1.389,19.636,19.636,0,0,1-4.257-2.6,15.058,15.058,0,0,1-1.136-1A2.169,2.169,0,0,1,413.216,370.474Z" transform="translate(-413.215 -370.472)"/></g></g></g></g></g></g></svg>