<svg xmlns="http://www.w3.org/2000/svg" width="232.547" height="166.59" viewBox="0 0 232.547 166.59"><defs><style>.a{fill:#ebf3fa;}.b{fill:#d2e0ff;}.c{opacity:0.8;}.d{fill:#aec3ff;}.e{opacity:0.5;}.f{fill:#bbd0ff;}.g{fill:#739af0;}.h{fill:#f3faff;}.i{fill:#2b478b;}.j{fill:#8c9df4;}.k{fill:#afcdfb;}.l{fill:#f99746;}.m{fill:#ffb27d;}.n{fill:#6980e2;}.o{fill:#1c4b8e;}.p{fill:#ffa561;}.q{fill:#f4904d;}.r{fill:#fca56b;}.s{fill:#163560;}.t{fill:#1f4d84;}.u{fill:#b3cff9;}.v{fill:#233862;}.w{fill:#ef873a;}.x{fill:#9fb1ff;}.y{fill:#182d4c;}.z{fill:#f2ccaa;}.aa{fill:#fff;}.ab{fill:#e8945b;}.ac{fill:#ed7d2b;}.ad{fill:#ed975d;}.ae{fill:#a8d29f;}</style></defs><g transform="translate(-275.011 -138.574)"><path class="a" d="M295.632,304.589s-39.277-33.537-9.419-65.322c31.789-33.841,3.625-77.285,46.776-94.814,46.653-18.951,58.656,14.427,78.187,9.3,38.955-10.223,88.366-5.189,80.145,44.466C481,260.551,523.342,252.6,498.195,304.8Z" transform="translate(0 0)"/><g transform="translate(410.564 167.043)"><path class="b" d="M1683.217,524.253s6.519-27.63,28.511-30.668a5.421,5.421,0,0,1,5.7,4.186c1.425,4.712-7.083,4.746-12.342,6.641S1687.572,514.341,1683.217,524.253Z" transform="translate(-1682.605 -487.711)"/><path class="b" d="M1677,464.373s-2.286-22.887,13.762-31.009a4.393,4.393,0,0,1,5.473,1.7c2.333,3.234-4.176,5.5-7.705,8.34S1677.724,455.632,1677,464.373Z" transform="translate(-1676.887 -433.002)"/></g><g class="c" transform="translate(326.626 195.348)"><path class="d" d="M843.4,750.148s9.432-5.282,5.031-12.451c0,0-3.521-4.4-7.294-5.534,0,0,2.012,10.69,0,10.942s-1.383-12.074-1.383-12.074-9.936-4.779-13.834-4.4c0,0,6.163,10.439,4.15,10.187S821.142,726,821.142,726s-10.187-1.886-11.822,4.15,1.006,9.055,2.515,9.433,11.193.252,10.942,1.509-6.792,3.27-10.439,2.138c0,0,4.025,9.936,9.307,9.432s6.917-3.773,10.187-4.024,5.66.629,4.025,1.509-7.169.289-9.81,2.534-4.779,3.629.126,4.635,13.708.377,15.469-3.4Z" transform="translate(-808.804 -725.722)"/><g transform="translate(5.169 6.316)"><path class="d" d="M862.263,791.04s26.411,8.552,29.429,18.11a20.065,20.065,0,0,0,2.515,9.181v1.887s-2.767-6.414-4.276-7.294C889.932,812.923,895.843,804.623,862.263,791.04Z" transform="translate(-862.263 -791.04)"/><path class="d" d="M1180.843,1062.315a17.42,17.42,0,0,1,1.751,13.714l-1.048-.281s1.017-8.293-1.114-12.464S1180.843,1062.315,1180.843,1062.315Z" transform="translate(-1148.898 -1035.024)"/></g></g><g class="e" transform="translate(295.632 239.267)"><path class="b" d="M559.106,1203.082s6.179-18.512-8.408-22.738c0,0-10.05-1.6-16.463,1.472,0,0,15.673,11.831,13.292,14.611s-16.514-14.442-16.514-14.442-19.073,5.688-23.821,10.928c0,0,20.91,6.453,17.917,8.562s-25.063-3.6-25.063-3.6-15.9,9.856-10.745,19.9,12.344,10.87,14.817,9.54,15.253-13.262,16.444-11.277-5.1,12.617-11.342,15.536c0,0,17.444,8.379,23.886,1.29s4.654-13.441,8.714-17.749,8.321-6.035,7.208-2.874-9.222,9.094-10.022,15.3-1.974,10.651,5.8,6.037,18.764-16.149,16.532-23.326Z" transform="translate(-488.274 -1179.928)"/><g transform="translate(9.533 20.841)"><path class="b" d="M586.859,1409.339s45.658-20.664,61.3-11.566c0,0,5.317,6.519,2.232,7.177C650.391,1404.95,648.2,1386.685,586.859,1409.339Z" transform="translate(-586.859 -1395.459)"/></g></g><g transform="translate(410.136 254.899)"><path class="f" d="M1877.4,1351.095s1.821-11.071,10.372-9.31c0,0,5.54,1.88,7.978,5.162,0,0-11.143,1.815-10.677,3.868s12.271-2.918,12.271-2.918,8.175,8.006,9.185,11.944c0,0-12.364-2.324-11.408-.449s13.71,4.89,13.71,4.89,5.442,9.274.129,13-9.192,2.219-10.094.88-4.2-10.834-5.34-10.144-.79,7.783,1.6,10.942c0,0-11.118-.416-12.494-5.748s1.237-8.083.327-11.363-2.614-5.3-2.9-3.394,2.252,7.1.995,10.468-1.852,5.946-4.567,1.515-5.214-13.243-2.154-16.3Z" transform="translate(-1853.548 -1341.595)"/><g transform="translate(0 9.494)"><path class="f" d="M1837.984,1462.1s-17.681-22.75-28.075-22.317a20.821,20.821,0,0,1-9.848.791l-1.841.667s7.237.433,8.63,1.594C1806.85,1442.836,1812.861,1434.134,1837.984,1462.1Z" transform="translate(-1786.06 -1439.778)"/><path class="f" d="M1686.461,1445.062a18.078,18.078,0,0,0-14,3.139l.645.923s7.733-3.924,12.556-3.318S1686.461,1445.062,1686.461,1445.062Z" transform="translate(-1672.46 -1444.265)"/></g></g><g transform="translate(423.082 188.688)"><path class="b" d="M1813.923,686.7s-11.53-6.457-6.149-15.22c0,0,4.3-5.381,8.917-6.764,0,0-2.46,13.067,0,13.375s1.691-14.758,1.691-14.758,12.145-5.842,16.911-5.381c0,0-7.533,12.76-5.073,12.453s10.915-13.221,10.915-13.221,12.452-2.306,14.451,5.073-1.23,11.069-3.075,11.53-13.682.307-13.375,1.845,8.3,4,12.76,2.613c0,0-4.92,12.145-11.376,11.53s-8.456-4.612-12.452-4.92-6.918.769-4.92,1.845,8.763.353,11.991,3.1,5.842,4.436-.154,5.666-16.757.461-18.909-4.151Z" transform="translate(-1806.343 -656.845)"/><g transform="translate(1.49 7.72)"><path class="b" d="M1891.984,736.689s-32.284,10.454-35.974,22.138a24.526,24.526,0,0,1-3.075,11.222v2.306s3.382-7.84,5.227-8.917C1858.163,763.439,1850.938,753.292,1891.984,736.689Z" transform="translate(-1849.921 -736.689)"/><path class="b" d="M1824.771,1068.289a21.293,21.293,0,0,0-2.14,16.764l1.281-.344s-1.243-10.137,1.361-15.235S1824.771,1068.289,1824.771,1068.289Z" transform="translate(-1821.757 -1034.928)"/></g></g><g transform="translate(353.321 186.573)"><g transform="translate(0 0)"><rect class="g" width="86.183" height="117.857"/><rect class="h" width="78.838" height="111.429" transform="translate(3.672 3.18)"/><path class="i" d="M1361.5,634.977v4.015a4.013,4.013,0,0,0,4.011,4.015h21.545a4.013,4.013,0,0,0,4.011-4.015v-4.015Z" transform="translate(-1334.755 -634.977)"/></g><g transform="translate(12.824 98.836)"><rect class="d" width="9.754" height="0.987"/><rect class="d" width="9.754" height="0.987" transform="translate(12.013)"/><rect class="d" width="13.528" height="0.987" transform="translate(0 2.191)"/></g><g transform="translate(21.24 16.531)"><g transform="translate(2.912)"><path class="j" d="M1334.665,807.093h3.571a3.113,3.113,0,0,1,2.276.792,2.47,2.47,0,0,1,.669,1.808,2.426,2.426,0,0,1-1.674,2.421l1.908,2.789h-2.008l-1.7-2.5h-1.328v2.5h-1.718Zm3.459,3.794c.837,0,1.317-.446,1.317-1.127,0-.736-.513-1.116-1.35-1.116h-1.707v2.243Z" transform="translate(-1334.665 -806.981)"/><path class="j" d="M1416.828,811.556v-4.463h1.718v4.418c0,1.272.636,1.93,1.685,1.93s1.685-.636,1.685-1.875v-4.474h1.719V811.5c0,2.365-1.328,3.526-3.426,3.526S1416.828,813.855,1416.828,811.556Z" transform="translate(-1408.884 -806.981)"/><path class="j" d="M1505.338,807.093h1.719v6.248h3.894V814.9h-5.613Z" transform="translate(-1488.835 -806.981)"/><path class="j" d="M1576.769,807.093h5.891v1.529h-4.184v1.584h3.682v1.529h-3.682v1.64h4.24V814.9h-5.947Z" transform="translate(-1553.359 -806.981)"/><path class="j" d="M1648.547,812.723l1.015-1.216a3.583,3.583,0,0,0,2.332.948c.7,0,1.127-.279,1.127-.759,0-.435-.268-.658-1.573-.993-1.573-.4-2.589-.837-2.589-2.41a2.443,2.443,0,0,1,2.734-2.354,4.523,4.523,0,0,1,2.9.993l-.893,1.294a3.664,3.664,0,0,0-2.031-.77c-.658,0-1,.3-1,.7,0,.513.335.681,1.685,1.026,1.584.413,2.477.982,2.477,2.366,0,1.551-1.183,2.421-2.868,2.421A4.969,4.969,0,0,1,1648.547,812.723Z" transform="translate(-1618.196 -805.939)"/></g><rect class="j" width="42.356" height="0.547" transform="translate(0 9.764)"/></g><g transform="translate(8.885 27.884)"><g transform="translate(51.481)"><g transform="translate(0 2.445)"><path class="k" d="M1723.447,962.889h-14.259V948.63h14.259Zm-13.587-.672h12.915V949.3h-12.915Z" transform="translate(-1709.188 -948.63)"/></g><g transform="translate(2.076)"><path class="l" d="M1736.067,937.184a1.006,1.006,0,0,1-.776-.365l-4.4-5.323a1.007,1.007,0,1,1,1.553-1.284l3.49,4.221,6.313-10.595a1.007,1.007,0,1,1,1.731,1.031l-7.044,11.823a1.007,1.007,0,0,1-.788.489C1736.119,937.183,1736.093,937.184,1736.067,937.184Z" transform="translate(-1730.66 -923.346)"/></g></g><g transform="translate(0 4.387)"><g transform="translate(8.801 0.162)"><rect class="d" width="31.676" height="1.391"/><g transform="translate(0 6.214)"><rect class="d" width="29.193" height="1.391"/></g><g transform="translate(0 3.107)"><rect class="d" width="8.635" height="1.391" transform="translate(23.041)"/><rect class="d" width="20.649" height="1.391"/></g></g><path class="d" d="M1178.49,970.123l-1.417.394-.292-1.125,2.115-.675h.967v7.93h-1.372Z" transform="translate(-1176.781 -968.717)"/><path class="d" d="M1218.021,1040.864a.5.5,0,1,1,.5.5A.5.5,0,0,1,1218.021,1040.864Z" transform="translate(-1214.033 -1033.435)"/></g></g><g transform="translate(8.824 49.184)"><g transform="translate(51.652)"><g transform="translate(0 2.445)"><path class="k" d="M1724.589,1183.173H1710.33v-14.259h14.259ZM1711,1182.5h12.916v-12.916H1711Z" transform="translate(-1710.33 -1168.914)"/></g><g transform="translate(2.076)"><path class="l" d="M1737.209,1157.467a1.009,1.009,0,0,1-.776-.365l-4.4-5.323a1.007,1.007,0,0,1,1.553-1.284l3.49,4.221,6.313-10.595a1.007,1.007,0,1,1,1.731,1.031l-7.044,11.823a1.009,1.009,0,0,1-.788.489C1737.261,1157.466,1737.235,1157.467,1737.209,1157.467Z" transform="translate(-1731.802 -1143.629)"/></g></g><g transform="translate(0 4.387)"><path class="d" d="M1176.15,1195.846l2.692-2.29c1.072-.9,1.463-1.407,1.463-2.111a1.172,1.172,0,0,0-1.262-1.217c-.715,0-1.206.391-1.809,1.172l-.972-.76a3.206,3.206,0,0,1,2.881-1.642,2.345,2.345,0,0,1,2.58,2.357c0,1.229-.659,1.888-2.032,3.027l-1.608,1.34h3.719v1.206h-5.651Z" transform="translate(-1176.15 -1189)"/><path class="d" d="M1244.211,1261.217a.5.5,0,1,1,.5.5A.5.5,0,0,1,1244.211,1261.217Z" transform="translate(-1237.63 -1253.785)"/><g transform="translate(9.124 0.162)"><rect class="d" width="33.286" height="1.391"/><g transform="translate(0 6.214)"><rect class="d" width="30.676" height="1.391"/></g><g transform="translate(0 3.107)"><rect class="d" width="9.074" height="1.391" transform="translate(24.212)"/><rect class="d" width="21.698" height="1.391"/></g></g></g></g><g transform="translate(8.725 70.641)"><g transform="translate(51.751)"><g transform="translate(0 2.445)"><path class="k" d="M1724.589,1405.081H1710.33v-14.259h14.259ZM1711,1404.41h12.916v-12.915H1711Z" transform="translate(-1710.33 -1390.823)"/></g><g transform="translate(2.076)"><path class="l" d="M1737.209,1379.377a1.008,1.008,0,0,1-.776-.365l-4.4-5.323a1.007,1.007,0,0,1,1.553-1.284l3.49,4.221,6.313-10.595a1.007,1.007,0,1,1,1.731,1.031l-7.044,11.823a1.008,1.008,0,0,1-.788.489C1737.261,1379.376,1737.235,1379.377,1737.209,1379.377Z" transform="translate(-1731.802 -1365.54)"/></g></g><g transform="translate(9.223 4.549)"><rect class="d" width="33.286" height="1.391"/><g transform="translate(0 6.214)"><rect class="d" width="30.676" height="1.391"/></g><g transform="translate(0 3.107)"><rect class="d" width="9.074" height="1.391" transform="translate(24.212)"/><rect class="d" width="21.698" height="1.391"/></g></g><g transform="translate(0 4.461)"><path class="d" d="M1175.126,1418.113l.94-.874a2.5,2.5,0,0,0,2.011,1.005,1.2,1.2,0,0,0,1.322-1.18c0-.754-.688-1.18-1.759-1.18h-.623l-.219-.841,2.066-2.2h-3.311v-1.169h5.06v1.005l-2.131,2.186c1.213.175,2.251.8,2.251,2.175a2.448,2.448,0,0,1-2.677,2.415A3.627,3.627,0,0,1,1175.126,1418.113Z" transform="translate(-1175.126 -1411.676)"/><path class="d" d="M1237.09,1482.57a.487.487,0,1,1,.487.487A.486.486,0,0,1,1237.09,1482.57Z" transform="translate(-1231.098 -1475.276)"/></g></g><g transform="translate(40.298 87.345)"><g transform="translate(2.664 9.318)"><path class="d" d="M1535.125,1639.979a6.066,6.066,0,0,1-5.925-4.829.414.414,0,0,1,.812-.166,5.221,5.221,0,0,0,10.216.049.414.414,0,0,1,.81.174A6.077,6.077,0,0,1,1535.125,1639.979Z" transform="translate(-1529.191 -1634.652)"/></g><g transform="translate(2.652 2.549)"><path class="d" d="M1529.488,1570.035a.409.409,0,0,1-.079-.008.414.414,0,0,1-.328-.485,6.049,6.049,0,0,1,11.8-.321.414.414,0,1,1-.8.2,5.221,5.221,0,0,0-10.186.277A.414.414,0,0,1,1529.488,1570.035Z" transform="translate(-1529.073 -1564.65)"/></g><path class="d" d="M1510.242,1555.479a8.6,8.6,0,1,1,8.6-8.6A8.607,8.607,0,0,1,1510.242,1555.479Zm0-16.016a7.419,7.419,0,1,0,7.419,7.419A7.428,7.428,0,0,0,1510.242,1539.462Z" transform="translate(-1501.645 -1538.285)"/><g transform="translate(6.091 7.52)"><rect class="d" width="3.405" height="0.545" transform="translate(0.803)"/><rect class="d" width="3.405" height="0.545" transform="translate(0.803 2.23)"/><rect class="d" width="5.012" height="0.545" transform="translate(0 1.077)"/></g></g></g><g transform="translate(319.44 227.326)"><path class="m" d="M1013.746,1227.618s.268-.6.441-.887.914-1.121,1.04-.932.631,1.463.363,1.819.017.977-1.316,1.352Z" transform="translate(-986.743 -1209.398)"/><path class="n" d="M860.564,1205.54s6.823,5.7,9.483,5.168a52.423,52.423,0,0,0,5.273-1.507l.638,1.634s-2.863,3.884-5.848,3.91a17,17,0,0,1-8.114-2.021Z" transform="translate(-848.373 -1191.123)"/><path class="o" d="M736.814,1817.213s.2,3.2.816,3.241c.082.006,3.135.006,3.135.006l3.9-.023a1.265,1.265,0,0,0-1.165-1.138,5.283,5.283,0,0,1-3.736-2.5C739.036,1815.211,736.814,1817.213,736.814,1817.213Z" transform="translate(-736.589 -1742.723)"/><path class="p" d="M734.49,1460.612a8.123,8.123,0,0,0,2.11.4,7.743,7.743,0,0,0,1.969-.281,53.919,53.919,0,0,1,1.451-6.91c.644-2.491,1.563-5.694,2.87-9.674A131.033,131.033,0,0,0,747.7,1426.1c.005-.032.008-.048.008-.048l-.012-.005-11.114-4.88s1.374,15.16-.379,20.979a24.532,24.532,0,0,0-.636,2.788A111.737,111.737,0,0,0,734.49,1460.612Z" transform="translate(-734.49 -1385.899)"/><path class="q" d="M755.964,1453.817c.643-2.491,1.562-5.694,2.87-9.674a131.018,131.018,0,0,0,4.815-18.044c0-.018,0-.036,0-.053l-11.114-4.88s1.374,15.16-.379,20.979C751.905,1442.958,755.964,1453.817,755.964,1453.817Z" transform="translate(-750.434 -1385.899)"/><path class="o" d="M826.587,1817.213s.2,3.2.816,3.241c.082.006,3.135.006,3.135.006l3.9-.023a1.265,1.265,0,0,0-1.165-1.138,5.282,5.282,0,0,1-3.736-2.5C828.809,1815.211,826.587,1817.213,826.587,1817.213Z" transform="translate(-817.682 -1742.723)"/><path class="p" d="M781.364,1424.861a158.211,158.211,0,0,1-1.555,21.886c-1.7,12.062-1.124,17.182-1.124,17.182a11.608,11.608,0,0,1-1.639.417,7.439,7.439,0,0,1-2.432-.281s-2.433-12.066-1.735-18.1-3.331-20.717-3.331-20.717Z" transform="translate(-766.158 -1389.236)"/><path class="m" d="M810.253,1141.742l2.169,1.422,1.976-.559a4.722,4.722,0,0,0,.462-2.369,14.767,14.767,0,0,0-.078-1.578l-2.927-1.292-1.092-.481c0,.017.085.9.1,1.025A7.473,7.473,0,0,1,810.253,1141.742Z" transform="translate(-802.927 -1129.108)"/><path class="j" d="M764.315,1205.129c-2.7,2.607-12.92,2.169-13.549-.7s.687-24.453,5.3-25.809c.957-.281,6.075,1.373,6.075,1.373a32.446,32.446,0,0,1,1.33,4.775c.1.521.4,6.036.624,11.195.1,2.413.192,4.749.237,6.459A18.639,18.639,0,0,1,764.315,1205.129Z" transform="translate(-749.059 -1166.774)"/><path class="r" d="M818.023,1142.444c.594,1,2.677,1.883,3.781,2.285a14.8,14.8,0,0,0-.078-1.578l-2.927-1.292C818.152,1141.851,817.758,1142,818.023,1142.444Z" transform="translate(-809.87 -1133.6)"/><path class="m" d="M807.08,1080.868s-4.716,1.471-5.587-1.48-2.066-4.748.908-5.813,3.894-.111,4.425.8S808.284,1080.409,807.08,1080.868Z" transform="translate(-794.12 -1071.495)"/><path class="s" d="M787.473,1059.042s-.3,3.434-1.011,3.285-1.492-.468-1.388.567-.691,2.809-1.715,2.805c-2.2-.009-4.583-5.645-3.981-6.713C781.113,1055.9,789.98,1055.28,787.473,1059.042Z" transform="translate(-774.953 -1056.442)"/><path class="n" d="M811.766,1166.161c-.061-.026-3.511-1.573-3.914-1.44s-.906,1.365-.906,1.365l6.075,1.374A3.015,3.015,0,0,0,811.766,1166.161Z" transform="translate(-799.939 -1154.244)"/><g transform="translate(12.157 2.175)"><path class="t" d="M881.362,1335.256l-19.339,18.208c-.379.357-.857.471-1.062.253l-.653-.693c-.205-.218-.063-.688.316-1.045l19.339-18.208c.379-.357.857-.471,1.062-.253l.653.693C881.883,1334.429,881.741,1334.9,881.362,1335.256Z" transform="translate(-860.214 -1308.801)"/><path class="g" d="M870.509,1444.325l-8.486,7.99c-.379.357-.857.47-1.062.252l-.653-.693c-.205-.218-.063-.688.316-1.045l8.486-7.99Z" transform="translate(-860.214 -1407.651)"/><path class="t" d="M1026.814,1098.515a15.158,15.158,0,1,0,25.124-15.233q-.116-.116-.238-.229a15.159,15.159,0,0,0-24.886,15.462Zm4.333-13.99a13.962,13.962,0,1,1,.6,19.735A13.945,13.945,0,0,1,1031.146,1084.525Z" transform="translate(-1010.111 -1078.934)"/><g class="e" transform="translate(17.242 1.197)"><path class="u" d="M1062.658,1114.838a13.962,13.962,0,1,1-.6-19.735A13.907,13.907,0,0,1,1062.658,1114.838Z" transform="translate(-1038.528 -1091.311)"/></g></g><path class="n" d="M800.986,1259.474c-10.656-7.593-9.77-17.725-9.77-17.725,3.895,2.2,7.759,7.053,9.533,11.267C800.852,1255.429,800.94,1257.765,800.986,1259.474Z" transform="translate(-785.714 -1223.831)"/><g transform="translate(5.279 13.216)"><path class="m" d="M989.271,1381.45a2.907,2.907,0,0,0,1.361-.841s.32.022-.053.706c-.031.057-.1.2-.153.308a.066.066,0,0,0,.056.1,7.094,7.094,0,0,1,1.705.036c.115.024.149.3.144.418a1.066,1.066,0,0,1-.225.728,3.717,3.717,0,0,1-1.347.705,4.074,4.074,0,0,1-2.084-.262l-.682-.316.211-1.268.171.036C988.65,1381.852,988.987,1381.519,989.271,1381.45Z" transform="translate(-968.762 -1362.48)"/><path class="j" d="M792.615,1193.121s-9.575,1.823,2.817,15.688c1.982,2.218,12.689,5.105,12.689,5.105s1.086-.924.539-1.672c0,0-7.372-5.354-8.994-6.2-.73-.383-2.832-8.545-4.022-10.51A5.362,5.362,0,0,0,792.615,1193.121Z" transform="translate(-789.086 -1193.121)"/></g><path class="m" d="M1016.431,1224.807a4.859,4.859,0,0,0,.374-.914,5.062,5.062,0,0,1,.618-1.4c.065-.065.28.019.305.3a1.623,1.623,0,0,1-.154.606,6.834,6.834,0,0,0-.2,1.2C1017.223,1225.084,1016.431,1224.807,1016.431,1224.807Z" transform="translate(-989.169 -1206.419)"/></g><g transform="translate(378.325 294.664)"><path class="i" d="M1343.475,1776.722a3.8,3.8,0,0,0,.03.481,3.947,3.947,0,0,0,3.92,3.469h55.554a3.95,3.95,0,0,0,0-7.9h-55.554A3.95,3.95,0,0,0,1343.475,1776.722Z" transform="translate(-1343.475 -1770.844)"/><path class="i" d="M1381.633,1754.052h19.048a.608.608,0,0,0,.606-.606h0a.608.608,0,0,0-.606-.606h-19.048a.608.608,0,0,0-.606.606h0A.608.608,0,0,0,1381.633,1754.052Z" transform="translate(-1377.396 -1752.84)"/><rect class="v" width="2.065" height="0.715" transform="translate(7.354 1.928) rotate(180)"/><path class="v" d="M1348.432,1833.172a3.954,3.954,0,0,0,3.47,2.061h11.768v-2.061Z" transform="translate(-1347.953 -1825.404)"/><path class="l" d="M1482.987,1775.565v2.314a2.792,2.792,0,0,1-2.792,2.793h-57.869a2.792,2.792,0,0,1-2.792-2.793v-2.314a2.792,2.792,0,0,1,2.792-2.793h57.869A2.792,2.792,0,0,1,1482.987,1775.565Z" transform="translate(-1412.179 -1770.844)"/><path class="w" d="M1483.8,1833.172a2.792,2.792,0,0,1-2.7,2.061h-57.869a2.792,2.792,0,0,1-2.7-2.061Z" transform="translate(-1413.088 -1825.404)"/><g transform="translate(65.061 1.927)"><path class="j" d="M2016.323,1776.736a4.391,4.391,0,0,0,1.149,3.05l.047.048a2.8,2.8,0,0,0,1.982.866c1.172,0,4.076-1.767,5.875-2.941.9-.585,1.52-1.023,1.52-1.023s-.623-.438-1.52-1.023c-1.8-1.175-4.7-2.942-5.875-2.942a2.619,2.619,0,0,0-.972.188,3.184,3.184,0,0,0-1.34,1.057,4.359,4.359,0,0,0-.8,1.933.229.229,0,0,0,0,.025A4.835,4.835,0,0,0,2016.323,1776.736Z" transform="translate(-2016.323 -1772.771)"/><path class="n" d="M2016.323,1806.67a4.391,4.391,0,0,0,1.149,3.05l8.907-3.064-10-.747A4.835,4.835,0,0,0,2016.323,1806.67Z" transform="translate(-2016.323 -1802.705)"/><path class="x" d="M2025.285,1775.775l8.885,2.426-7.546-3.483A3.182,3.182,0,0,0,2025.285,1775.775Z" transform="translate(-2024.418 -1774.53)"/><path class="y" d="M2103.953,1804.221a1.1,1.1,0,0,0,.58,1.023c.9-.585,1.519-1.023,1.519-1.023s-.623-.437-1.519-1.022A1.093,1.093,0,0,0,2103.953,1804.221Z" transform="translate(-2095.479 -1800.256)"/></g></g><g transform="translate(445.486 227.903)"><path class="s" d="M2157.429,1062.833a3.354,3.354,0,0,0-2.651-.284c-4.5-.529-5.816,4.722-5.755,6.529s.267,3.747-1.744,6.095c-5.808,6.78,6.356,7.08,6.356,7.08.1-5.417,6.6-3.441,6.312-2.892C2168.273,1081.359,2160.776,1064.569,2157.429,1062.833Z" transform="translate(-2135.297 -1062.401)"/><path class="m" d="M2042.8,1275.848s-.792-1.205-1.43-1.229-1.82-.354-1.726-.118.828.26.9.4-1.087.354-1.418.378-1.111,0-1.087.166a3.754,3.754,0,0,0,2.381.756,6.615,6.615,0,0,1,2.181.284Z" transform="translate(-2038.038 -1253.916)"/><path class="p" d="M2094.258,1203.337a11.9,11.9,0,0,1-1.211,1.831,7.09,7.09,0,0,1-4.214,2.809,4.519,4.519,0,0,1-2.5-.406h0a11.411,11.411,0,0,1-3.876-3.24,1.818,1.818,0,0,1,.248-1.785s4.467,1,4.893.792,3.041-6.016,3.512-6.982a5.3,5.3,0,0,1,2.591-2.644Z" transform="translate(-2078.043 -1181.014)"/><path class="q" d="M2130.459,1290.084a7.086,7.086,0,0,1-4.213,2.809,4.523,4.523,0,0,1-2.5-.406c.087.011,2.3.284,3.177-1.292.9-1.607,1.87-4.16,3.2-3.309C2130.7,1288.253,2130.674,1289.166,2130.459,1290.084Z" transform="translate(-2115.456 -1265.93)"/><path class="o" d="M2331.956,1786.445s1.363,1.244,1.1,2.128-1.5,1.473-1.663,2.553-.83,1.669-1.429,1.669h-2.854s-.44-.76.623-.989,1.465-1.5,1.4-2.677a20.71,20.71,0,0,1,.1-2.75l2.26-.524Z" transform="translate(-2299.074 -1715.902)"/><path class="o" d="M2186.215,1797.412s.49,5.27-.108,5.564l-7.659-.016s0-.884,1.23-1.08,3.391-.917,3.757-2.521S2186.215,1797.412,2186.215,1797.412Z" transform="translate(-2164.872 -1726.341)"/><path class="p" d="M2190.435,1193.874a30.467,30.467,0,0,1,0,3.54c-.076,1.28-1.371,2.994-1.554,3.418-.461,1.064-.981,1.237-.981,1.237l-4.021.985-1.414.346-4.459-1.332s-2.031-5.668-1.215-8.859a24.507,24.507,0,0,1,2.061-5.407s3.022-1.193,8.376-.3Z" transform="translate(-2163.2 -1175.106)"/><path class="z" d="M2240.961,1286.413a12.514,12.514,0,0,1-.377,2.9c-.461,1.064-.98,1.237-.98,1.237l-4.021.986-1.746-.513s5.83-.884,5.184-5.9Z" transform="translate(-2214.904 -1263.583)"/><path class="n" d="M2172.114,1350.145s-2.208,6.873-2.35,9.213,4.221,33.241,4.4,34.319c.165,1.016,1.427,1.664,1.427,1.664a1.911,1.911,0,0,0,1.409.109,3.49,3.49,0,0,0,1.513-.714s1.719-22.038.655-29.911a124.715,124.715,0,0,1-1.076-14.681Z" transform="translate(-2157.023 -1322.322)"/><path class="j" d="M2210.243,1348.025s3.368,4.519,3.682,7.574.492,13.786,1.161,16.764,3.127,8.709,3.127,18a1.855,1.855,0,0,1-1.045.816,8.64,8.64,0,0,1-.918.254,1.444,1.444,0,0,1-1.615-.766c-1.662-3.346-6.955-14.136-7.227-16.376-.191-1.585-1.863-12.076-5.508-18.232-.875-1.478.537-7.355.537-7.355Z" transform="translate(-2185.798 -1320.407)"/><path class="v" d="M2189.279,1339.172a4.629,4.629,0,0,0,2.647.737c2.1.042,7.315-.536,7.315-.536a4.305,4.305,0,0,1,.222,1.331s-6.365,1.605-10.054.234A2.329,2.329,0,0,1,2189.279,1339.172Z" transform="translate(-2174.541 -1312.41)"/><g transform="translate(15.92 27.139)"><path class="aa" d="M2203.644,1345.24a1.095,1.095,0,1,1,.96-1.086A1.03,1.03,0,0,1,2203.644,1345.24Zm0-1.854a.781.781,0,1,0,.642.768A.714.714,0,0,0,2203.644,1343.385Z" transform="translate(-2202.684 -1343.067)"/></g><path class="i" d="M2233.574,1272.665l-5.169,4.5a.9.9,0,0,1-1.265-.087l-6.6-7.574a.9.9,0,0,1,.088-1.265l5.169-4.5a.9.9,0,0,1,1.265.088l6.6,7.574A.9.9,0,0,1,2233.574,1272.665Z" transform="translate(-2202.698 -1244.071)"/><path class="m" d="M2252.615,1352.244c-.073.02-2.746.334-2.747.886a1.662,1.662,0,0,0,1.522,1.453,8.769,8.769,0,0,0,1.677-1.284Z" transform="translate(-2229.386 -1324.218)"/><path class="m" d="M2225.636,1157.2a8.9,8.9,0,0,1-.477-3.251l-.2.04-3.394.673s.077,1.068.079,2.075v.025c0,.874-.591,1.751.812,2.1C2222.887,1158.963,2226.274,1158.745,2225.636,1157.2Z" transform="translate(-2203.78 -1145.094)"/><path class="ab" d="M2221.957,1155.029s.077,1.068.08,2.075c1.9-.054,2.9-1.786,3.315-2.747Z" transform="translate(-2204.173 -1145.465)"/><path class="m" d="M2201.413,1100.32s4.494.074,4.5-2.725.586-4.675-2.284-4.841-3.428.9-3.656,1.836S2200.244,1100.229,2201.413,1100.32Z" transform="translate(-2184.264 -1089.803)"/><path class="s" d="M2217.116,1086.89s1.23,3.284,3.119,3.77a3.719,3.719,0,0,0,2.708-.021,5.348,5.348,0,0,1-1.75-3.16S2218.044,1085.327,2217.116,1086.89Z" transform="translate(-2199.8 -1084.008)"/><path class="s" d="M2199.012,1089.96a2.789,2.789,0,0,0-1.288,1.006,4.523,4.523,0,0,0-.607,2.57s-.927-2.232.114-3.495C2198.336,1088.7,2199.012,1089.96,2199.012,1089.96Z" transform="translate(-2181.392 -1086.812)"/><path class="m" d="M2261.332,1350.78a3.059,3.059,0,0,0-1.068-.146c-.428.06-.745-.008-.745.111s.552.176.67.234A5.834,5.834,0,0,0,2261.332,1350.78Z" transform="translate(-2238.103 -1322.754)"/><path class="p" d="M2273.007,1190.587a5.442,5.442,0,0,1,4.414,3.2c1.222,2.973,3.543,7.964,3.543,8.8s-1.3,3.428-8.257,4.917c0,0-.72-.757-.677-1.356,0,0,4.345-3.732,4.333-4.168-.022-.825-.712-1.914-4.527-5.73C2270.8,1195.211,2273.007,1190.587,2273.007,1190.587Z" transform="translate(-2248.979 -1178.192)"/></g><g transform="translate(349.409 151.845)"><g transform="translate(0 0)"><path class="v" d="M1096.8,275.9a6.211,6.211,0,0,0-4.182.793c-1.623,1.226-1.882.829-2.8,1.587s.021,1.659-.483,2.164a1.035,1.035,0,0,0,.225,1.731c.749.252.244,1.623,1.867,1.8s.9.931,2.434,1.046a13.542,13.542,0,0,1,3.624.507,1.281,1.281,0,0,0,1.778-.629c.232-.618.881.179,1.07-.666s-.487-1.178-.108-1.863S1101.54,276.822,1096.8,275.9Z" transform="translate(-1084.667 -275.829)"/><path class="m" d="M1214.183,731.42a.632.632,0,0,0-.108.677.006.006,0,0,0,0,0,4.2,4.2,0,0,0,1.338,1.448c.08.064.152.122.214.176l.048.043.037.033c.588.534.369.659,1.425,1.744,1.2,1.236,2.028,1.252,2.261,1.137.2-.1-.21-.755-.661-1.494l-.066-.108c-.06-.1-.12-.2-.18-.3-.529-.889-.4-1.309-.283-2.638.093-1.08,1.637-6.043,1.637-6.043l-2.294-.379s-.662,3.948-1.419,4.56c-.4.327-.859.334-1.248.577l-.081.052A3,3,0,0,0,1214.183,731.42Z" transform="translate(-1197.625 -682.221)"/><path class="v" d="M1214.183,779.406a.632.632,0,0,0-.108.677.006.006,0,0,0,0,0,4.861,4.861,0,0,0,1.34,1.443c.079.065.15.125.212.181l.048.042.037.033c.588.534.369.659,1.425,1.743,1.2,1.236,2.028,1.252,2.261,1.137.2-.1-.21-.755-.661-1.494a5.094,5.094,0,0,1-2.143-1.556c-.727-.914-1.215-2.091-1.71-2.771l-.081.052A3,3,0,0,0,1214.183,779.406Z" transform="translate(-1197.625 -730.207)"/><path class="m" d="M1389.24,722.325c.146.706,1.154.581,2.279.3s.859.046,2.461-.143,2.084-.79,2.131-1.029c.042-.212-.751-.281-1.6-.373l-.322-.036a6.937,6.937,0,0,1-2.542-1.23,10.18,10.18,0,0,1-2.075-2.429l-2.2.19s1.166,1.744,1.618,2.5a2.653,2.653,0,0,1,.227,1.5A2.83,2.83,0,0,0,1389.24,722.325Z" transform="translate(-1354.213 -674.687)"/><path class="v" d="M1408.615,757.144c1.125-.283.859.046,2.461-.143s2.084-.79,2.131-1.029c.042-.212-.75-.281-1.6-.373l-.008.017a4.521,4.521,0,0,1-2.291.73c-1.088.034-2.242-.269-2.993-.252a2.851,2.851,0,0,0,.022.752C1406.483,757.553,1407.49,757.428,1408.615,757.144Z" transform="translate(-1371.309 -709.209)"/><path class="ac" d="M1248.826,590.975l-2.016,5.545-2.632,7.241a4.35,4.35,0,0,1-1.427-.12,6.185,6.185,0,0,1-1.384-.661,78.484,78.484,0,0,1,2.049-12.221,7.93,7.93,0,0,1,1.178-2.6C1246.731,585.6,1248.826,590.975,1248.826,590.975Z" transform="translate(-1222.324 -557.337)"/><path class="l" d="M1111.286,523.894c-1.35-.425-5.186.16-9.039.942l-.817-1.327-8.338-.592s-2.611,5.776-1.174,9.993c.279.818,1.614.847,1.614.847s4.885.054,6.5.042c4.144-.029,8.75-2.911,9.348-3.035.979-.2,1.384,1.754,2.378,3.8s9.272,9.045,9.272,9.045a7.242,7.242,0,0,0,1.786-.2,1.761,1.761,0,0,0,.764-.49S1114.329,524.852,1111.286,523.894Z" transform="translate(-1086.936 -499.026)"/><path class="m" d="M1129.1,352.753a3.923,3.923,0,0,1-2.444.092,4.358,4.358,0,0,1-1.629-1.923c.421-.022.881-.394,1.221-2.815l.18.063,3.026,1.065s-.212.97-.347,1.893C1128.993,351.9,1128.934,352.645,1129.1,352.753Z" transform="translate(-1117.234 -341.118)"/><path class="ad" d="M1142.542,349.825s-.129.68-.308,1.651a3.525,3.525,0,0,1-2.718-2.716Z" transform="translate(-1130.323 -341.708)"/><path class="m" d="M1140.124,301.918s-4.133-.525-3.766-3.094.08-4.367,2.734-4.14,3.026,1.28,3.112,2.167S1141.209,301.989,1140.124,301.918Z" transform="translate(-1127.448 -292.844)"/><path class="v" d="M1130.871,293.3s-2.627,2.3-4.424,2.493a3.447,3.447,0,0,1-2.482-.376,7.021,7.021,0,0,0,1.682-2.312,1.263,1.263,0,0,1,1.037-.753C1127.967,292.23,1130.4,292.162,1130.871,293.3Z" transform="translate(-1116.275 -290.695)"/><path class="v" d="M1178.278,296.072a6.507,6.507,0,0,1,1.173,1.481,5,5,0,0,1,.154,2.656s1.359-2.689.57-3.985A1.1,1.1,0,0,0,1178.278,296.072Z" transform="translate(-1165.336 -293.662)"/><path class="j" d="M1100.006,384.179c-.066,8.36.012,6.612-.9,7.412a3.513,3.513,0,0,1-1.652.37c-2.562.188-7.07-.2-7.245-.675-.6-1.635-.189-2.147-.7-4.653-.053-.267-.119-.555-.2-.869-.424-1.721-.828-2.3.612-5.083a21.611,21.611,0,0,1,2.79-4.49c3.505,2.048,3.775.3,3.775.3S1100.038,380.1,1100.006,384.179Z" transform="translate(-1084.619 -366.486)"/><path class="l" d="M1246.81,627.233l-2.632,7.241a4.345,4.345,0,0,1-1.427-.12,6.179,6.179,0,0,1-1.384-.661,78.481,78.481,0,0,1,2.049-12.22Z" transform="translate(-1222.324 -588.05)"/><path class="j" d="M1167.222,379.348s3.6.584,4.029,2.127,2.979,10.618,2.979,10.618-1.824.341-2.673-.5-2.991-7.806-2.991-7.806Z" transform="translate(-1155.349 -369.338)"/><path class="n" d="M1102.977,456.924c-2.562.188-7.071-.2-7.245-.675-.6-1.635-.189-2.147-.7-4.653l1.212-3.49s-.177,3.878.973,4.889,4.695,1.935,5.256,2.783A3.12,3.12,0,0,1,1102.977,456.924Z" transform="translate(-1090.139 -431.449)"/><path class="m" d="M1146.708,518.818s2.525-.581,2.934-.359a5.937,5.937,0,0,1,1.539,1.315c.127.284-.91-.209-1.247-.3a2.99,2.99,0,0,0-1.072.243,3.569,3.569,0,0,1-1.923.207Z" transform="translate(-1136.818 -494.953)"/><path class="j" d="M1052.527,376.192s-3.394.233-4.558,1.881c-1.638,2.319-4.851,12.177-2.961,13.475,2.129,1.462,9.644.318,9.644.318a3.055,3.055,0,0,0-.11-1.736c-.352-.564-6.019-1.438-6.282-1.7s3.23-5.117,3.224-5.9S1052.527,376.192,1052.527,376.192Z" transform="translate(-1044.431 -366.487)"/><path class="m" d="M1178.371,526.2a4.9,4.9,0,0,0,.709.76.519.519,0,0,0,.286.059l-.362-.64Z" transform="translate(-1165.42 -501.99)"/><path class="m" d="M1177.054,518.93l1.546.737a.274.274,0,0,1-.254.1,3.673,3.673,0,0,1-.669-.179Z" transform="translate(-1164.23 -495.423)"/></g><g transform="translate(9.566 16.846)"><path class="v" d="M1182.294,459.271l12.185-.086,3.6-9.141-12.166.086Z" transform="translate(-1178.529 -450.044)"/><path class="v" d="M1159.447,540.895l-16.09.114,0,.355,15.948-.113Z" transform="translate(-1143.357 -532.11)"/><path class="a" d="M1265.118,492.277a.422.422,0,0,0-.418-.577.832.832,0,0,0-.743.585.422.422,0,0,0,.418.577A.831.831,0,0,0,1265.118,492.277Z" transform="translate(-1252.276 -487.672)"/></g></g><path class="ae" d="M537.2,1761.981h8.892c.477-.4-.33-1.322-1.172-1.384a5.192,5.192,0,0,0-1.357.161c-.122-1.625-.821-8.931-3.455-8.638-2.961.329,0,3.218.837,4.928a40.669,40.669,0,0,1,1.573,3.941c-.241.052-.489.1-.744.15-.393-1.205-1.853-5.259-3.71-5.023-2.18.277-1.3,1.9.241,2.867,1.134.71,2.526,1.718,3.188,2.205a9.466,9.466,0,0,1-1.739.139A3.748,3.748,0,0,0,537.2,1761.981Z" transform="translate(-236.433 -1457.518)"/><path class="ae" d="M2438.243,1751.962h-9.838c-.527-.447.365-1.463,1.3-1.531a5.731,5.731,0,0,1,1.5.177c.136-1.8.909-9.882,3.822-9.557,3.277.364,0,3.56-.926,5.452a45.048,45.048,0,0,0-1.74,4.36c.266.058.541.114.823.166.434-1.333,2.05-5.818,4.1-5.557,2.412.306,1.443,2.1-.267,3.172-1.255.785-2.795,1.9-3.527,2.439a10.439,10.439,0,0,0,1.924.154A4.146,4.146,0,0,1,2438.243,1751.962Z" transform="translate(-1945.031 -1447.519)"/><path class="v" d="M.367,0H221.624a.367.367,0,0,1,.367.367v0a.367.367,0,0,1-.367.367H.367A.367.367,0,0,1,0,.367v0A.367.367,0,0,1,.367,0Z" transform="translate(285.566 304.43)"/></g></svg>