<svg xmlns="http://www.w3.org/2000/svg" width="181.023" height="183.65" viewBox="0 0 181.023 183.65"><defs><style>.a{fill:#efecf5;}.b{fill:#ddd9e7;}.c{fill:#ffb9a9;}.d{fill:#f2819f;}.e{fill:#eeebf4;}.f{fill:#54c6e0;}.g{fill:#f39e4b;}.h{fill:#ffc05c;}.i{fill:none;stroke:#231f20;stroke-miterlimit:10;}.j{fill:#403379;}.k{fill:#f7937c;}.l{fill:#17a4c0;}.m{fill:#302864;}.n{fill:#29215d;}.o{fill:#fff;}.p{fill:#a82f55;}</style></defs><g transform="translate(-131.484 -119.386)"><g transform="translate(29.227 55.709)"><path class="a" d="M283.28,158.477A90.511,90.511,0,1,1,149.95,78.716c.3-.156.6-.318.893-.467,1.72-.907,3.48-1.753,5.267-2.545a89.845,89.845,0,0,1,13.675-4.793q1.767-.467,3.561-.853,1.229-.275,2.477-.508c.887-.17,1.774-.325,2.667-.467,2.126-.331,4.272-.6,6.445-.778.622-.061,1.252-.108,1.882-.149,1.97-.121,3.953-.189,5.95-.189a92.114,92.114,0,0,1,11.082.67A90.6,90.6,0,0,1,274.29,119.1q1.046,2.153,1.97,4.367,1.3,3.087,2.369,6.289c.135.413.278.833.406,1.253q.8,2.508,1.449,5.084c.183.691.352,1.381.508,2.079.224.975.433,1.949.622,2.931.42,2.146.758,4.326,1.023,6.526a.136.136,0,0,0,.007.048A91.8,91.8,0,0,1,283.28,158.477Z" transform="translate(0 -1.661)"/><path class="b" d="M280.971,162.448A84.232,84.232,0,1,1,156.89,88.22c.278-.145.554-.3.832-.435,1.6-.844,3.238-1.631,4.9-2.368a83.545,83.545,0,0,1,12.726-4.461q1.644-.435,3.314-.794,1.143-.255,2.306-.472c.825-.157,1.65-.3,2.482-.435,1.978-.309,3.975-.554,6-.724.58-.057,1.165-.1,1.751-.139,1.833-.113,3.679-.176,5.538-.176a85.62,85.62,0,0,1,10.313.624A84.314,84.314,0,0,1,272.6,125.8q.973,2,1.833,4.063,1.209,2.874,2.2,5.853c.126.384.259.775.378,1.165q.747,2.335,1.348,4.732c.17.642.328,1.285.473,1.934.208.907.4,1.814.58,2.728.39,2,.705,4.026.951,6.073a.115.115,0,0,0,.007.044A85.509,85.509,0,0,1,280.971,162.448Z" transform="translate(-3.97 -5.632)"/><g transform="translate(140.352 63.677)"><path class="c" d="M243.468,139.423c-.983,1.777-5.3,4.511-10.439,6.357a35.542,35.542,0,0,1-6.136,1.626,44.951,44.951,0,0,1-9.822.359c-4.731-.309-8.883-1.235-10.118-2.363-2.079-1.9-8.361-49.55-8.43-50.816s13.621-4.625,18.781-5.469,19.209-2.028,19.549-.806S244.835,136.966,243.468,139.423Z" transform="translate(-177.643 -73.016)"/><path class="c" d="M245.178,185.967a55.918,55.918,0,0,1-6.458,12.915,27.751,27.751,0,0,1-9.923-9.664v-4.782a44.949,44.949,0,0,0,9.822-.359,35.539,35.539,0,0,0,6.136-1.626l.2,1.607.126,1.077Z" transform="translate(-189.371 -109.687)"/><path class="d" d="M253.146,239.353v.006a98.45,98.45,0,0,1-2.136,13.319c-2.281-3.616-4.347-7.283-6.174-10.767V241.9l-.983-19.14a23.061,23.061,0,0,0,3.843-.372Z" transform="translate(-195.203 -125.159)"/><path class="e" d="M257.312,207.51c-.189-.132-.372-.271-.561-.4-.611-.429-1.222-.838-1.821-1.235-1.682-1.1-3.308-2.06-4.738-2.86-3.03-1.688-5.2-2.64-5.2-2.64a55.919,55.919,0,0,0,6.458-12.915l-.1-.832.731-.328,4.2,2.785c.056.29.107.573.157.863A81.032,81.032,0,0,1,257.312,207.51Z" transform="translate(-195.645 -111.177)"/><path class="f" d="M256.919,216.44c-.284,8.064-.794,14.522-1.342,19.5l-5.449-16.96a1.824,1.824,0,0,0,.4-.113c.151-.126,1.247-3.862,1.657-5.286C253.611,214.38,255.236,215.338,256.919,216.44Z" transform="translate(-197.633 -121.745)"/><path class="d" d="M247.572,211.911c-.409,1.424-1.505,5.16-1.657,5.286a1.821,1.821,0,0,1-.4.113,23.061,23.061,0,0,1-3.843.372,1.269,1.269,0,0,1-.429-.063c-.472-.208-2.28-3.169-3.017-4.4,1.329-1.323,2.746-2.684,4.145-3.944C242.374,209.271,244.542,210.222,247.572,211.911Z" transform="translate(-193.024 -120.076)"/><path class="f" d="M239.913,239.315a195.294,195.294,0,0,1-8.77-19.121c1.172-1.247,2.684-2.835,4.341-4.486.737,1.235,2.545,4.2,3.017,4.4a1.27,1.27,0,0,0,.429.063Z" transform="translate(-190.279 -122.57)"/><path class="e" d="M235.7,202.133c-1.4,1.26-2.816,2.621-4.145,3.944-1.657,1.65-3.169,3.238-4.341,4.486-.655.693-1.2,1.285-1.594,1.726-.491.529-.762.837-.762.837A46.746,46.746,0,0,1,221,196.11c-.012-.592,0-.907,0-.907l3.938-4.359h.837v1.625A27.751,27.751,0,0,0,235.7,202.133Z" transform="translate(-186.348 -112.938)"/><path class="g" d="M263.233,279.193a17.783,17.783,0,0,1-.9,4.75,84.54,84.54,0,0,1-62.056,1.934,40.158,40.158,0,0,1,2.319-5.5c.63-.945-.838-6.093-.838-8.821,0-.239-.025-.787-.063-1.587-.145-2.753-.51-8.493-.939-14.957-.113-1.695-.227-3.44-.347-5.2-.1-1.392-.195-2.784-.29-4.164-.693-9.923-1.367-19.083-1.512-19.928-.29-1.688-2.923-17.237-3.15-20.084a1.462,1.462,0,0,1,0-.441c.259-.372,4.775-1.632,5.828-2,.9-.315,7.913-5.217,9.816-6.546a46.741,46.741,0,0,0,3.855,17.016s.271-.309.763-.837a182.057,182.057,0,0,0,9.67,20.929c.271.491.542.983.819,1.475.126.214.246.428.372.643,1.272,2.2,2.621,4.366,4.019,6.382.737,1.052,1.481,2.066,2.237,3.024,0,0,.384-.932.939-2.86.422-1.449.932-3.471,1.437-6.092.044-.2.081-.409.126-.618.082-.453.17-.932.252-1.424a151.036,151.036,0,0,0,1.965-24.879c.189.132.372.271.561.4a81.032,81.032,0,0,0-.869-17.565c1.512.592,4.952,1.909,6.25,2.236,1.676.416,7.189,1.1,7.5,1.31a1.776,1.776,0,0,1,.176.5c.7,2.539,2.98,14.081,3.446,17.93.39,3.188,1.669,13.734,2.394,22.24.126,1.468.233,2.873.321,4.171.088,1.342.145,2.57.176,3.622.208,7.976.416,24.148.523,24.986a28.03,28.03,0,0,0,1.814,4.593C260.083,274.235,263.233,277.07,263.233,279.193Z" transform="translate(-176.449 -113.483)"/><path class="h" d="M250.377,219.484c-.126,24.866-4.719,35.872-4.719,35.872-8.234-10.439-15.076-27.179-17.117-32.452.4-.441.939-1.034,1.594-1.726A195.3,195.3,0,0,0,238.9,240.3v.006c1.827,3.484,3.893,7.151,6.174,10.767a98.458,98.458,0,0,0,2.136-13.319v-.006c.548-4.977,1.059-11.435,1.342-19.5C249.155,218.646,249.766,219.055,250.377,219.484Z" transform="translate(-189.271 -123.554)"/><g transform="translate(29.064 119.366)"><rect class="e" width="44.707" height="34.908" rx="1.831" transform="translate(0 44.647) rotate(-87.026)"/><rect class="f" width="41.834" height="32.665" rx="1.713" transform="translate(1.195 43.271) rotate(-87.026)"/><rect class="e" width="40.595" height="31.696" rx="1.662" transform="translate(1.71 42.677) rotate(-87.026)"/><rect class="f" width="22.435" height="5.383" transform="matrix(0.999, 0.052, -0.052, 0.999, 8.121, 8.535)"/></g><path class="h" d="M197.9,254.117c-1.09-5.343-4.209-20.582-5.034-23.6-.731-2.69-2.2-9.469-2.841-13a9.391,9.391,0,0,1-.29-2.211c.221-.176,2.69-.945,3.5-1.2.227,2.848,2.86,18.4,3.15,20.084C196.536,235.034,197.211,244.194,197.9,254.117Z" transform="translate(-174.233 -121.949)"/><path class="h" d="M292.258,219.065v19.959c-.724-8.505-2-19.052-2.394-22.24-.466-3.849-2.746-15.391-3.446-17.93.983.088,3.559.34,4.026.762a5.128,5.128,0,0,1,.347,1.613C291.414,205.715,292.258,217.981,292.258,219.065Z" transform="translate(-211.691 -116.041)"/><path class="e" d="M186.1,291.153s-1.462-.119-1.9-.119-4.378,1.31-5.324,2.469-4.832,9.708-4.832,10.867.214,3.113.214,3.113l4.038,1.663s-6.653,1.455-7.245.711-6.735-8.744-6.615-10.515c.044-.6,1.1-1.966,2.52-3.522,2.81-3.08,7.037-6.911,7.56-6.993.787-.119,2.325.863,2.715.788s4.883-1.065,5.828-1.14c.818-.07,2.489,1.984,2.93,2.539l.006.006C186.064,291.1,186.1,291.153,186.1,291.153Z" transform="translate(-164.44 -150.757)"/><path class="f" d="M189.894,260.44c-.454,1.216-1.355,3.6-1.475,3.749s-.661.17-.932.176c-.441-.554-2.111-2.609-2.93-2.539-.945.075-5.431,1.065-5.828,1.14s-1.928-.907-2.715-.788c-.523.082-4.75,3.913-7.56,6.993a4.072,4.072,0,0,1-.157-.888c.038-.239,3.27-7.97,3.938-10.149s4.882-21.074,5.115-22.5.674-11.378,1.027-12.2a28.176,28.176,0,0,1,3.352-3.755c.637,3.528,2.111,10.307,2.841,13,.825,3.018,3.944,18.258,5.034,23.6C189.7,257.655,189.793,259.047,189.894,260.44Z" transform="translate(-165.933 -124.107)"/><path class="i" d="M199.63,292.627l-.007-.006" transform="translate(-178.069 -152.364)"/><path class="c" d="M232.322,289.7c-.044.006-.081.019-.119.025l.019.29c.655-.107,3.377-.548,4.643-.662l.012-.006c.341-.031.209.119.266.15.315.157.422,2.987.183,3.282a10.383,10.383,0,0,1-2.162.732.048.048,0,0,1-.019.006c-1.033.3-2.085.6-2.533.718l.007.044c.535-.056,1.821-.189,2.81-.252a5.062,5.062,0,0,1,1.266-.013c.3.158-.157,3-.315,3.175a1.871,1.871,0,0,1-.75.278s.378.132.378.372-.34,2.161-.655,2.28c-.208.076-2.085.227-3.371.322-.7.05-1.222.082-1.222.082s-13.879,1.1-14.541,1.027a14.919,14.919,0,0,1-2.621-1.027l-29.22,4.883-4.038-1.663s-.214-1.96-.214-3.113,3.887-9.714,4.832-10.867,4.889-2.47,5.324-2.47,1.9.119,1.9.119-.037-.05-.1-.132a17.43,17.43,0,0,0,3.641,1.506c.945.082,17.25.712,17.25.712l.126-.025a60.022,60.022,0,0,1,3.4-5.053c.523-.447,7.22-2.589,8.3-2.9s6.13-2.7,6.206-2.7a2.585,2.585,0,0,1,0,2.728c-.87,1.134-5.645,3.83-5.96,4.146-.164.164-.831.926-1.436,1.619l8.5-1.752s5.146-1.035,5.342-1.016c.51.038,1,2.974.567,3.528-.322.41-3.4,1.129-5.278,1.532-.007,0-.007,0-.013.006-.1.025-.2.044-.29.063a.246.246,0,0,1-.057.013.021.021,0,0,0-.012.006Z" transform="translate(-170.516 -147.017)"/><path class="e" d="M339.562,268.926v5.039s-6.067,5.671-6.7,6.7a13.538,13.538,0,0,1-3.15,2.993c-.473.24-6.93.58-8.587-.378-1.38-.8-3.591-6.168-4.278-9.419a8.469,8.469,0,0,1-.208-1.619c0-2.6,2.243-9.217,3.225-10.4.637-.763,3.226-2.955,4.99-4.429.977-.812,1.707-1.4,1.707-1.4s-3.232,6.539-3.232,7.245,1.657,10.635,4.65,12.134,10.4-3.7,10.785-4.177A8.642,8.642,0,0,0,339.562,268.926Z" transform="translate(-223.399 -138.182)"/><path class="f" d="M315.914,236.777c-1.764,1.474-4.353,3.667-4.99,4.429-.983,1.178-3.225,7.793-3.225,10.4a8.471,8.471,0,0,0,.208,1.619L295.344,244.7c-.088-1.3-.2-2.7-.322-4.171V220.566c0-1.084-.844-13.35-1.468-17.835a7.113,7.113,0,0,1,1.859.958c.523.529,8.713,18.378,9.607,20.16s8.77,11.523,8.77,11.523a4.041,4.041,0,0,1,1.733.6A2.37,2.37,0,0,1,315.914,236.777Z" transform="translate(-214.456 -117.543)"/><path class="c" d="M361.313,180.734l-2.218,3.421,1.891,15.064s-6.722,5.985-7.144,6.357-1.941,1.676-1.941,1.676a6.542,6.542,0,0,1,0,1.475c-.107.365-.737,1.676-.737,1.676l-7.371,25.541A8.642,8.642,0,0,1,343,238.23c-.39.472-7.793,5.67-10.785,4.177s-4.65-11.422-4.65-12.134,3.232-7.245,3.232-7.245l4.095-7.4,7.718-18.435s-1.462-11.258-1.222-11.724,7.472-7.617,7.787-7.932,3.333-6.174,3.49-6.589,2.438.705,2.438,3.068a17.706,17.706,0,0,1-1.519,6.249c-.315.472-3.364,3.446-3.364,3.446l.472,1.8.044-.057c.46-.554,4.127-5,4.366-5.3.264-.315,6.457-9.135,6.457-9.135l3.73,3.572Z" transform="translate(-227.629 -105.198)"/><path class="c" d="M198.266,129.794s-4.673-5.618-7.875-4.515c-1.6.552-1.26,11.6-.315,12.967s8.295,5.355,9.87,2.94S198.266,129.794,198.266,129.794Z" transform="translate(-174.061 -87.484)"/><path class="c" d="M263.851,119.412s3.028-6.649,6.407-6.43c1.693.11,4.272,10.861,3.721,12.427s-6.592,7.351-8.747,5.436S263.851,119.412,263.851,119.412Z" transform="translate(-202.897 -82.774)"/><path class="j" d="M236.811,95.749l-.435,2.211h-1.808s-4.019-4.851-4.14-5.991-1.052-8.612-1.052-8.612a24.051,24.051,0,0,1-11.391,6.93l-.63-.259L215.743,91.6l-1.959-.372-.316.372A44.476,44.476,0,0,1,196.2,88.661s1.071,6.143,1.31,7.012S195.9,105.3,195.9,105.3l-3.95-1.569S187,92.523,187,91.377s3.112-2.873,3.112-2.873a6.9,6.9,0,0,1-3.7-1.965,7.383,7.383,0,0,1-1.519-3.875,13.456,13.456,0,0,1-.138-1.6c1.456,2.993,4.725-.044,5.67-1.065S201.606,64.721,205,63.858s21.886,1.651,23,2.205a61.3,61.3,0,0,1,5.135,3.855c.573-1.26,0-4.486,0-4.486a9.2,9.2,0,0,1,2.111,6.218,24.616,24.616,0,0,1-2.111,7.56s4.706,1.493,4.782,2.438S236.811,95.749,236.811,95.749Z" transform="translate(-172.309 -63.677)"/><path class="k" d="M244.952,184.058c-2.747,2-9.362,6.061-16.154,4.725v-4.347a44.949,44.949,0,0,0,9.822-.359,35.539,35.539,0,0,0,6.136-1.626Z" transform="translate(-189.371 -109.687)"/><path class="k" d="M379.912,174.7l-3.975,6.136-10.622,4.782.044-.057c.46-.554,4.127-5,4.366-5.3.264-.315,6.457-9.135,6.457-9.135Z" transform="translate(-242.253 -105.301)"/><path class="l" d="M376.609,90.457l-.681-.049-.681-.049-6.131,75.987,1.361.1,1.362.1Z" transform="translate(-243.726 -74.013)"/><path class="c" d="M378.98,194.967c-.278.485-6.861,3.66-7.1,3.824s-4.788,1.291-5.1,1.336-1.424-2.148-.869-3.4,4.725-3.169,5.115-3.371,5.928-4.5,7.208-4.253C379.453,189.348,379.257,194.489,378.98,194.967Z" transform="translate(-242.424 -112.261)"/><path class="c" d="M378.825,204.939c-.157.6-6.5,3.131-7.087,3.289a24.886,24.886,0,0,1-4.032.882c-.567-.126-1.512-2.949-.025-3.648,1.109-.523,3.547-1.65,3.7-1.688s5.474-3.213,6.811-3.131C378.712,200.674,378.983,204.334,378.825,204.939Z" transform="translate(-242.861 -116.733)"/><path class="c" d="M379,212.891c-.132.321-5.512,2.217-5.96,2.249s-3.333.346-3.755.428-1.6-1.953-.365-2.867,3.584-1.38,4.284-1.657,4.927-2.381,5.639-2.3C379.337,208.8,379.13,212.57,379,212.891Z" transform="translate(-243.436 -119.872)"/><path class="k" d="M378.98,197.663c-.278.485-6.861,3.66-7.1,3.824s-4.788,1.291-5.1,1.336-1.424-2.148-.869-3.4,4.725-3.169,5.115-3.371a22.156,22.156,0,0,0,0,2.81c.12.806.529,1.764.712,1.764S377.638,198.741,378.98,197.663Z" transform="translate(-242.424 -114.957)"/><path class="k" d="M378.825,206.92c-.157.6-6.5,3.131-7.087,3.289a24.884,24.884,0,0,1-4.032.882c-.567-.126-1.512-2.949-.025-3.648,1.109-.523,3.547-1.65,3.7-1.688a11.425,11.425,0,0,0-.107,2.287c.107.863.422,1.361.58,1.361A24.1,24.1,0,0,0,378.825,206.92Z" transform="translate(-242.861 -118.714)"/><path class="k" d="M379,214.346c-.132.321-5.512,2.217-5.96,2.249s-3.333.346-3.755.428-1.6-1.953-.365-2.867,3.584-1.38,4.284-1.657a14.37,14.37,0,0,0-.221,2.426c.069.548.221,1.209.472,1.209A29.524,29.524,0,0,0,379,214.346Z" transform="translate(-243.436 -121.327)"/><path class="c" d="M383.066,174.22c.473-.63-2.074-4.437-3.491-4.331s-6.064,6.326-6.116,6.8,1.365,2.887,1.995,2.992S382.594,174.85,383.066,174.22Z" transform="translate(-245.408 -104.82)"/><path class="k" d="M193.04,137.176s-.551-4.883.289-5.381,4.331,1.706,5.827,3.937c0,0-2.625.919-2.651,2.284s3.255,2.494,3.255,2.494-4.043-.21-4.331-2.389,3.386-2.416,3.386-2.416-3.99-3.124-4.8-2.572S193.04,137.176,193.04,137.176Z" transform="translate(-175.45 -90.036)"/><path class="k" d="M273.305,123.306s-1.011-4.809-1.966-5.018-3.575,2.981-4.294,5.57c0,0,2.781.047,3.235,1.334s-2.306,3.391-2.306,3.391,3.771-1.47,3.361-3.629-3.974-1.228-3.974-1.228,2.806-4.22,3.752-3.952S273.305,123.306,273.305,123.306Z" transform="translate(-204.186 -84.828)"/><path class="m" d="M233.039,92.627S235.7,83.912,235.86,78.5s-6.458-12.18-6.458-12.18,7.613,6.09,8.295,10.29-2.783,12.338-2.783,12.338a42.065,42.065,0,0,0,5.25-12.233,21.053,21.053,0,0,1-5.512,14.333Z" transform="translate(-189.605 -64.702)"/><path class="m" d="M212.6,95.323s2.9-8.059,1.8-14.6-5.2-7.088-5.985-7.324-6.3-.5-9.4,3.176a8.453,8.453,0,0,1,8.4-1.785c4.83,1.733,6.29,9.714,5.843,14.8a20.842,20.842,0,0,0-2.167-7.432c-1.838-3.278-3.1-4.9-3.728-4.8s-4.358,4.264-9.608,6.936-8.032,2.2-8.032,2.2A16.631,16.631,0,0,0,200.8,83.93c5.408-3.57,6.562-4.042,7.35-3.833S213.846,87.448,212.6,95.323Z" transform="translate(-174.234 -67.398)"/><path class="m" d="M195.985,117.306l-3.95-1.569s-4.952-11.208-4.952-12.354,3.112-2.873,3.112-2.873a6.9,6.9,0,0,1-3.7-1.965,7.383,7.383,0,0,1-1.519-3.875c.391.907,1.777,3.194,6.162,4.5,5.557,1.657,3.887-.189,5.147,1.493,0,0,1.071,6.143,1.31,7.012S195.985,117.306,195.985,117.306Z" transform="translate(-172.396 -75.682)"/><path class="m" d="M265.027,105.572l-.435,2.211h-1.808s-4.019-4.851-4.14-5.991-1.052-8.612-1.052-8.612a37.106,37.106,0,0,0,3.749-4.146s4.706,1.493,4.782,2.438S265.027,105.572,265.027,105.572Z" transform="translate(-200.525 -73.5)"/><path class="n" d="M252.47,127.531c.268,1.482-.27,2.821-1.2,2.989s-1.9-.9-2.173-2.378.27-2.82,1.2-2.989S252.2,126.049,252.47,127.531Z" transform="translate(-197.207 -87.484)"/><path class="n" d="M219.36,133.526c.268,1.482-.27,2.821-1.2,2.989s-1.9-.9-2.173-2.378.27-2.82,1.2-2.989S219.092,132.044,219.36,133.526Z" transform="translate(-184.381 -89.807)"/><g transform="translate(24.895 33.979)"><g transform="translate(20.576)"><path class="m" d="M255.046,129.142l-1-5.645-.529-2.987a1.657,1.657,0,0,0-.687-1.077,1.756,1.756,0,0,0-1.171-.284c-1.922.138-3.333.29-4.278.409s-1.424.2-1.462.208c-.082.012-2.073.372-5.954,1.449a1.792,1.792,0,0,0-1.008.674,1.653,1.653,0,0,0-.271,1.248l.265,1.5.246,1.392,1.015,5.739a4.634,4.634,0,0,0,5.368,3.749L251.3,134.5a4.587,4.587,0,0,0,3.415-2.671A4.521,4.521,0,0,0,255.046,129.142Zm-4.013,3.868-5.714,1.015a3.113,3.113,0,0,1-3.6-2.52l-1.531-8.631a.152.152,0,0,1,.025-.114.334.334,0,0,1,.17-.075c3.8-1.059,5.79-1.418,5.809-1.424s1.827-.315,5.588-.6c.138-.013.183.013.189.019a.138.138,0,0,1,.057.094l1.531,8.631A3.112,3.112,0,0,1,251.032,133.01Z" transform="translate(-238.663 -119.142)"/></g><g transform="translate(0 3.643)"><path class="m" d="M221.459,135.087l-1.021-5.765-.246-1.392-.258-1.475a1.693,1.693,0,0,0-.687-1.077,1.793,1.793,0,0,0-1.172-.284c-1.922.145-3.333.3-4.278.416s-1.424.195-1.461.2c-.082.019-2.073.371-5.954,1.455a1.754,1.754,0,0,0-1.008.668,1.658,1.658,0,0,0-.271,1.248l1.524,8.631A4.644,4.644,0,0,0,212,141.469l5.714-1.014A4.634,4.634,0,0,0,221.459,135.087Zm-4.013,3.868-5.715,1.015a3.109,3.109,0,0,1-3.6-2.52l-1.531-8.631a.153.153,0,0,1,.025-.113.324.324,0,0,1,.17-.076c3.8-1.058,5.79-1.418,5.808-1.418s1.827-.321,5.588-.6c.138-.012.183.007.189.013a.154.154,0,0,1,.056.094l1.531,8.631A3.113,3.113,0,0,1,217.446,138.955Z" transform="translate(-205.076 -125.089)"/></g><g transform="translate(14.274 5.474)"><path class="m" d="M229,130.7l-.619-1.222a13.077,13.077,0,0,1,3.716-1.223,12.926,12.926,0,0,1,3.673-.086l-.162,1.361a11.548,11.548,0,0,0-3.284.077A11.708,11.708,0,0,0,229,130.7Z" transform="translate(-228.376 -128.077)"/></g></g><path class="d" d="M243.067,163.327a7.781,7.781,0,0,1-5.462,4.246,8,8,0,0,1-8.511-4.152,8.714,8.714,0,0,1-.775-1.94c-.05-.2-.1-.39-.138-.592a8.578,8.578,0,0,1-.132-.964l15.183-2.986.315-.063a8.751,8.751,0,0,1,.239.939A8.64,8.64,0,0,1,243.067,163.327Z" transform="translate(-189.08 -99.78)"/><path class="o" d="M243.357,158.352c-.164.3-7.774,2.609-15.038,3.169-.05-.2-.1-.39-.138-.592a8.578,8.578,0,0,1-.132-.964l15.183-2.986A3.339,3.339,0,0,1,243.357,158.352Z" transform="translate(-189.08 -99.82)"/><path class="p" d="M243.728,166.13a7.781,7.781,0,0,1-5.462,4.246,8,8,0,0,1-8.511-4.152C231.91,165.116,238.8,162.136,243.728,166.13Z" transform="translate(-189.741 -102.583)"/><path class="l" d="M265.326,296.572a.481.481,0,0,1,.05-.012.021.021,0,0,0-.012.006Z" transform="translate(-203.521 -153.889)"/><path class="l" d="M265.5,296.5c.069-.019.17-.038.29-.063C265.69,296.461,265.589,296.48,265.5,296.5Z" transform="translate(-203.588 -153.841)"/></g></g></g></svg>