<svg xmlns="http://www.w3.org/2000/svg" width="221.936" height="173.078" viewBox="0 0 221.936 173.078"><defs><style>.a{fill:#ebf3fa;}.b{opacity:0.3;}.c{fill:#aec3ff;}.d{fill:#cde0fb;}.e{fill:#afcdfb;}.f{opacity:0.5;}.g{opacity:0.2;}.h{fill:#ffb27d;}.i{fill:#2b478b;}.j{fill:#233862;}.k{fill:#94b0ed;}.l{fill:#f99746;}.m{fill:#ed7d2b;}.n{fill:#ed975d;}.o{fill:#6376e5;}.p{opacity:0.9;}.q{fill:#fff;}.r{opacity:0.8;}.s{fill:#ed985f;}.t{fill:#0d2644;}.u{fill:#163560;}.v{fill:#db6b3a;}.w{fill:#f78248;}.x{fill:#ffc49c;}.y{fill:#2e3552;}</style></defs><g transform="translate(-441.634 -152.703)"><g transform="translate(445.098 152.703)"><path class="a" d="M488.334,325.452s-30-38.717,1.286-72.424c34.771-37.462,1.919-79.375,36.563-94.3,48.854-21.041,57.61,20.576,112.318,10.26,45.684-8.615,44.714,58.7,31.213,82.718-11.195,19.917,31.949,29.789,9.866,73.653Z" transform="translate(-475.374 -152.703)"/></g><g transform="translate(570.83 191.287)"><g class="b" transform="translate(0.719 4.52)"><path class="c" d="M1707.169,598.717s4.739-23.056,22.892-26.1a4.5,4.5,0,0,1,4.828,3.332c1.294,3.871-5.756,4.1-10.069,5.8S1710.54,590.4,1707.169,598.717Z" transform="translate(-1707.169 -572.59)"/></g><g class="b" transform="translate(0)"><path class="c" d="M1700.348,554.931s-2.445-18.913,10.66-26.03a3.643,3.643,0,0,1,4.577,1.281c2.011,2.625-3.329,4.66-6.186,7.1S1700.738,547.669,1700.348,554.931Z" transform="translate(-1700.167 -528.556)"/></g></g><g transform="translate(496.528 206.611)"><path class="d" d="M977.235,681.963c2.223-6.325,12.966-3.507,12.966-3.507s6.564,11.839,8.7,12.266-3.635-11.218-3.635-11.218c4.2-.1,14.444,5.795,14.444,5.795s-1.642,13.127.529,13.017.861-11.7.861-11.7c3.945,1.507,7.363,6.49,7.363,6.49,4.142,8.011-6.358,12.915-6.358,12.915a21.506,21.506,0,0,0,1.967,10.013h0a15.6,15.6,0,0,1,1.093,2.708l-1.1-.081q-.1-.452-.236-.875a.006.006,0,0,0,0-.005l0-.012c-.063-.176-.153-.425-.267-.73h0s0,0,0,0c-.287-.683-.479-1.185-.6-1.546a.01.01,0,0,1,0,0c-.855-2.139-2.107-4.935-3.033-5.571a2.143,2.143,0,0,0,.273-.487l-.273.487c-2.179,3.9-11.641,3.875-16.806,2.413s-2.77-2.772.231-4.965,8.87-1.124,10.687-1.937-.668-1.942-4.184-1.93-5.521,3.379-11.208,3.5-9.208-10.817-9.208-10.817c3.81,1.5,10.96-.14,11.328-1.464s-10-1.952-11.579-2.474S975.011,688.289,977.235,681.963Z" transform="translate(-976.371 -677.831)"/></g><g transform="translate(480.074 282.107)"><path class="e" d="M816.941,1441.318c-3.895-6.792,6.8-14.137,6.8-14.137s15.474,3.233,17.479,1.675-12.69-5.348-12.69-5.348c3.118-3.784,16.146-8.345,16.146-8.345s10.35,11.47,11.91,9.467-9.683-9.689-9.683-9.689c4.343-2.337,11.356-1.555,11.356-1.555,10.242,2.452,6.564,15.477,6.564,15.477a25.116,25.116,0,0,0,10.352,5.9h0a18.214,18.214,0,0,1,3.228,1.1l-.911.91q-.478-.255-.954-.46l-.006,0-.014-.006c-.2-.078-.493-.189-.849-.321h0c-.823-.267-1.413-.481-1.822-.653l0,0c-2.543-.877-5.971-1.9-7.239-1.571a2.5,2.5,0,0,0-.223-.613l.223.613c1.78,4.9-5.459,13.247-10.693,16.7s-4.565.332-4.213-3.993,5.776-8.7,6.444-10.925-2.226-.891-4.9,2.225-1.227,7.459-5.459,12.579-16.589-.116-16.589-.116c4.231-2.225,8.241-9.795,7.351-11.131s-9.354,7.345-11.024,8.347S820.836,1448.111,816.941,1441.318Z" transform="translate(-816.087 -1413.26)"/></g><g class="f" transform="translate(582.193 212.493)"><path class="e" d="M1858.738,742.236c-.756-7.04-12.48-6.74-12.48-6.74s-9.611,10.582-11.9,10.506,6.45-10.652,6.45-10.652c-4.292-1.114-16.249,2.463-16.249,2.463s-1.487,13.891-3.692,13.253,1.944-12.233,1.944-12.233c-4.419.6-9.139,4.891-9.139,4.891-6.195,7.232,3.412,14.814,3.412,14.814a22.715,22.715,0,0,1-4.443,9.817h0a16.466,16.466,0,0,0-1.778,2.52l1.15.183q.215-.44.454-.843a.008.008,0,0,1,0,0l.007-.012c.107-.165.26-.4.45-.686h0c.461-.632.779-1.1.987-1.445l0,0c1.4-1.992,3.36-4.564,4.465-4.993a2.242,2.242,0,0,1-.163-.566l.163.566c1.3,4.531,11.029,6.8,16.691,6.545s3.518-2.18.964-5.16-8.846-3.3-10.518-4.576,1.156-1.834,4.768-.972,4.858,4.808,10.674,6.309,12.081-8.892,12.081-8.892c-4.279.617-11.233-2.794-11.291-4.245s10.747.411,12.5.257S1859.493,749.275,1858.738,742.236Z" transform="translate(-1810.858 -735.134)"/></g><g class="g" transform="translate(564.991 252.779)"><path class="e" d="M1714.52,1180.019c7.767-6.374-1.711-20.055-1.711-20.055s-20.036-3.172-21.731-5.954,17.66-.633,17.66-.633c-2.016-5.96-15.566-17.367-15.566-17.367s-17.643,9.044-18.6,5.93,16.03-7.21,16.03-7.21c-4.145-4.782-12.914-7.04-12.914-7.04-13.4-1.725-14.926,15.575-14.926,15.575a32.23,32.23,0,0,1-15.108,2.365h0a23.374,23.374,0,0,0-4.374-.15l.678,1.507c.459-.059.911-.1,1.354-.117a.009.009,0,0,1,.008,0h.019c.279,0,.677,0,1.164,0h0c1.108.055,1.914.067,2.483.047H1649c3.45.107,8.03.436,9.4,1.414a3.209,3.209,0,0,1,.546-.634l-.546.634c-4.367,5.066.513,18.379,5.22,24.9s5.324,2.479,6.873-2.87-2.965-13.066-2.752-16.042,3.077-.055,4.863,4.9-1.927,9.507.817,17.577,19.952,7.419,19.952,7.419c-4.062-4.6-5.424-15.5-3.747-16.7s7.874,13.074,9.422,15.036S1706.753,1186.393,1714.52,1180.019Z" transform="translate(-1643.279 -1127.567)"/></g><g transform="translate(470.122 237.796)"><g transform="translate(0)"><g transform="translate(42.615 17.346)"><path class="h" d="M1138.36,1152.859a4.546,4.546,0,0,1-1.678,2.428,2.6,2.6,0,0,0-1.077.783l-.614-.356-.733-.427s.017-.081.053-.214.09-.316.165-.52a.71.71,0,0,0,.087-.653,1.514,1.514,0,0,1,.125-1.266c.235-.342.462-1.184.6-1.159.343.059-.169,1.217-.022,1.432a.253.253,0,0,0,.33.113l.006,0c.962-.423,2.129-2.7,2.646-2.4A4.612,4.612,0,0,1,1138.36,1152.859Z" transform="translate(-1134.257 -1150.592)"/></g><g transform="translate(43.309 16.257)"><path class="i" d="M1141.1,1144.715l1.205.847a.19.19,0,0,0,.264-.046l3.088-4.393a.19.19,0,0,0-.046-.264l-1.205-.847a.19.19,0,0,0-.264.046l-3.088,4.393A.19.19,0,0,0,1141.1,1144.715Z" transform="translate(-1141.025 -1139.978)"/><g transform="translate(1.123 0.784)"><path class="j" d="M1152.021,1152.34l.707.5a.145.145,0,0,0,.2-.035l3.139-4.467a.144.144,0,0,0-.035-.2l-.707-.5a.144.144,0,0,0-.2.035l-3.139,4.467A.145.145,0,0,0,1152.021,1152.34Z" transform="translate(-1151.96 -1147.611)"/></g></g><g transform="translate(22.762 14.69)"><path class="k" d="M944.2,1124.713s6.133,10.7,8.358,12.665l8.158-6.082a2.977,2.977,0,0,1,1.7,1.552s-4.954,10.093-9.832,10.521-11.723-12.1-11.723-12.1Z" transform="translate(-940.866 -1124.713)"/></g><g transform="translate(5.943 39.409)"><g transform="translate(0 40.842)"><path class="j" d="M783.31,1770.551h-3.544a2.148,2.148,0,0,1-.969-1.624c-.173-1.142-1.452-1.764-1.729-2.7s1.142-2.247,1.142-2.247l.237-.306.247-.318,2.352.554s.058.56.094,1.274a16.274,16.274,0,0,1,.01,1.631c-.069,1.245.348,2.586,1.455,2.828C783.421,1769.825,783.385,1770.31,783.31,1770.551Z" transform="translate(-777.032 -1763.359)"/></g><g transform="translate(18.476 43.89)"><path class="j" d="M965.382,1797.2h-8.1c-.39-.476-.246-2.231-.187-2.8.012-.115.02-.183.02-.183s2.767-2.213,3.147-.519c.012.053.026.105.041.156.479,1.585,2.627,2.306,3.867,2.506A1.4,1.4,0,0,1,965.382,1797.2Z" transform="translate(-957.016 -1793.052)"/></g><g transform="translate(13.558 2.075)"><path class="l" d="M920.844,1386.445s-.42,5.242-.914,11.544c-.671,8.56-1.478,19.075-1.558,21.067-.138,3.459-.692,8.992-.692,8.992a4.349,4.349,0,0,1-3.943.76,90.517,90.517,0,0,1-3.012-16.255c-.01-.137-.021-.275-.031-.413-.622-8.507-1.591-26.422-1.591-26.422Z" transform="translate(-909.104 -1385.718)"/></g><g transform="translate(13.558 2.075)"><path class="m" d="M920.844,1386.445s-.42,5.242-.914,11.544l-9.2,14.564c-.01-.137-.021-.275-.031-.413-.622-8.507-1.591-26.422-1.591-26.422Z" transform="translate(-909.104 -1385.718)"/></g><g transform="translate(1.177)"><path class="l" d="M810.7,1368.93s-7.574,18.986-12.553,27.908-6.536,11.412-6.536,11.412-2.853-1.141-3.112-1.919c0,0,1.9-17.225,5.239-21.424,1.884-2.373,4.1-9.493,4.2-11.983s.674-7.418.674-7.418Z" transform="translate(-788.499 -1365.506)"/></g></g><g transform="translate(19.357 7.262)"><path class="h" d="M915.778,1060.251c-2.96.934-8.081-1.586-8.081-1.586a7.708,7.708,0,0,0,2.586-6.306l2.288,1.844,1.554,1.253a18.6,18.6,0,0,1-.176,2.033,2.957,2.957,0,0,0,.672,1.513C915.519,1060.139,915.778,1060.251,915.778,1060.251Z" transform="translate(-907.697 -1052.358)"/></g><g transform="translate(21.933 9.062)"><path class="n" d="M936.644,1071.186a18.587,18.587,0,0,1-.176,2.033c-1.722-.3-3.676-3.079-3.676-3.079a5.484,5.484,0,0,1,2.3-.206Z" transform="translate(-932.792 -1069.889)"/></g><g transform="translate(20.843 2.201)"><path class="h" d="M928.023,1011.146s-4.888.812-5.347-2.24-1.4-5,1.7-5.651,3.885.426,4.286,1.407S929.283,1010.856,928.023,1011.146Z" transform="translate(-922.176 -1003.058)"/></g><g transform="translate(16.659 12.39)"><path class="c" d="M896.322,1132.57a.479.479,0,0,1-.311.119c-1.111-.015-4.352.6-7.095.321a20.437,20.437,0,0,1-6.555-1.892c-.292-.131-.963-.489-.948-.816.01-.357.045-.875.09-1.527a81.706,81.706,0,0,0,.162-10.67c-.048-.838-.073-1.669-.076-2.488-.023-6.1,1.187-11.465,3.617-13.281.208-.149,1.482.474,2.653,1.052a4.845,4.845,0,0,0,3.186.386l1.023.9a10.218,10.218,0,0,1,3.2,5.113,57.544,57.544,0,0,1,.963,9.485c.074,1.719.134,3.453.149,5.1v.059c.014.163.014.341.014.5C896.456,1129.161,896.4,1132.51,896.322,1132.57Z" transform="translate(-881.413 -1102.314)"/></g><g transform="translate(16.749 21.456)"><path class="k" d="M882.29,1208.022a81.718,81.718,0,0,0,.162-10.67c-.048-.838-.073-1.669-.075-2.488,1.012-2.456,1.84-4.237,1.84-4.237h2.552S888.64,1203.407,882.29,1208.022Z" transform="translate(-882.29 -1190.627)"/></g><g transform="translate(0 42.026)"><g transform="translate(1.442 1.414)"><path class="j" d="M735.418,1414.677l10.884,1.551a2.609,2.609,0,0,0,2.942-2.208l.672-4.716a2.609,2.609,0,0,0-2.208-2.943l-10.884-1.551a2.609,2.609,0,0,0-2.942,2.209l-.672,4.717A2.609,2.609,0,0,0,735.418,1414.677Z" transform="translate(-733.184 -1404.784)"/></g><path class="i" d="M735.718,1395.4h0a2.621,2.621,0,0,0-1.8-1.575h0a2.491,2.491,0,0,0-.251-.049l-2.167-.308.145-1.018a.862.862,0,0,0-.732-.974l-.565-.081-2.276-.324-.41-.058a.862.862,0,0,0-.974.731l-.145,1.018-3.741-.533a2.62,2.62,0,0,0-2.954,2.217l-.679,4.772a2.618,2.618,0,0,0,2.216,2.953l10.864,1.549a2.559,2.559,0,0,0,.567.018h0a2.572,2.572,0,0,0,.848-.214,2.616,2.616,0,0,0,1.537-2.021l.68-4.771A2.59,2.59,0,0,0,735.718,1395.4Zm-8.5-3.581a.322.322,0,0,1,.267-.272.317.317,0,0,1,.1,0l.483.068,1.791.256.976.139a.322.322,0,0,1,.273.364l-.145,1.018-3.888-.555Z" transform="translate(-719.136 -1391.006)"/></g><g transform="translate(8.649 38.546)"><path class="h" d="M806.689,1357.848a3.778,3.778,0,0,0-.594,1.065c-.154,2.062.788,2.347-1.651,3.493,0,0-1.041.4-1.059-.411s.723-.822.587-1.954c-.156-1.306-.14-1.318.716-2l.567-.938Z" transform="translate(-803.384 -1357.104)"/></g><g transform="translate(9.236 12.818)"><path class="c" d="M810.371,1133.538a8.361,8.361,0,0,0,1.915.106s2.728-8.427,3.079-9.2,8.1-9.882,8.1-9.882l-3.23-8.083s-8.385,14.006-9.237,15.974c-1.407,3.252-1.9,10.544-1.9,10.544A3.51,3.51,0,0,0,810.371,1133.538Z" transform="translate(-809.108 -1106.482)"/></g><g transform="translate(20.15)"><path class="i" d="M916.61,989.37s.5-.084.421-.775-.08-1.594.482-1.426.59.618.821.356.235-1.369,1.907-1.446,2.351.5,3.128.163.818-1.518.818-1.518a1.337,1.337,0,0,1-.555.554s1.3-1.774-.2-2.99-3.033-.42-3.9-.367c-1.914.116-3.151.23-3.776,1.489S915.381,988.159,916.61,989.37Z" transform="translate(-915.42 -981.615)"/></g><g transform="translate(11.002 40.197)"><path class="h" d="M826.36,1373.185s.55.574.585.813c.112.766.367,1.1.239,1.181-.266.173-.619-.394-.788-.9A2.328,2.328,0,0,1,826.36,1373.185Z" transform="translate(-826.311 -1373.185)"/></g></g></g><g transform="translate(522.755 209.921)"><g transform="translate(0.758 0.758)"><rect class="o" width="65.197" height="113.685" rx="32.598"/></g><g transform="translate(0)"><path class="i" d="M1291.76,825.278H1238.65a6.809,6.809,0,0,1-6.8-6.8v-101.6a6.809,6.809,0,0,1,6.8-6.8h53.111a6.809,6.809,0,0,1,6.8,6.8v101.6A6.809,6.809,0,0,1,1291.76,825.278ZM1238.65,711.593a5.291,5.291,0,0,0-5.285,5.285v101.6a5.291,5.291,0,0,0,5.285,5.285h53.111a5.29,5.29,0,0,0,5.285-5.285v-101.6a5.29,5.29,0,0,0-5.285-5.285Z" transform="translate(-1231.848 -710.076)"/></g></g><g transform="translate(530.963 237.03)"><g transform="translate(3.708 3.564)"><g class="p"><rect class="q" width="42.881" height="42.881"/></g><g transform="translate(4.298 38.381)"><rect class="i" width="1.704" height="1.704"/></g><g transform="translate(6.003 38.381)"><rect class="i" width="1.704" height="1.704"/></g><g transform="translate(7.707 38.381)"><rect class="i" width="1.704" height="1.704"/></g><g transform="translate(9.411 38.381)"><rect class="i" width="1.704" height="1.704"/></g><g transform="translate(11.115 38.381)"><rect class="i" width="1.704" height="1.704"/></g><g transform="translate(14.523 38.381)"><rect class="i" width="1.704" height="1.704"/></g><g transform="translate(16.227 38.381)"><rect class="i" width="1.704" height="1.704"/></g><g transform="translate(21.34 38.381)"><rect class="i" width="1.704" height="1.704"/></g><g transform="translate(24.748 38.381)"><rect class="i" width="1.805" height="1.704"/></g><g transform="translate(26.553 38.381)"><rect class="i" width="1.704" height="1.704"/></g><g transform="translate(29.961 38.381)"><rect class="i" width="1.704" height="1.704"/></g><g transform="translate(31.666 38.381)"><rect class="i" width="1.704" height="1.704"/></g><g transform="translate(33.37 38.381)"><rect class="i" width="1.704" height="1.704"/></g><g transform="translate(35.074 38.381)"><rect class="i" width="1.704" height="1.704"/></g><g transform="translate(36.778 38.381)"><rect class="i" width="1.704" height="1.704"/></g><g transform="translate(38.482 38.381)"><rect class="i" width="1.805" height="1.704"/></g><g transform="translate(2.594 38.381)"><rect class="i" width="1.704" height="1.704"/></g><g transform="translate(11.115 36.677)"><rect class="i" width="1.704" height="1.704"/></g><g transform="translate(16.227 36.677)"><rect class="i" width="1.704" height="1.704"/></g><g transform="translate(19.636 36.677)"><rect class="i" width="1.704" height="1.704"/></g><g transform="translate(21.34 36.677)"><rect class="i" width="1.704" height="1.704"/></g><g transform="translate(23.044 36.677)"><rect class="i" width="1.704" height="1.704"/></g><g transform="translate(24.748 36.677)"><rect class="i" width="1.805" height="1.704"/></g><g transform="translate(29.961 36.677)"><rect class="i" width="1.704" height="1.704"/></g><g transform="translate(38.482 36.677)"><rect class="i" width="1.805" height="1.704"/></g><g transform="translate(2.594 36.677)"><rect class="i" width="1.704" height="1.704"/></g><g transform="translate(6.003 34.973)"><rect class="i" width="1.704" height="1.704"/></g><g transform="translate(7.707 34.973)"><rect class="i" width="1.704" height="1.704"/></g><g transform="translate(11.115 34.973)"><rect class="i" width="1.704" height="1.704"/></g><g transform="translate(14.523 34.973)"><rect class="i" width="1.704" height="1.704"/></g><g transform="translate(16.227 34.973)"><rect class="i" width="1.704" height="1.704"/></g><g transform="translate(17.932 34.973)"><rect class="i" width="1.704" height="1.704"/></g><g transform="translate(21.34 34.973)"><rect class="i" width="1.704" height="1.704"/></g><g transform="translate(23.044 34.973)"><rect class="i" width="1.704" height="1.704"/></g><g transform="translate(24.748 34.973)"><rect class="i" width="1.805" height="1.704"/></g><g transform="translate(26.553 34.973)"><rect class="i" width="1.704" height="1.704"/></g><g transform="translate(29.961 34.973)"><rect class="i" width="1.704" height="1.704"/></g><g transform="translate(33.37 34.973)"><rect class="i" width="1.704" height="1.704"/></g><g transform="translate(35.074 34.973)"><rect class="i" width="1.704" height="1.704"/></g><g transform="translate(38.482 34.973)"><rect class="i" width="1.805" height="1.704"/></g><g transform="translate(2.594 34.973)"><rect class="i" width="1.704" height="1.704"/></g><g transform="translate(6.003 33.269)"><rect class="i" width="1.704" height="1.704"/></g><g transform="translate(7.707 33.269)"><rect class="i" width="1.704" height="1.704"/></g><g transform="translate(11.115 33.269)"><rect class="i" width="1.704" height="1.704"/></g><g transform="translate(14.523 33.269)"><rect class="i" width="1.704" height="1.704"/></g><g transform="translate(17.932 33.269)"><rect class="i" width="1.704" height="1.704"/></g><g transform="translate(21.34 33.269)"><rect class="i" width="1.704" height="1.704"/></g><g transform="translate(29.961 33.269)"><rect class="i" width="1.704" height="1.704"/></g><g transform="translate(33.37 33.269)"><rect class="i" width="1.704" height="1.704"/></g><g transform="translate(35.074 33.269)"><rect class="i" width="1.704" height="1.704"/></g><g transform="translate(38.482 33.269)"><rect class="i" width="1.805" height="1.704"/></g><g transform="translate(2.594 33.269)"><rect class="i" width="1.704" height="1.704"/></g><g transform="translate(11.115 31.565)"><rect class="i" width="1.704" height="1.704"/></g><g transform="translate(14.523 31.565)"><rect class="i" width="1.704" height="1.704"/></g><g transform="translate(16.227 31.565)"><rect class="i" width="1.704" height="1.704"/></g><g transform="translate(17.932 31.565)"><rect class="i" width="1.704" height="1.704"/></g><g transform="translate(21.34 31.565)"><rect class="i" width="1.704" height="1.704"/></g><g transform="translate(23.044 31.565)"><rect class="i" width="1.704" height="1.704"/></g><g transform="translate(26.553 31.565)"><rect class="i" width="1.704" height="1.704"/></g><g transform="translate(29.961 31.565)"><rect class="i" width="1.704" height="1.704"/></g><g transform="translate(38.482 31.565)"><rect class="i" width="1.805" height="1.704"/></g><g transform="translate(2.594 31.565)"><rect class="i" width="1.704" height="1.704"/></g><g transform="translate(4.298 29.861)"><rect class="i" width="1.704" height="1.704"/></g><g transform="translate(6.003 29.861)"><rect class="i" width="1.704" height="1.704"/></g><g transform="translate(7.707 29.861)"><rect class="i" width="1.704" height="1.704"/></g><g transform="translate(9.411 29.861)"><rect class="i" width="1.704" height="1.704"/></g><g transform="translate(11.115 29.861)"><rect class="i" width="1.704" height="1.704"/></g><g transform="translate(14.523 29.861)"><rect class="i" width="1.704" height="1.704"/></g><g transform="translate(17.932 29.861)"><rect class="i" width="1.704" height="1.704"/></g><g transform="translate(19.636 29.861)"><rect class="i" width="1.704" height="1.704"/></g><g transform="translate(23.044 29.861)"><rect class="i" width="1.704" height="1.704"/></g><g transform="translate(29.961 29.861)"><rect class="i" width="1.704" height="1.704"/></g><g transform="translate(31.666 29.861)"><rect class="i" width="1.704" height="1.704"/></g><g transform="translate(33.37 29.861)"><rect class="i" width="1.704" height="1.704"/></g><g transform="translate(35.074 29.861)"><rect class="i" width="1.704" height="1.704"/></g><g transform="translate(36.778 29.861)"><rect class="i" width="1.704" height="1.704"/></g><g transform="translate(38.482 29.861)"><rect class="i" width="1.805" height="1.704"/></g><g transform="translate(2.594 29.861)"><rect class="i" width="1.704" height="1.704"/></g><g transform="translate(19.636 28.157)"><rect class="i" width="1.704" height="1.704"/></g><g transform="translate(21.34 28.157)"><rect class="i" width="1.704" height="1.704"/></g><g transform="translate(23.044 28.157)"><rect class="i" width="1.704" height="1.704"/></g><g transform="translate(26.553 28.157)"><rect class="i" width="1.704" height="1.704"/></g><g transform="translate(4.298 26.452)"><rect class="i" width="1.704" height="1.704"/></g><g transform="translate(6.003 26.452)"><rect class="i" width="1.704" height="1.704"/></g><g transform="translate(7.707 26.452)"><rect class="i" width="1.704" height="1.704"/></g><g transform="translate(9.411 26.452)"><rect class="i" width="1.704" height="1.704"/></g><g transform="translate(14.523 26.452)"><rect class="i" width="1.704" height="1.704"/></g><g transform="translate(16.227 26.452)"><rect class="i" width="1.704" height="1.704"/></g><g transform="translate(17.932 26.452)"><rect class="i" width="1.704" height="1.704"/></g><g transform="translate(21.34 26.452)"><rect class="i" width="1.704" height="1.704"/></g><g transform="translate(23.044 26.452)"><rect class="i" width="1.704" height="1.704"/></g><g transform="translate(24.748 26.452)"><rect class="i" width="1.805" height="1.704"/></g><g transform="translate(26.553 26.452)"><rect class="i" width="1.704" height="1.704"/></g><g transform="translate(28.257 26.452)"><rect class="i" width="1.704" height="1.704"/></g><g transform="translate(29.961 26.452)"><rect class="i" width="1.704" height="1.704"/></g><g transform="translate(31.666 26.452)"><rect class="i" width="1.704" height="1.704"/></g><g transform="translate(33.37 26.452)"><rect class="i" width="1.704" height="1.704"/></g><g transform="translate(36.778 26.452)"><rect class="i" width="1.704" height="1.704"/></g><g transform="translate(38.482 26.452)"><rect class="i" width="1.805" height="1.704"/></g><g transform="translate(6.003 24.748)"><rect class="i" width="1.704" height="1.704"/></g><g transform="translate(7.707 24.748)"><rect class="i" width="1.704" height="1.704"/></g><g transform="translate(12.819 24.748)"><rect class="i" width="1.704" height="1.704"/></g><g transform="translate(14.523 24.748)"><rect class="i" width="1.704" height="1.704"/></g><g transform="translate(17.932 24.748)"><rect class="i" width="1.704" height="1.704"/></g><g transform="translate(23.044 24.748)"><rect class="i" width="1.704" height="1.704"/></g><g transform="translate(26.553 24.748)"><rect class="i" width="1.704" height="1.704"/></g><g transform="translate(28.257 24.748)"><rect class="i" width="1.704" height="1.704"/></g><g transform="translate(31.666 24.748)"><rect class="i" width="1.704" height="1.704"/></g><g transform="translate(33.37 24.748)"><rect class="i" width="1.704" height="1.704"/></g><g transform="translate(4.298 23.044)"><rect class="i" width="1.704" height="1.704"/></g><g transform="translate(7.707 23.044)"><rect class="i" width="1.704" height="1.704"/></g><g transform="translate(9.411 23.044)"><rect class="i" width="1.704" height="1.704"/></g><g transform="translate(11.115 23.044)"><rect class="i" width="1.704" height="1.704"/></g><g transform="translate(12.819 23.044)"><rect class="i" width="1.704" height="1.704"/></g><g transform="translate(16.227 23.044)"><rect class="i" width="1.704" height="1.704"/></g><g transform="translate(17.932 23.044)"><rect class="i" width="1.704" height="1.704"/></g><g transform="translate(19.636 23.044)"><rect class="i" width="1.704" height="1.704"/></g><g transform="translate(21.34 23.044)"><rect class="i" width="1.704" height="1.704"/></g><g transform="translate(23.044 23.044)"><rect class="i" width="1.704" height="1.704"/></g><g transform="translate(24.748 23.044)"><rect class="i" width="1.805" height="1.704"/></g><g transform="translate(33.37 23.044)"><rect class="i" width="1.704" height="1.704"/></g><g transform="translate(35.074 23.044)"><rect class="i" width="1.704" height="1.704"/></g><g transform="translate(38.482 23.044)"><rect class="i" width="1.805" height="1.704"/></g><g transform="translate(2.594 23.044)"><rect class="i" width="1.704" height="1.704"/></g><g transform="translate(4.298 21.34)"><rect class="i" width="1.704" height="1.704"/></g><g transform="translate(6.003 21.34)"><rect class="i" width="1.704" height="1.704"/></g><g transform="translate(7.707 21.34)"><rect class="i" width="1.704" height="1.704"/></g><g transform="translate(14.523 21.34)"><rect class="i" width="1.704" height="1.704"/></g><g transform="translate(16.227 21.34)"><rect class="i" width="1.704" height="1.704"/></g><g transform="translate(23.044 21.34)"><rect class="i" width="1.704" height="1.704"/></g><g transform="translate(28.257 21.34)"><rect class="i" width="1.704" height="1.704"/></g><g transform="translate(29.961 21.34)"><rect class="i" width="1.704" height="1.704"/></g><g transform="translate(33.37 21.34)"><rect class="i" width="1.704" height="1.704"/></g><g transform="translate(35.074 21.34)"><rect class="i" width="1.704" height="1.704"/></g><g transform="translate(36.778 21.34)"><rect class="i" width="1.704" height="1.704"/></g><g transform="translate(38.482 21.34)"><rect class="i" width="1.805" height="1.704"/></g><g transform="translate(2.594 21.34)"><rect class="i" width="1.704" height="1.704"/></g><g transform="translate(7.707 19.636)"><rect class="i" width="1.704" height="1.704"/></g><g transform="translate(9.411 19.636)"><rect class="i" width="1.704" height="1.704"/></g><g transform="translate(11.115 19.636)"><rect class="i" width="1.704" height="1.704"/></g><g transform="translate(12.819 19.636)"><rect class="i" width="1.704" height="1.704"/></g><g transform="translate(14.523 19.636)"><rect class="i" width="1.704" height="1.704"/></g><g transform="translate(16.227 19.636)"><rect class="i" width="1.704" height="1.704"/></g><g transform="translate(21.34 19.636)"><rect class="i" width="1.704" height="1.704"/></g><g transform="translate(26.553 19.636)"><rect class="i" width="1.704" height="1.704"/></g><g transform="translate(28.257 19.636)"><rect class="i" width="1.704" height="1.704"/></g><g transform="translate(35.074 19.636)"><rect class="i" width="1.704" height="1.704"/></g><g transform="translate(2.594 19.636)"><rect class="i" width="1.704" height="1.704"/></g><g transform="translate(4.298 17.932)"><rect class="i" width="1.704" height="1.704"/></g><g transform="translate(6.003 17.932)"><rect class="i" width="1.704" height="1.704"/></g><g transform="translate(7.707 17.932)"><rect class="i" width="1.704" height="1.704"/></g><g transform="translate(9.411 17.932)"><rect class="i" width="1.704" height="1.704"/></g><g transform="translate(12.819 17.932)"><rect class="i" width="1.704" height="1.704"/></g><g transform="translate(16.227 17.932)"><rect class="i" width="1.704" height="1.704"/></g><g transform="translate(17.932 17.932)"><rect class="i" width="1.704" height="1.704"/></g><g transform="translate(21.34 17.932)"><rect class="i" width="1.704" height="1.704"/></g><g transform="translate(23.044 17.932)"><rect class="i" width="1.704" height="1.704"/></g><g transform="translate(24.748 17.932)"><rect class="i" width="1.805" height="1.704"/></g><g transform="translate(26.553 17.932)"><rect class="i" width="1.704" height="1.704"/></g><g transform="translate(29.961 17.932)"><rect class="i" width="1.704" height="1.704"/></g><g transform="translate(31.666 17.932)"><rect class="i" width="1.704" height="1.704"/></g><g transform="translate(33.37 17.932)"><rect class="i" width="1.704" height="1.704"/></g><g transform="translate(35.074 17.932)"><rect class="i" width="1.704" height="1.704"/></g><g transform="translate(38.482 17.932)"><rect class="i" width="1.805" height="1.704"/></g><g transform="translate(4.298 16.227)"><rect class="i" width="1.704" height="1.704"/></g><g transform="translate(7.707 16.227)"><rect class="i" width="1.704" height="1.704"/></g><g transform="translate(11.115 16.227)"><rect class="i" width="1.704" height="1.704"/></g><g transform="translate(12.819 16.227)"><rect class="i" width="1.704" height="1.704"/></g><g transform="translate(17.932 16.227)"><rect class="i" width="1.704" height="1.704"/></g><g transform="translate(19.636 16.227)"><rect class="i" width="1.704" height="1.704"/></g><g transform="translate(21.34 16.227)"><rect class="i" width="1.704" height="1.704"/></g><g transform="translate(24.748 16.227)"><rect class="i" width="1.805" height="1.704"/></g><g transform="translate(26.553 16.227)"><rect class="i" width="1.704" height="1.704"/></g><g transform="translate(28.257 16.227)"><rect class="i" width="1.704" height="1.704"/></g><g transform="translate(31.666 16.227)"><rect class="i" width="1.704" height="1.704"/></g><g transform="translate(35.074 16.227)"><rect class="i" width="1.704" height="1.704"/></g><g transform="translate(36.778 16.227)"><rect class="i" width="1.704" height="1.704"/></g><g transform="translate(38.482 16.227)"><rect class="i" width="1.805" height="1.704"/></g><g transform="translate(2.594 16.227)"><rect class="i" width="1.704" height="1.704"/></g><g transform="translate(4.298 14.523)"><rect class="i" width="1.704" height="1.704"/></g><g transform="translate(11.115 14.523)"><rect class="i" width="1.704" height="1.704"/></g><g transform="translate(12.819 14.523)"><rect class="i" width="1.704" height="1.704"/></g><g transform="translate(16.227 14.523)"><rect class="i" width="1.704" height="1.704"/></g><g transform="translate(17.932 14.523)"><rect class="i" width="1.704" height="1.704"/></g><g transform="translate(21.34 14.523)"><rect class="i" width="1.704" height="1.704"/></g><g transform="translate(23.044 14.523)"><rect class="i" width="1.704" height="1.704"/></g><g transform="translate(26.553 14.523)"><rect class="i" width="1.704" height="1.704"/></g><g transform="translate(28.257 14.523)"><rect class="i" width="1.704" height="1.704"/></g><g transform="translate(29.961 14.523)"><rect class="i" width="1.704" height="1.704"/></g><g transform="translate(31.666 14.523)"><rect class="i" width="1.704" height="1.704"/></g><g transform="translate(33.37 14.523)"><rect class="i" width="1.704" height="1.704"/></g><g transform="translate(35.074 14.523)"><rect class="i" width="1.704" height="1.704"/></g><g transform="translate(2.594 14.523)"><rect class="i" width="1.704" height="1.704"/></g><g transform="translate(16.227 12.819)"><rect class="i" width="1.704" height="1.704"/></g><g transform="translate(19.636 12.819)"><rect class="i" width="1.704" height="1.704"/></g><g transform="translate(21.34 12.819)"><rect class="i" width="1.704" height="1.704"/></g><g transform="translate(24.748 12.819)"><rect class="i" width="1.805" height="1.704"/></g><g transform="translate(26.553 12.819)"><rect class="i" width="1.704" height="1.704"/></g><g transform="translate(28.257 12.819)"><rect class="i" width="1.704" height="1.704"/></g><g transform="translate(4.298 11.115)"><rect class="i" width="1.704" height="1.704"/></g><g transform="translate(6.003 11.115)"><rect class="i" width="1.704" height="1.704"/></g><g transform="translate(7.707 11.115)"><rect class="i" width="1.704" height="1.704"/></g><g transform="translate(9.411 11.115)"><rect class="i" width="1.704" height="1.704"/></g><g transform="translate(11.115 11.115)"><rect class="i" width="1.704" height="1.704"/></g><g transform="translate(14.523 11.115)"><rect class="i" width="1.704" height="1.704"/></g><g transform="translate(16.227 11.115)"><rect class="i" width="1.704" height="1.704"/></g><g transform="translate(21.34 11.115)"><rect class="i" width="1.704" height="1.704"/></g><g transform="translate(28.257 11.115)"><rect class="i" width="1.704" height="1.704"/></g><g transform="translate(29.961 11.115)"><rect class="i" width="1.704" height="1.704"/></g><g transform="translate(33.37 11.115)"><rect class="i" width="1.704" height="1.704"/></g><g transform="translate(38.482 11.115)"><rect class="i" width="1.805" height="1.704"/></g><g transform="translate(2.594 11.115)"><rect class="i" width="1.704" height="1.704"/></g><g transform="translate(11.115 9.411)"><rect class="i" width="1.704" height="1.704"/></g><g transform="translate(24.748 9.411)"><rect class="i" width="1.805" height="1.704"/></g><g transform="translate(26.553 9.411)"><rect class="i" width="1.704" height="1.704"/></g><g transform="translate(29.961 9.411)"><rect class="i" width="1.704" height="1.704"/></g><g transform="translate(31.666 9.411)"><rect class="i" width="1.704" height="1.704"/></g><g transform="translate(35.074 9.411)"><rect class="i" width="1.704" height="1.704"/></g><g transform="translate(36.778 9.411)"><rect class="i" width="1.704" height="1.704"/></g><g transform="translate(38.482 9.411)"><rect class="i" width="1.805" height="1.704"/></g><g transform="translate(2.594 9.411)"><rect class="i" width="1.704" height="1.704"/></g><g transform="translate(6.003 7.707)"><rect class="i" width="1.704" height="1.704"/></g><g transform="translate(7.707 7.707)"><rect class="i" width="1.704" height="1.704"/></g><g transform="translate(11.115 7.707)"><rect class="i" width="1.704" height="1.704"/></g><g transform="translate(14.523 7.707)"><rect class="i" width="1.704" height="1.704"/></g><g transform="translate(16.227 7.707)"><rect class="i" width="1.704" height="1.704"/></g><g transform="translate(19.636 7.707)"><rect class="i" width="1.704" height="1.704"/></g><g transform="translate(21.34 7.707)"><rect class="i" width="1.704" height="1.704"/></g><g transform="translate(24.748 7.707)"><rect class="i" width="1.805" height="1.704"/></g><g transform="translate(31.666 7.707)"><rect class="i" width="1.704" height="1.704"/></g><g transform="translate(33.37 7.707)"><rect class="i" width="1.704" height="1.704"/></g><g transform="translate(35.074 7.707)"><rect class="i" width="1.704" height="1.704"/></g><g transform="translate(2.594 7.707)"><rect class="i" width="1.704" height="1.704"/></g><g transform="translate(6.003 6.003)"><rect class="i" width="1.704" height="1.704"/></g><g transform="translate(7.707 6.003)"><rect class="i" width="1.704" height="1.704"/></g><g transform="translate(11.115 6.003)"><rect class="i" width="1.704" height="1.704"/></g><g transform="translate(14.523 6.003)"><rect class="i" width="1.704" height="1.704"/></g><g transform="translate(17.932 6.003)"><rect class="i" width="1.704" height="1.704"/></g><g transform="translate(19.636 6.003)"><rect class="i" width="1.704" height="1.704"/></g><g transform="translate(21.34 6.003)"><rect class="i" width="1.704" height="1.704"/></g><g transform="translate(23.044 6.003)"><rect class="i" width="1.704" height="1.704"/></g><g transform="translate(24.748 6.003)"><rect class="i" width="1.805" height="1.704"/></g><g transform="translate(28.257 6.003)"><rect class="i" width="1.704" height="1.704"/></g><g transform="translate(29.961 6.003)"><rect class="i" width="1.704" height="1.704"/></g><g transform="translate(31.666 6.003)"><rect class="i" width="1.704" height="1.704"/></g><g transform="translate(35.074 6.003)"><rect class="i" width="1.704" height="1.704"/></g><g transform="translate(36.778 6.003)"><rect class="i" width="1.704" height="1.704"/></g><g transform="translate(38.482 6.003)"><rect class="i" width="1.805" height="1.704"/></g><g transform="translate(2.594 6.003)"><rect class="i" width="1.704" height="1.704"/></g><g transform="translate(11.115 4.298)"><rect class="i" width="1.704" height="1.704"/></g><g transform="translate(17.932 4.298)"><rect class="i" width="1.704" height="1.704"/></g><g transform="translate(19.636 4.298)"><rect class="i" width="1.704" height="1.704"/></g><g transform="translate(23.044 4.298)"><rect class="i" width="1.704" height="1.704"/></g><g transform="translate(24.748 4.298)"><rect class="i" width="1.805" height="1.704"/></g><g transform="translate(26.553 4.298)"><rect class="i" width="1.704" height="1.704"/></g><g transform="translate(28.257 4.298)"><rect class="i" width="1.704" height="1.704"/></g><g transform="translate(36.778 4.298)"><rect class="i" width="1.704" height="1.704"/></g><g transform="translate(2.594 4.298)"><rect class="i" width="1.704" height="1.704"/></g><g transform="translate(4.298 2.594)"><rect class="i" width="1.704" height="1.704"/></g><g transform="translate(6.003 2.594)"><rect class="i" width="1.704" height="1.704"/></g><g transform="translate(7.707 2.594)"><rect class="i" width="1.704" height="1.704"/></g><g transform="translate(9.411 2.594)"><rect class="i" width="1.704" height="1.704"/></g><g transform="translate(11.115 2.594)"><rect class="i" width="1.704" height="1.704"/></g><g transform="translate(14.523 2.594)"><rect class="i" width="1.704" height="1.704"/></g><g transform="translate(16.227 2.594)"><rect class="i" width="1.704" height="1.704"/></g><g transform="translate(24.748 2.594)"><rect class="i" width="1.805" height="1.704"/></g><g transform="translate(28.257 2.594)"><rect class="i" width="1.704" height="1.704"/></g><g transform="translate(31.666 2.594)"><rect class="i" width="1.704" height="1.704"/></g><g transform="translate(33.37 2.594)"><rect class="i" width="1.704" height="1.704"/></g><g transform="translate(38.482 2.594)"><rect class="i" width="1.805" height="1.704"/></g><g transform="translate(2.594 2.594)"><rect class="i" width="1.704" height="1.704"/></g></g><g class="r" transform="translate(0 0)"><g transform="translate(0 0.037)"><path class="q" d="M1312.416,983.993a.606.606,0,0,1-.606-.606v-8.265a.606.606,0,0,1,.606-.606h8.339a.606.606,0,1,1,0,1.212h-7.734v7.659A.606.606,0,0,1,1312.416,983.993Z" transform="translate(-1311.81 -974.516)"/></g><g transform="translate(40.819)"><path class="q" d="M1718.31,983.7a.606.606,0,0,1-.606-.606v-7.733h-7.659a.606.606,0,1,1,0-1.212h8.265a.606.606,0,0,1,.606.606V983.1A.606.606,0,0,1,1718.31,983.7Z" transform="translate(-1709.439 -974.153)"/></g></g><g class="r" transform="translate(0 41.572)"><g transform="translate(40.745 0.037)"><path class="q" d="M1717.661,1388.953h-8.339a.606.606,0,0,1,0-1.213h7.734v-7.659a.606.606,0,1,1,1.212,0v8.265A.606.606,0,0,1,1717.661,1388.953Z" transform="translate(-1708.716 -1379.475)"/></g><path class="q" d="M1320.682,1388.665h-8.265a.606.606,0,0,1-.606-.606v-8.339a.606.606,0,1,1,1.212,0v7.733h7.659a.606.606,0,0,1,0,1.212Z" transform="translate(-1311.81 -1379.113)"/></g></g><g transform="translate(534.647 294.626)"><g transform="translate(0 3.841)"><g transform="translate(0.024 0)"><path class="q" d="M1.728,0H41.153a1.728,1.728,0,0,1,1.728,1.728v0a1.728,1.728,0,0,1-1.728,1.728H1.728A1.728,1.728,0,0,1,0,1.728v0A1.728,1.728,0,0,1,1.728,0Z"/></g><g transform="translate(0.024)"><path class="m" d="M1377.889,1572.621v3.457h-28.812a1.152,1.152,0,0,1-1.149-1.149v-1.158a1.152,1.152,0,0,1,1.149-1.149Z" transform="translate(-1347.928 -1572.621)"/></g><g transform="translate(14.829 0)"><path class="l" d="M1501.3,1572.621l-3.188,3.457h-5.965l3.188-3.457Z" transform="translate(-1492.148 -1572.621)"/></g><g transform="translate(24.457 0)"><path class="l" d="M1591.462,1572.621v3.457h-5.529l3.188-3.457Z" transform="translate(-1585.934 -1572.621)"/></g><g transform="translate(5.225 0)"><path class="l" d="M1407.748,1572.621l-3.188,3.457h-5.965l3.188-3.457Z" transform="translate(-1398.595 -1572.621)"/></g><path class="l" d="M1352.468,1572.621l-3.188,3.457h-.437a1.152,1.152,0,0,1-1.149-1.149v-1.158a1.152,1.152,0,0,1,1.149-1.149Z" transform="translate(-1347.694 -1572.621)"/></g><g transform="translate(17.066 0)"><path class="q" d="M1513.943,1537.131l.227-.269a.986.986,0,0,0,.677.279c.233,0,.38-.107.38-.276,0-.153-.086-.235-.484-.331-.456-.107-.713-.242-.713-.643a.655.655,0,0,1,.732-.621,1.188,1.188,0,0,1,.778.27l-.2.285a.973.973,0,0,0-.582-.221c-.221,0-.349.113-.349.26,0,.165.1.239.508.337.453.11.689.273.689.634,0,.4-.315.64-.766.64A1.32,1.32,0,0,1,1513.943,1537.131Z" transform="translate(-1513.943 -1535.263)"/><path class="q" d="M1533.514,1536.318a1.085,1.085,0,0,1,1.105-1.109,1.118,1.118,0,0,1,.839.334l-.242.279a.853.853,0,0,0-.6-.266.765.765,0,0,0,0,1.525.84.84,0,0,0,.615-.279l.242.245a1.105,1.105,0,0,1-.87.38A1.079,1.079,0,0,1,1533.514,1536.318Z" transform="translate(-1531.505 -1535.209)"/><path class="q" d="M1555.61,1535.417h.349l.943,2.159h-.4l-.217-.517h-1.014l-.221.517h-.386Zm.539,1.307-.37-.857-.368.857Z" transform="translate(-1550.487 -1535.396)"/><path class="q" d="M1580.026,1535.566h.349l1.148,1.482v-1.482h.371v2.144h-.316l-1.182-1.525v1.525h-.37Z" transform="translate(-1573.243 -1535.53)"/></g></g><g transform="translate(580.044 279.388)"><g transform="translate(0.175 0)"><path class="j" d="M1799.676,1386.978a5.624,5.624,0,0,1,5.605,1.6c3.452,3.749.907,6.638,2.635,9.262,1.043,1.585,1.92,4.362-1.314,6-1.5.759-5.949,4.728-6.861,4.822-9.242.949-9.408-8.427-6.292-11.144C1797.827,1393.7,1793.826,1388.684,1799.676,1386.978Z" transform="translate(-1791.63 -1386.771)"/></g><g transform="translate(11.183 14.702)"><path class="s" d="M1900.731,1529.984s8.435,4.086,10.015,4.017,11.455-3.547,11.455-3.547l-.248,1.675s-7.513,4.321-10.14,4.566c-2.586.241-11.428-2.321-12.282-2.862A2.272,2.272,0,0,1,1900.731,1529.984Z" transform="translate(-1898.864 -1529.984)"/></g><g transform="translate(4.165 9.426)"><path class="h" d="M1840.313,1487.724a8.376,8.376,0,0,1-2.926,1.245c-4.51,1.042-6.239-2.77-6.888-5.387a3.875,3.875,0,0,1,1.528-.469c.326-.038.669-.064.953-.078.506-.388,1.261-1.976,1.428-4.441l.213.057,3.555.973s-.163,1.13-.243,2.2a4.237,4.237,0,0,0,.087,1.83c.277.06.444.1.444.1s0,0,0,0A22.9,22.9,0,0,1,1840.313,1487.724Z" transform="translate(-1830.498 -1478.594)"/></g><g transform="translate(8.286 9.484)"><path class="s" d="M1874.2,1480.129s-.163,1.129-.243,2.2c-2.014-.2-2.949-2.119-3.312-3.171Z" transform="translate(-1870.643 -1479.156)"/></g><g transform="translate(7.866 3.31)"><path class="h" d="M1871.123,1427.22s-4.78-.264-4.57-3.238-.266-5.011,2.8-4.969,3.573,1.22,3.744,2.229S1872.372,1427.212,1871.123,1427.22Z" transform="translate(-1866.546 -1419.013)"/></g><g transform="translate(6.372 2.697)"><path class="j" d="M1860.013,1414.221c-.674-.947-1.246-.791-1.577-.545a3.347,3.347,0,0,0-4.341.379,5.7,5.7,0,0,1-2.1,3.223s.847.677,2.875.228a5.072,5.072,0,0,0,3.606-3.17,3.043,3.043,0,0,1,.9,1.076,4.714,4.714,0,0,1,.528,2.347S1861.024,1415.642,1860.013,1414.221Z" transform="translate(-1851.996 -1413.042)"/></g><g transform="translate(0.161 13.366)"><path class="l" d="M1794.131,1531.883c-.432-2.207-1.839-11.023-.432-13.86.505-1.019,2.489-1.111,4.665-1.022.677.437,3.258,2.089,4.317,1.883l.059-.014c.5-.125.688-.475.271-.778a22.088,22.088,0,0,1,2.294.32,15.4,15.4,0,0,1,2.832,1.417,6.182,6.182,0,0,1-2.456,2.1c.257,2.3-.125,3.32-2.515,8.64a10.113,10.113,0,0,0,.272,8.546s-11.886,9.557-11.952,4.691C1791.439,1540.146,1794.682,1534.7,1794.131,1531.883Z" transform="translate(-1791.488 -1516.975)"/></g><g transform="translate(5.412 19.758)"><path class="k" d="M1849.936,1605.38a2.21,2.21,0,0,0,1.589-.968l.184-.277c1.353-2.048,1.88-8.321,4.923-15,.741-1.627,3.4-1.919,4.127-3.759,0,0,1.786-5.961-3.418-6.137s-13.937,16.585-14.075,18.344C1843.133,1599.283,1839.826,1606.521,1849.936,1605.38Z" transform="translate(-1842.645 -1579.236)"/></g><g transform="translate(25.901 41.922)"><path class="t" d="M2049.712,1799.091h-7.407a3.238,3.238,0,0,1,.209-2.038,1.5,1.5,0,0,0-.053-1.751,2.81,2.81,0,0,0,1.247.241,2.561,2.561,0,0,0,1.1-.4,27.031,27.031,0,0,0,2.11,2.276C2047.4,1797.78,2049.563,1797.652,2049.712,1799.091Z" transform="translate(-2042.227 -1795.146)"/></g><g transform="translate(17.278 19.522)"><path class="k" d="M1964.653,1578.9c.446,3.344,2.188,13.9,5.26,19.046.99,1.66-2.5,2.591-2.514,2.586a5.932,5.932,0,0,1-1.606-1.191c-2.494-2.248-7.557-8.613-7.557-13.716,0-2.488-.044-7.24,1.766-8.448C1961.115,1576.434,1964.476,1577.574,1964.653,1578.9Z" transform="translate(-1958.235 -1576.942)"/></g><g transform="translate(3.095 17.074)"><path class="m" d="M1820.068,1554.57s1.5,3.058,8.52,5.218,3-3.268,3-3.268l-9.809-3.428Z" transform="translate(-1820.068 -1553.092)"/></g><g transform="translate(0 19.377)"><path class="c" d="M1799.009,1602.064a5.444,5.444,0,0,0,.613-1.4c.4-1.4.54-2.414,1.3-4.59.8-2.285,1.757-5.1,2.948-8.02.368-.9.758-1.816,1.173-2.729.741-1.627,2.78-1.4,3.506-3.241,0,0,2.831-6.375-2.373-6.551s-15.092,17.055-15.661,18.724C1789.9,1596.084,1787.662,1603.815,1799.009,1602.064Z" transform="translate(-1789.923 -1575.532)"/></g><g transform="translate(20.464 41.922)"><path class="u" d="M1996.749,1799.091h-7.407a3.241,3.241,0,0,1,.209-2.038,1.5,1.5,0,0,0-.053-1.751,2.81,2.81,0,0,0,1.248.241,2.563,2.563,0,0,0,1.1-.4,26.993,26.993,0,0,0,2.11,2.276C1994.441,1797.78,1996.6,1797.652,1996.749,1799.091Z" transform="translate(-1989.264 -1795.146)"/></g><g class="f" transform="translate(10.333 26.965)"><path class="k" d="M1891.248,1662.4c.8-2.285,1.756-5.1,2.947-8.02-.311-2.215-.982-4.154-2.11-4.936C1892.085,1649.44,1889.348,1657.919,1891.248,1662.4Z" transform="translate(-1890.577 -1649.44)"/></g><g transform="translate(11.841 19.655)"><path class="c" d="M1912.8,1579.824c.446,3.343,1.074,14.134,4.147,19.283.99,1.66-2.5,2.591-2.515,2.585a5.936,5.936,0,0,1-1.605-1.191c-2.494-2.248-7.558-8.613-7.558-13.716,0-2.488,2.92-7.041,4.73-8.249A1.82,1.82,0,0,1,1912.8,1579.824Z" transform="translate(-1905.273 -1578.234)"/></g><g transform="translate(24.565 10.055)"><path class="v" d="M2040.053,1485.528l-7.585-.806a.49.49,0,0,0-.51.313l-2.714,7.131a.49.49,0,0,0,.438.663l7.526.3a.489.489,0,0,0,.472-.3l2.772-6.629A.49.49,0,0,0,2040.053,1485.528Z" transform="translate(-2029.212 -1484.719)"/><g transform="translate(0.659 0.069)"><path class="w" d="M2046.472,1486.2l-7.585-.806a.489.489,0,0,0-.509.313l-2.714,7.131a.489.489,0,0,0,.438.663l7.527.3a.49.49,0,0,0,.471-.3l2.772-6.629A.49.49,0,0,0,2046.472,1486.2Z" transform="translate(-2035.632 -1485.391)"/></g><g transform="translate(6.344 3.746)"><path class="a" d="M2091.961,1521.672a.312.312,0,0,0-.293-.461.73.73,0,0,0-.629.461.312.312,0,0,0,.294.461A.728.728,0,0,0,2091.961,1521.672Z" transform="translate(-2091.01 -1521.211)"/></g><g transform="translate(10.805 1.325)"><path class="a" d="M2134.937,1497.852a.153.153,0,0,0-.144-.226.359.359,0,0,0-.309.226.153.153,0,0,0,.144.226A.358.358,0,0,0,2134.937,1497.852Z" transform="translate(-2134.469 -1497.625)"/></g></g><g transform="translate(2.372 14.414)"><path class="h" d="M1814.822,1527.185s10.512,3.871,12.092,3.792c1.021-.051,9.507-3.034,9.507-3.034l.762,1.441s-8.26,5.309-10.53,5.283c-4.483-.052-12.048-2.8-12.9-3.345S1812.341,1527.733,1814.822,1527.185Z" transform="translate(-1813.029 -1527.185)"/></g><g transform="translate(25.765 13.964)"><path class="h" d="M2040.9,1524s.761-1.172,1.52-1.207a11.722,11.722,0,0,1,2.518.6c.448.086,1.724.5,1.344,1.12s-2.138.759-2.9.621a3.519,3.519,0,0,0-1.724.3Z" transform="translate(-2040.903 -1522.796)"/></g><g transform="translate(27.078 13.306)"><path class="h" d="M2053.7,1517.088s1.206-.553,1.551-.657.275,0,.173.328-.724.639-.724.741S2053.7,1517.088,2053.7,1517.088Z" transform="translate(-2053.701 -1516.393)"/></g><g transform="translate(33.963 13.367)"><path class="h" d="M2122.081,1518.169s-.481-1.586-1.01-1.088c-.55.518-.216,1.037-.149,1.7.129,1.264.384,1.209.546,1.152A2.3,2.3,0,0,0,2122.081,1518.169Z" transform="translate(-2120.761 -1516.985)"/></g><g transform="translate(34.273 14.793)"><path class="h" d="M2124.826,1530.873a2.014,2.014,0,0,1-1.039,2.054l.38-.929Z" transform="translate(-2123.787 -1530.873)"/></g><g transform="translate(11.614 9.699)"><path class="q" d="M1904.783,1481.361a4.414,4.414,0,0,0-1.724-.076s.068.5,1.006.545A.749.749,0,0,0,1904.783,1481.361Z" transform="translate(-1903.059 -1481.253)"/></g><g transform="translate(1.994 14.17)"><path class="l" d="M1816.932,1526.961a5.777,5.777,0,0,1-4.17,3.654s-5.332-1.643-2.677-5.276C1810.086,1525.339,1812.711,1523.388,1816.932,1526.961Z" transform="translate(-1809.345 -1524.807)"/></g><g transform="translate(35.183 13.967)"><path class="h" d="M2132.777,1523.845s.221-.743.235-.871,0-.193-.118-.1a.624.624,0,0,0-.237.554C2132.709,1523.65,2132.777,1523.845,2132.777,1523.845Z" transform="translate(-2132.648 -1522.829)"/></g></g><g transform="translate(526.376 167.762)"><g transform="translate(0 0)"><g transform="translate(19.513 52.984)"><path class="x" d="M1457.4,822.361a.761.761,0,0,0-.136.814l0,0a5.062,5.062,0,0,0,1.6,1.754c.1.078.182.148.256.214l.057.052.044.04c.7.648.438.8,1.7,2.11,1.439,1.5,2.43,1.525,2.712,1.388.238-.116-.246-.911-.783-1.8-.026-.043-.051-.087-.078-.13-.071-.119-.142-.239-.214-.358-.629-1.074-.467-1.579-.318-3.177.121-1.3,2.022-7.259,2.022-7.259l-2.759-.475s-.831,4.746-1.746,5.477c-.49.39-1.037.394-1.508.683l-.1.062A3.618,3.618,0,0,0,1457.4,822.361Z" transform="translate(-1457.201 -815.533)"/></g><g transform="translate(19.513 59.144)"><path class="j" d="M1457.4,876.206a.761.761,0,0,0-.136.814l0,0a5.866,5.866,0,0,0,1.6,1.748c.1.079.179.151.254.219l.057.052.044.04c.7.648.438.8,1.7,2.11,1.439,1.5,2.43,1.525,2.712,1.388.238-.116-.246-.911-.783-1.8a6.134,6.134,0,0,1-2.566-1.891c-.867-1.106-1.445-2.527-2.035-3.35l-.1.062A3.623,3.623,0,0,0,1457.4,876.206Z" transform="translate(-1457.201 -875.538)"/></g><g transform="translate(39.744 52.145)"><path class="x" d="M1656.487,813.3c.17.851,1.384.709,2.74.378s1.034.062,2.963-.151,2.515-.933,2.574-1.22c.052-.255-.9-.344-1.924-.462l-.387-.046a8.349,8.349,0,0,1-3.049-1.5,12.257,12.257,0,0,1-2.476-2.942l-2.646.21s1.389,2.109,1.926,3.026a3.2,3.2,0,0,1,.26,1.8A3.389,3.389,0,0,0,1656.487,813.3Z" transform="translate(-1654.281 -807.355)"/></g><g transform="translate(41.91 56.634)"><path class="j" d="M1678.157,852.923c1.356-.331,1.034.063,2.963-.151s2.515-.933,2.573-1.22c.053-.255-.9-.344-1.924-.462l-.009.02a5.442,5.442,0,0,1-2.764.859c-1.309.032-2.7-.343-3.6-.329a3.4,3.4,0,0,0,.021.905C1675.588,853.4,1676.8,853.255,1678.157,852.923Z" transform="translate(-1675.377 -851.09)"/></g><g transform="translate(22.729 36.925)"><path class="m" d="M1497.607,663.336l-2.474,6.657-3.23,8.693a5.233,5.233,0,0,1-1.716-.157,7.445,7.445,0,0,1-1.66-.808s.9-9.333,2.57-14.691a9.545,9.545,0,0,1,1.439-3.114C1495.131,656.852,1497.607,663.336,1497.607,663.336Z" transform="translate(-1488.528 -659.094)"/></g><g transform="translate(5.642 29.265)"><path class="l" d="M1345.734,585.809c-1.544-.5-5.811.087-10.226.93a.973.973,0,0,1-1.013-.451l-.621-1.024-10.03-.783s-2.589,5.883-1.488,10.776a4.3,4.3,0,0,0,3.977,2.891c6.283.391,10.521-1.791,17.043-4.084,1.135-.4,1.651,2.122,2.83,4.6s11.083,10.966,11.083,10.966a8.72,8.72,0,0,0,2.151-.221,2.119,2.119,0,0,0,.924-.583S1349.389,586.988,1345.734,585.809Z" transform="translate(-1322.083 -584.479)"/></g><g transform="translate(0.037)"><path class="j" d="M1284.481,300.241a10.572,10.572,0,0,0-3.558-.809c-3.8-.511-6.088,5.012-6.223,6.686-.248,3.085-1.88,3.555-4.177,5.487-4.605,3.873-3.255,8.375-.736,10.047,1.511,1,4.174,0,4.174,0,.038.026,7.284-4.051,10.855-6.017C1290.171,314.873,1287.755,301.961,1284.481,300.241Z" transform="translate(-1267.479 -299.399)"/></g><g transform="translate(9.494 8.945)"><path class="h" d="M1364.487,392.151a4.721,4.721,0,0,1-2.943.09,5.244,5.244,0,0,1-1.943-2.329c.507-.023,1.064-.467,1.493-3.378l.216.077,3.633,1.307s-.263,1.166-.433,2.275C1364.366,391.127,1364.289,392.019,1364.487,392.151Z" transform="translate(-1359.601 -386.535)"/></g><g transform="translate(11.203 9.023)"><path class="n" d="M1379.888,388.6s-.182.827-.382,1.959a4.219,4.219,0,0,1-3.25-3.266Z" transform="translate(-1376.255 -387.29)"/></g><g transform="translate(10.839 2.744)"><path class="h" d="M1377.248,334.872s-4.97-.667-4.507-3.756.133-5.255,3.327-4.96,3.631,1.566,3.728,2.635S1378.553,334.966,1377.248,334.872Z" transform="translate(-1372.71 -326.13)"/></g><g transform="translate(9.413 2.471)"><path class="j" d="M1367.148,324.711s-3.182,2.742-5.346,2.963-2.984-.474-2.984-.474a8.448,8.448,0,0,0,2.043-2.768,1.522,1.522,0,0,1,1.255-.9C1363.661,323.4,1366.591,323.341,1367.148,324.711Z" transform="translate(-1358.818 -323.469)"/></g><g transform="translate(15.754 2.873)"><path class="j" d="M1420.582,327.976a7.827,7.827,0,0,1,1.4,1.793,6.017,6.017,0,0,1,.163,3.2s1.658-3.225.719-4.791A1.325,1.325,0,0,0,1420.582,327.976Z" transform="translate(-1420.582 -327.381)"/></g><g transform="translate(5.228 12.206)"><path class="c" d="M1331.389,427.974c.381,8.971-.222,8.477-1.142,8.913a5.893,5.893,0,0,1-1.992.432c-3.085.2-8.508-.3-8.714-.874-.711-1.973-.209-2.586-.8-5.606-.062-.321-.138-.669-.228-1.048-.495-2.074-.977-2.78.779-6.112,1.593-3.019,3.247-5.469,3.4-5.38,4.2,2.494,4.541.4,4.541.4S1331.18,423.07,1331.389,427.974Z" transform="translate(-1318.051 -418.296)"/></g><g transform="translate(22.729 40.862)"><path class="l" d="M1495.134,704.405l-3.23,8.693a5.229,5.229,0,0,1-1.716-.157,7.445,7.445,0,0,1-1.66-.808s.9-9.333,2.57-14.691Z" transform="translate(-1488.528 -697.442)"/></g><g transform="translate(14.402 12.605)"><path class="c" d="M1407.419,422.189s4.323.733,4.831,2.594,3.5,12.8,3.5,12.8-2.2.395-3.213-.621-3.533-9.42-3.533-9.42Z" transform="translate(-1407.419 -422.189)"/></g><g transform="translate(5.915 20.558)"><path class="k" d="M1334.256,510.332c-3.085.2-8.508-.3-8.714-.874-.712-1.973-.209-2.586-.8-5.606l1.488-4.19s-.246,4.666,1.13,5.893,5.634,2.369,6.3,3.394A3.754,3.754,0,0,1,1334.256,510.332Z" transform="translate(-1324.739 -499.663)"/></g><g transform="translate(11.897 28.794)"><path class="h" d="M1383.017,580.36s3.043-.678,3.535-.408a7.146,7.146,0,0,1,1.842,1.6c.15.342-1.093-.26-1.5-.368a3.6,3.6,0,0,0-1.293.283,4.3,4.3,0,0,1-2.317.233Z" transform="translate(-1383.017 -579.889)"/></g><g transform="translate(0 12.206)"><path class="c" d="M1276.98,418.3s-4.087.252-5.5,2.225c-1.992,2.778-5.942,14.615-3.678,16.194,2.55,1.778,11.6.465,11.6.465a3.68,3.68,0,0,0-.118-2.09c-.419-.681-7.232-1.782-7.547-2.1s3.931-6.132,3.931-7.075S1276.98,418.3,1276.98,418.3Z" transform="translate(-1267.121 -418.298)"/></g><g transform="translate(15.579 29.705)"><path class="h" d="M1418.884,588.76a5.88,5.88,0,0,0,.847.921.624.624,0,0,0,.344.073l-.43-.773Z" transform="translate(-1418.884 -588.76)"/></g><g transform="translate(15.432 28.858)"><path class="h" d="M1417.449,580.508l1.854.9a.33.33,0,0,1-.307.119,4.422,4.422,0,0,1-.8-.221Z" transform="translate(-1417.449 -580.508)"/></g><g transform="translate(11.897 20.914)"><g transform="translate(4.529)"><path class="i" d="M1427.133,514.1H1441.8l4.412-10.971h-14.644Z" transform="translate(-1427.133 -503.132)"/></g><g transform="translate(0 10.544)"><path class="i" d="M1402.384,605.841h-19.367v.428h19.2Z" transform="translate(-1383.017 -605.841)"/></g><g transform="translate(14.068 4.787)"><path class="a" d="M1521.481,550.464a.508.508,0,0,0-.5-.7,1,1,0,0,0-.9.7.508.508,0,0,0,.5.7A1,1,0,0,0,1521.481,550.464Z" transform="translate(-1520.056 -549.766)"/></g></g></g></g><g transform="translate(441.634 325.123)"><path class="y" d="M.329,0H221.607a.329.329,0,0,1,.329.329v0a.329.329,0,0,1-.329.329H.329A.329.329,0,0,1,0,.329v0A.329.329,0,0,1,.329,0Z" transform="translate(0 0)"/></g></g></svg>