<svg width="16" height="19" viewBox="0 0 16 19" fill="none" xmlns="http://www.w3.org/2000/svg">
<path d="M7.99979 3.57145C6.67371 3.57145 5.40194 4.09823 4.46426 5.03591C3.52657 5.97359 2.99979 7.24536 2.99979 8.57145V12.1429C2.99979 12.7112 2.77403 13.2562 2.37216 13.6581C1.9703 14.06 1.42525 14.2857 0.856934 14.2857H15.1426C14.5743 14.2857 14.0293 14.06 13.6274 13.6581C13.2256 13.2562 12.9998 12.7112 12.9998 12.1429V8.57145C12.9998 7.24536 12.473 5.97359 11.5353 5.03591C10.5976 4.09823 9.32587 3.57145 7.99979 3.57145ZM7.99979 3.57145V1.42859M9.2355 17.1429C9.10993 17.3594 8.92968 17.5391 8.71281 17.664C8.49594 17.7889 8.25006 17.8546 7.99979 17.8546C7.74952 17.8546 7.50364 17.7889 7.28677 17.664C7.0699 17.5391 6.88966 17.3594 6.76408 17.1429" stroke="#141414" stroke-opacity="0.67" stroke-linecap="round" stroke-linejoin="round"/>
</svg>
