<svg width="16" height="19" viewBox="0 0 16 19" fill="none" xmlns="http://www.w3.org/2000/svg">
<path d="M8.00028 3.57145C6.6742 3.57145 5.40243 4.09823 4.46474 5.03591C3.52706 5.97359 3.00028 7.24536 3.00028 8.57145V12.1429C3.00028 12.7112 2.77451 13.2562 2.37265 13.6581C1.97079 14.06 1.42574 14.2857 0.857422 14.2857H15.1431C14.5748 14.2857 14.0298 14.06 13.6279 13.6581C13.226 13.2562 13.0003 12.7112 13.0003 12.1429V8.57145C13.0003 7.24536 12.4735 5.97359 11.5358 5.03591C10.5981 4.09823 9.32636 3.57145 8.00028 3.57145ZM8.00028 3.57145V1.42859M9.23599 17.1429C9.11041 17.3594 8.93017 17.5391 8.7133 17.664C8.49643 17.7889 8.25055 17.8546 8.00028 17.8546C7.75001 17.8546 7.50413 17.7889 7.28726 17.664C7.07039 17.5391 6.89014 17.3594 6.76456 17.1429" stroke="#085E52" stroke-linecap="round" stroke-linejoin="round"/>
</svg>
