<svg width="202" height="193" viewBox="0 0 202 193" fill="none" xmlns="http://www.w3.org/2000/svg">
<path d="M155.729 62.8339C155.502 62.8339 155.275 62.7932 155.068 62.6914C154.304 62.325 153.973 61.4091 154.345 60.656L164.611 39.6503C165.272 38.2865 165.355 36.7396 164.859 35.3148C164.343 33.89 163.31 32.7298 161.926 32.0784L124.269 14.2277C122.885 13.5763 121.315 13.4949 119.869 13.9834C118.424 14.4923 117.246 15.51 116.585 16.8737L99.6467 51.0894C99.2749 51.8425 98.3454 52.1682 97.5811 51.8018C96.8168 51.4354 96.4863 50.5195 96.8581 49.7664L113.796 15.5507C114.809 13.4542 116.606 11.8666 118.837 11.1135C121.068 10.34 123.464 10.4825 125.612 11.4798L163.248 29.3103C167.648 31.3864 169.507 36.6175 167.4 40.9529L157.134 61.9586C156.865 62.5286 156.308 62.8339 155.729 62.8339Z" fill="url(#paint0_linear)"/>
<path d="M116.895 132.466C115.614 132.466 114.313 132.181 113.073 131.611L94.1934 122.655C93.4291 122.289 93.0986 121.373 93.4704 120.62C93.8422 119.867 94.7718 119.541 95.5361 119.907L114.416 128.863C117.287 130.227 120.737 129.026 122.1 126.217L131.065 107.919C131.437 107.166 132.367 106.84 133.131 107.206C133.895 107.573 134.226 108.489 133.854 109.242L124.889 127.52C123.381 130.655 120.2 132.466 116.895 132.466Z" fill="url(#paint1_linear)"/>
<path d="M126.666 120.457C126.439 120.457 126.212 120.416 126.005 120.315L98.4493 107.247C97.685 106.881 97.3545 105.965 97.7263 105.212C98.0981 104.459 99.0276 104.133 99.7919 104.499L127.348 117.567C128.112 117.933 128.443 118.849 128.071 119.602C127.802 120.152 127.244 120.457 126.666 120.457Z" fill="url(#paint2_linear)"/>
<path d="M164.694 43.0901C164.467 43.0901 164.239 43.0494 164.033 42.9476L115.242 19.8251C114.478 19.4587 114.147 18.5428 114.519 17.7897C114.891 17.0365 115.821 16.7109 116.585 17.0772L165.355 40.1998C166.119 40.5662 166.45 41.4821 166.078 42.2352C165.809 42.7644 165.272 43.0901 164.694 43.0901Z" fill="url(#paint3_linear)"/>
<path d="M103.241 117.261C103.014 117.261 102.787 117.221 102.58 117.119L97.375 114.656C96.6107 114.29 96.2802 113.374 96.6521 112.621C97.0239 111.868 97.9534 111.542 98.7177 111.908L103.923 114.371C104.687 114.737 105.018 115.653 104.646 116.407C104.378 116.956 103.82 117.261 103.241 117.261Z" fill="url(#paint4_linear)"/>
<path d="M42.5732 147.773C42.3459 147.773 42.1187 147.732 41.9121 147.63C41.1479 147.264 40.8174 146.348 41.1892 145.595L55.9173 115.409L61.825 82.944C61.9696 77.3059 64.8202 72.0341 69.5092 68.7977L100.804 47.4053C102.808 46.0212 105.224 45.5124 107.641 45.9805C110.037 46.4283 112.103 47.7921 113.446 49.8071C116.048 53.7152 115.098 58.9462 111.318 61.7348L88.7198 78.3643C90.7441 80.6033 94.7722 85.6104 97.4162 92.4495C99.5232 97.9248 100.308 103.441 99.7297 108.835C99.0067 115.572 96.1768 122.126 91.2812 128.294C90.7648 128.965 89.7733 129.067 89.1123 128.558C88.4306 128.049 88.3273 127.072 88.8437 126.421C93.3469 120.722 95.9702 114.738 96.6312 108.591C97.1683 103.685 96.466 98.6576 94.5449 93.6504C91.2192 84.9998 85.3734 79.3413 85.3115 79.2802C84.981 78.9749 84.8157 78.5271 84.8364 78.0793C84.857 77.6315 85.0843 77.2245 85.4561 76.9598L109.438 59.3126C111.917 57.4807 112.537 54.0612 110.843 51.4966C109.955 50.1735 108.612 49.2779 107.042 48.993C105.472 48.6876 103.882 49.0337 102.56 49.9293L71.265 71.3013C67.361 73.9881 64.9855 78.4254 64.9028 83.1272C64.9028 83.2086 64.9028 83.2901 64.8822 83.3715L58.9125 116.162C58.8918 116.305 58.8505 116.427 58.7885 116.549L43.9571 146.918C43.7093 147.467 43.1515 147.773 42.5732 147.773Z" fill="url(#paint5_linear)"/>
<path d="M147.508 79.6669C143.852 79.6669 140.506 77.2855 139.473 73.6624C138.234 69.3065 140.836 64.7675 145.277 63.5666L158.973 59.8214C161.121 59.2311 163.372 59.4957 165.294 60.5745C167.235 61.6533 168.619 63.4038 169.218 65.5206C170.458 69.8765 167.855 74.4155 163.414 75.6164L149.719 79.3616C148.996 79.5651 148.231 79.6669 147.508 79.6669ZM161.204 62.5489C160.728 62.5489 160.253 62.61 159.799 62.7321L146.104 66.4773C143.315 67.2304 141.683 70.08 142.468 72.8278C143.232 75.5757 146.124 77.1837 148.913 76.4102L162.608 72.665C165.397 71.9119 167.029 69.0623 166.244 66.3145C165.872 64.9914 164.984 63.8923 163.786 63.2002C162.98 62.7728 162.092 62.5489 161.204 62.5489Z" fill="url(#paint6_linear)"/>
<path d="M144.472 94.5663C140.816 94.5663 137.47 92.1849 136.437 88.5618C135.838 86.4449 136.106 84.2263 137.201 82.3334C138.296 80.42 140.072 79.0563 142.221 78.466L155.916 74.7208C158.064 74.1306 160.316 74.3952 162.237 75.4739C164.179 76.5527 165.563 78.3032 166.162 80.42C166.761 82.5369 166.492 84.7555 165.397 86.6485C164.303 88.5618 162.526 89.9255 160.378 90.5158L146.683 94.261C145.939 94.4646 145.195 94.5663 144.472 94.5663ZM139.411 87.7476C140.176 90.4955 143.068 92.1035 145.856 91.33L159.552 87.5848C162.34 86.8317 163.972 83.9821 163.187 81.2342C162.423 78.4864 159.531 76.8784 156.742 77.6519L143.047 81.3971C140.279 82.1502 138.647 84.9998 139.411 87.7476Z" fill="url(#paint7_linear)"/>
<path d="M136.601 110.667C132.945 110.667 129.599 108.285 128.566 104.662C127.967 102.545 128.235 100.327 129.33 98.4336C130.425 96.5203 132.201 95.1566 134.35 94.5663L148.045 90.8211C150.193 90.2308 152.445 90.4954 154.366 91.5742C156.308 92.653 157.692 94.4035 158.291 96.5203C159.53 100.876 156.927 105.415 152.486 106.616L138.791 110.361C138.088 110.565 137.345 110.667 136.601 110.667ZM131.561 103.828C132.325 106.575 135.217 108.183 138.006 107.41L151.701 103.665C154.49 102.912 156.122 100.062 155.337 97.3142C154.965 95.9911 154.077 94.892 152.879 94.1999C151.66 93.5282 150.255 93.345 148.913 93.7114L135.197 97.4973C132.429 98.2505 130.797 101.1 131.561 103.828Z" fill="url(#paint8_linear)"/>
<path d="M77.1523 170.508C76.925 170.508 76.6978 170.468 76.4912 170.366C75.727 170 75.3965 169.084 75.7683 168.33L89.6494 139.875C89.918 139.325 90.4757 139 91.0747 139.02C105.679 139.346 112.372 129.454 112.434 129.352C112.909 128.639 113.859 128.436 114.582 128.904C115.305 129.372 115.511 130.309 115.036 131.021C114.954 131.143 113.074 133.972 109.17 136.74C105.72 139.183 99.9984 142.033 92.0249 142.094L78.5569 169.674C78.2884 170.183 77.7306 170.508 77.1523 170.508Z" fill="url(#paint9_linear)"/>
<path d="M104.068 176.594C93.0989 176.594 82.4402 174.478 72.4218 170.305C62.7339 166.275 54.0581 160.494 46.5805 153.146C39.1235 145.798 33.257 137.229 29.167 127.683C24.9325 117.811 22.7842 107.308 22.7842 96.5C22.7842 85.6919 24.9325 75.189 29.167 65.3172C33.257 55.771 39.1235 47.2221 46.5805 39.8539C54.0375 32.5059 62.7339 26.7253 72.4218 22.6951C82.4402 18.5225 93.0783 16.4056 104.068 16.4056C104.914 16.4056 105.617 17.0977 105.617 17.9322C105.617 18.7667 104.914 19.4588 104.068 19.4588C93.5121 19.4588 83.2664 21.4942 73.6405 25.504C64.3244 29.3917 55.9585 34.9485 48.7907 42.0114C41.6023 49.0947 35.963 57.3179 32.0383 66.4977C27.969 76.0032 25.9033 86.0786 25.9033 96.4797C25.9033 106.881 27.969 116.977 32.0383 126.462C35.9837 135.641 41.6229 143.885 48.7907 150.948C55.9792 158.031 64.3244 163.588 73.6405 167.455C83.2871 171.465 93.5121 173.501 104.068 173.501C114.623 173.501 124.869 171.465 134.495 167.455C143.811 163.568 152.177 158.011 159.344 150.948C166.533 143.865 172.172 135.641 176.097 126.462C180.166 116.956 182.232 106.881 182.232 96.4797C182.232 80.0537 177.068 64.4012 167.276 51.1709C166.781 50.4992 166.925 49.5425 167.607 49.0337C168.289 48.5452 169.259 48.6876 169.776 49.3593C179.939 63.1189 185.31 79.4024 185.31 96.4797C185.31 107.288 183.161 117.791 178.927 127.663C174.837 137.209 168.97 145.758 161.513 153.126C154.056 160.474 145.36 166.254 135.672 170.285C125.674 174.478 115.036 176.594 104.068 176.594Z" fill="url(#paint10_linear)"/>
<path d="M115.326 82.5166C114.933 82.5166 114.541 82.3741 114.231 82.0688L105.906 73.8863C105.307 73.2961 105.307 72.3191 105.906 71.7288C106.505 71.1385 107.497 71.1385 108.096 71.7288L115.326 78.8528L141.27 53.2877C141.869 52.6975 142.861 52.6975 143.46 53.2877C144.059 53.878 144.059 54.855 143.46 55.4453L116.42 82.0688C116.111 82.3741 115.718 82.5166 115.326 82.5166Z" fill="url(#paint11_linear)"/>
<g opacity="0.3">
<g opacity="0.3">
<g opacity="0.3">
<path opacity="0.3" d="M4.85428 130.207H1.54924C0.702321 130.207 0 129.515 0 128.68C0 127.846 0.702321 127.154 1.54924 127.154H4.85428C5.7012 127.154 6.40352 127.846 6.40352 128.68C6.40352 129.515 5.7012 130.207 4.85428 130.207Z" fill="url(#paint12_linear)"/>
<path opacity="0.3" d="M17.6619 130.207H13.9438C13.0969 130.207 12.3945 129.515 12.3945 128.68C12.3945 127.846 13.0969 127.154 13.9438 127.154H17.6619C18.5089 127.154 19.2112 127.846 19.2112 128.68C19.2112 129.515 18.5089 130.207 17.6619 130.207Z" fill="url(#paint13_linear)"/>
</g>
<g opacity="0.3">
<path opacity="0.3" d="M9.50236 138.247C8.65545 138.247 7.95312 137.555 7.95312 136.72V133.464C7.95312 132.629 8.65545 131.937 9.50236 131.937C10.3493 131.937 11.0516 132.629 11.0516 133.464V136.72C11.0516 137.555 10.3493 138.247 9.50236 138.247Z" fill="url(#paint14_linear)"/>
<path opacity="0.3" d="M9.50236 126.034C8.65545 126.034 7.95312 125.342 7.95312 124.508V120.844C7.95312 120.009 8.65545 119.317 9.50236 119.317C10.3493 119.317 11.0516 120.009 11.0516 120.844V124.508C11.0516 125.342 10.3493 126.034 9.50236 126.034Z" fill="url(#paint15_linear)"/>
</g>
</g>
<g opacity="0.3">
<g opacity="0.3">
<path opacity="0.3" d="M135.61 147.712H132.305C131.458 147.712 130.756 147.02 130.756 146.185C130.756 145.35 131.458 144.658 132.305 144.658H135.61C136.457 144.658 137.159 145.35 137.159 146.185C137.159 147.02 136.457 147.712 135.61 147.712Z" fill="url(#paint16_linear)"/>
<path opacity="0.3" d="M148.418 147.712H144.7C143.853 147.712 143.15 147.02 143.15 146.185C143.15 145.35 143.853 144.658 144.7 144.658H148.418C149.265 144.658 149.967 145.35 149.967 146.185C149.967 147.02 149.265 147.712 148.418 147.712Z" fill="url(#paint17_linear)"/>
</g>
<g opacity="0.3">
<path opacity="0.3" d="M140.258 155.752C139.411 155.752 138.709 155.059 138.709 154.225V150.968C138.709 150.134 139.411 149.442 140.258 149.442C141.105 149.442 141.807 150.134 141.807 150.968V154.225C141.807 155.059 141.105 155.752 140.258 155.752Z" fill="url(#paint18_linear)"/>
<path opacity="0.3" d="M140.258 143.539C139.411 143.539 138.709 142.847 138.709 142.012V138.349C138.709 137.514 139.411 136.822 140.258 136.822C141.105 136.822 141.807 137.514 141.807 138.349V142.012C141.807 142.847 141.105 143.539 140.258 143.539Z" fill="url(#paint19_linear)"/>
</g>
</g>
<g opacity="0.3">
<g opacity="0.3">
<path opacity="0.3" d="M183.946 27.2138H180.641C179.794 27.2138 179.092 26.5218 179.092 25.6872C179.092 24.8527 179.794 24.1606 180.641 24.1606H183.946C184.793 24.1606 185.495 24.8527 185.495 25.6872C185.495 26.5218 184.793 27.2138 183.946 27.2138Z" fill="url(#paint20_linear)"/>
<path opacity="0.3" d="M196.754 27.2138H193.036C192.189 27.2138 191.486 26.5218 191.486 25.6872C191.486 24.8527 192.189 24.1606 193.036 24.1606H196.754C197.601 24.1606 198.303 24.8527 198.303 25.6872C198.303 26.5218 197.601 27.2138 196.754 27.2138Z" fill="url(#paint21_linear)"/>
</g>
<g opacity="0.3">
<path opacity="0.3" d="M188.594 35.2538C187.747 35.2538 187.045 34.5617 187.045 33.7272V30.4705C187.045 29.636 187.747 28.9439 188.594 28.9439C189.441 28.9439 190.143 29.636 190.143 30.4705V33.7272C190.143 34.5617 189.441 35.2538 188.594 35.2538Z" fill="url(#paint22_linear)"/>
<path opacity="0.3" d="M188.594 23.0412C187.747 23.0412 187.045 22.3491 187.045 21.5146V17.8508C187.045 17.0163 187.747 16.3242 188.594 16.3242C189.441 16.3242 190.143 17.0163 190.143 17.8508V21.5146C190.143 22.3491 189.441 23.0412 188.594 23.0412Z" fill="url(#paint23_linear)"/>
</g>
</g>
<path opacity="0.3" d="M27.8037 165.42C25.0357 165.42 22.7842 163.201 22.7842 160.474C22.7842 157.746 25.0357 155.528 27.8037 155.528C30.5717 155.528 32.8232 157.746 32.8232 160.474C32.8232 163.201 30.5717 165.42 27.8037 165.42ZM27.8037 158.581C26.7502 158.581 25.8827 159.436 25.8827 160.474C25.8827 161.512 26.7502 162.367 27.8037 162.367C28.8572 162.367 29.7248 161.512 29.7248 160.474C29.7248 159.415 28.8572 158.581 27.8037 158.581Z" fill="url(#paint24_linear)"/>
<path opacity="0.3" d="M193.035 69.673C190.267 69.673 188.016 67.4543 188.016 64.7269C188.016 61.9994 190.267 59.7808 193.035 59.7808C195.803 59.7808 198.055 61.9994 198.055 64.7269C198.055 67.4543 195.803 69.673 193.035 69.673ZM193.035 62.8339C191.982 62.8339 191.114 63.6888 191.114 64.7269C191.114 65.7649 191.982 66.6198 193.035 66.6198C194.089 66.6198 194.956 65.7649 194.956 64.7269C194.956 63.6888 194.089 62.8339 193.035 62.8339Z" fill="url(#paint25_linear)"/>
</g>
<g opacity="0.3">
<path opacity="0.3" d="M160.749 21.2092C160.439 21.2092 160.109 21.1075 159.84 20.9243C156.866 18.7871 153.747 16.8127 150.545 15.0419C149.801 14.6348 149.533 13.6985 149.946 12.9657C150.359 12.233 151.309 11.9684 152.053 12.3755C155.358 14.2074 158.58 16.2428 161.638 18.4614C162.319 18.9499 162.484 19.9066 161.968 20.5986C161.699 20.9854 161.224 21.2092 160.749 21.2092Z" fill="url(#paint26_linear)"/>
<path opacity="0.3" d="M75.3958 7.32757C74.7348 7.32757 74.1151 6.90013 73.9085 6.24879C73.6606 5.43461 74.1151 4.57973 74.9207 4.33548C84.34 1.46551 94.1312 0 104.067 0C111.834 0 119.559 0.895592 127.037 2.66642C127.863 2.86996 128.38 3.68414 128.173 4.49831C127.967 5.31249 127.14 5.82135 126.314 5.6178C119.064 3.92839 111.586 3.05315 104.067 3.05315C94.4411 3.05315 84.9597 4.4576 75.8709 7.24615C75.7056 7.30721 75.5404 7.32757 75.3958 7.32757Z" fill="url(#paint27_linear)"/>
<path opacity="0.3" d="M37.9045 28.9642C37.4914 28.9642 37.0783 28.8014 36.7684 28.4757C36.1901 27.8651 36.2107 26.8881 36.8304 26.3181C38.359 24.8933 39.9702 23.4889 41.5814 22.1659C42.2424 21.6366 43.2133 21.7181 43.771 22.3694C44.3081 23.0207 44.2254 23.9774 43.5644 24.527C41.9945 25.8093 40.4453 27.1527 38.958 28.5368C38.6688 28.8217 38.2764 28.9642 37.9045 28.9642Z" fill="url(#paint28_linear)"/>
<path opacity="0.3" d="M8.44829 110.117C7.684 110.117 7.00234 109.547 6.91971 108.774C6.4033 104.723 6.13477 100.612 6.13477 96.5C6.13477 92.4088 6.4033 88.3176 6.91971 84.2874C8.51026 71.7898 12.5176 59.9029 18.8385 48.9726C19.2516 48.2398 20.2018 47.9752 20.9455 48.4027C21.6891 48.8097 21.9577 49.746 21.5239 50.4788C15.4302 61.0834 11.5468 72.5836 9.99753 84.6741C9.50178 88.5618 9.2539 92.5513 9.2539 96.5C9.2539 100.469 9.50178 104.479 10.0182 108.387C10.1215 109.221 9.52243 109.995 8.67552 110.097C8.57223 110.097 8.51026 110.117 8.44829 110.117Z" fill="url(#paint29_linear)"/>
<path opacity="0.3" d="M55.9163 180.34C55.6478 180.34 55.3793 180.279 55.152 180.136C51.3925 177.999 47.7364 175.597 44.3074 172.971C43.6257 172.462 43.5018 171.506 44.0182 170.834C44.5346 170.162 45.5054 170.04 46.1871 170.549C49.5128 173.073 53.0451 175.414 56.7013 177.49C57.4449 177.917 57.6928 178.854 57.259 179.566C56.9698 180.055 56.4534 180.34 55.9163 180.34Z" fill="url(#paint30_linear)"/>
<path opacity="0.3" d="M104.068 193C95.33 193 86.6749 191.86 78.3297 189.641C77.5034 189.418 77.0077 188.583 77.2349 187.769C77.4621 186.955 78.309 186.466 79.1353 186.69C87.212 188.848 95.5985 189.947 104.068 189.947C110.905 189.947 117.742 189.234 124.352 187.81C125.179 187.626 126.005 188.156 126.191 188.97C126.377 189.784 125.84 190.598 125.013 190.781C118.176 192.267 111.132 193 104.068 193Z" fill="url(#paint31_linear)"/>
<path opacity="0.3" d="M151.309 180.828C150.771 180.828 150.234 180.543 149.966 180.055C149.553 179.322 149.801 178.386 150.565 177.979C152.878 176.696 155.171 175.292 157.361 173.826C158.063 173.358 159.034 173.541 159.509 174.233C159.984 174.925 159.798 175.882 159.096 176.35C156.824 177.877 154.469 179.322 152.073 180.645C151.825 180.767 151.577 180.828 151.309 180.828Z" fill="url(#paint32_linear)"/>
<path opacity="0.3" d="M175.58 161.715C175.208 161.715 174.837 161.593 174.547 161.329C173.907 160.759 173.866 159.802 174.444 159.171C185.02 147.65 192.56 133.606 196.257 118.584C196.464 117.77 197.29 117.261 198.137 117.465C198.963 117.669 199.48 118.483 199.273 119.317C195.452 134.827 187.664 149.32 176.758 161.227C176.427 161.532 175.993 161.715 175.58 161.715Z" fill="url(#paint33_linear)"/>
<path opacity="0.3" d="M200.45 98.0266C199.604 98.0266 198.901 97.3346 198.901 96.5C198.901 93.6911 198.777 90.8619 198.529 88.0733C198.323 85.7936 198.034 83.4936 197.662 81.2546C197.517 80.4201 198.096 79.6466 198.943 79.5041C199.789 79.3617 200.574 79.9316 200.719 80.7661C201.111 83.0865 201.421 85.468 201.628 87.8087C201.896 90.6787 202.02 93.6097 202.02 96.5204C202 97.3549 201.297 98.0266 200.45 98.0266Z" fill="url(#paint34_linear)"/>
</g>
<defs>
<linearGradient id="paint0_linear" x1="95.4646" y1="14.2027" x2="156.847" y2="41.615" gradientUnits="userSpaceOnUse">
<stop stop-color="#14D2B8"/>
<stop offset="1" stop-color="#0EAED1"/>
</linearGradient>
<linearGradient id="paint1_linear" x1="92.6121" y1="108.8" x2="125.516" y2="125.968" gradientUnits="userSpaceOnUse">
<stop stop-color="#14D2B8"/>
<stop offset="1" stop-color="#0EAED1"/>
</linearGradient>
<linearGradient id="paint2_linear" x1="97.042" y1="105.454" x2="119.82" y2="119.576" gradientUnits="userSpaceOnUse">
<stop stop-color="#14D2B8"/>
<stop offset="1" stop-color="#0EAED1"/>
</linearGradient>
<linearGradient id="paint3_linear" x1="113.467" y1="18.7222" x2="151.117" y2="43.0412" gradientUnits="userSpaceOnUse">
<stop stop-color="#14D2B8"/>
<stop offset="1" stop-color="#0EAED1"/>
</linearGradient>
<linearGradient id="paint4_linear" x1="96.3552" y1="112.135" x2="103.234" y2="115.515" gradientUnits="userSpaceOnUse">
<stop stop-color="#14D2B8"/>
<stop offset="1" stop-color="#0EAED1"/>
</linearGradient>
<linearGradient id="paint5_linear" x1="39.7556" y1="52.8091" x2="111.748" y2="69.8057" gradientUnits="userSpaceOnUse">
<stop stop-color="#14D2B8"/>
<stop offset="1" stop-color="#0EAED1"/>
</linearGradient>
<linearGradient id="paint6_linear" x1="138.638" y1="60.8973" x2="163.809" y2="73.2543" gradientUnits="userSpaceOnUse">
<stop stop-color="#14D2B8"/>
<stop offset="1" stop-color="#0EAED1"/>
</linearGradient>
<linearGradient id="paint7_linear" x1="135.599" y1="75.7967" x2="160.763" y2="88.1443" gradientUnits="userSpaceOnUse">
<stop stop-color="#14D2B8"/>
<stop offset="1" stop-color="#0EAED1"/>
</linearGradient>
<linearGradient id="paint8_linear" x1="127.728" y1="91.8969" x2="152.89" y2="104.242" gradientUnits="userSpaceOnUse">
<stop stop-color="#14D2B8"/>
<stop offset="1" stop-color="#0EAED1"/>
</linearGradient>
<linearGradient id="paint9_linear" x1="74.9275" y1="131.525" x2="112.192" y2="143.035" gradientUnits="userSpaceOnUse">
<stop stop-color="#14D2B8"/>
<stop offset="1" stop-color="#0EAED1"/>
</linearGradient>
<linearGradient id="paint10_linear" x1="19.9671" y1="27.4004" x2="170.699" y2="77.2313" gradientUnits="userSpaceOnUse">
<stop stop-color="#14D2B8"/>
<stop offset="1" stop-color="#0EAED1"/>
</linearGradient>
<linearGradient id="paint11_linear" x1="104.791" y1="54.8816" x2="138.364" y2="69.0583" gradientUnits="userSpaceOnUse">
<stop stop-color="#14D2B8"/>
<stop offset="1" stop-color="#0EAED1"/>
</linearGradient>
<linearGradient id="paint12_linear" x1="-0.110994" y1="127.363" x2="4.37967" y2="130.432" gradientUnits="userSpaceOnUse">
<stop stop-color="#14D2B8"/>
<stop offset="1" stop-color="#0EAED1"/>
</linearGradient>
<linearGradient id="paint13_linear" x1="12.2764" y1="127.363" x2="16.8623" y2="130.699" gradientUnits="userSpaceOnUse">
<stop stop-color="#14D2B8"/>
<stop offset="1" stop-color="#0EAED1"/>
</linearGradient>
<linearGradient id="paint14_linear" x1="7.89942" y1="132.37" x2="11.0076" y2="132.867" gradientUnits="userSpaceOnUse">
<stop stop-color="#14D2B8"/>
<stop offset="1" stop-color="#0EAED1"/>
</linearGradient>
<linearGradient id="paint15_linear" x1="7.89942" y1="119.778" x2="11.0167" y2="120.247" gradientUnits="userSpaceOnUse">
<stop stop-color="#14D2B8"/>
<stop offset="1" stop-color="#0EAED1"/>
</linearGradient>
<linearGradient id="paint16_linear" x1="130.645" y1="144.868" x2="135.136" y2="147.937" gradientUnits="userSpaceOnUse">
<stop stop-color="#14D2B8"/>
<stop offset="1" stop-color="#0EAED1"/>
</linearGradient>
<linearGradient id="paint17_linear" x1="143.032" y1="144.868" x2="147.618" y2="148.204" gradientUnits="userSpaceOnUse">
<stop stop-color="#14D2B8"/>
<stop offset="1" stop-color="#0EAED1"/>
</linearGradient>
<linearGradient id="paint18_linear" x1="138.655" y1="149.875" x2="141.763" y2="150.372" gradientUnits="userSpaceOnUse">
<stop stop-color="#14D2B8"/>
<stop offset="1" stop-color="#0EAED1"/>
</linearGradient>
<linearGradient id="paint19_linear" x1="138.655" y1="137.283" x2="141.773" y2="137.752" gradientUnits="userSpaceOnUse">
<stop stop-color="#14D2B8"/>
<stop offset="1" stop-color="#0EAED1"/>
</linearGradient>
<linearGradient id="paint20_linear" x1="178.981" y1="24.3702" x2="183.471" y2="27.4391" gradientUnits="userSpaceOnUse">
<stop stop-color="#14D2B8"/>
<stop offset="1" stop-color="#0EAED1"/>
</linearGradient>
<linearGradient id="paint21_linear" x1="191.368" y1="24.3702" x2="195.954" y2="27.7064" gradientUnits="userSpaceOnUse">
<stop stop-color="#14D2B8"/>
<stop offset="1" stop-color="#0EAED1"/>
</linearGradient>
<linearGradient id="paint22_linear" x1="186.991" y1="29.377" x2="190.099" y2="29.8743" gradientUnits="userSpaceOnUse">
<stop stop-color="#14D2B8"/>
<stop offset="1" stop-color="#0EAED1"/>
</linearGradient>
<linearGradient id="paint23_linear" x1="186.991" y1="16.7852" x2="190.109" y2="17.2538" gradientUnits="userSpaceOnUse">
<stop stop-color="#14D2B8"/>
<stop offset="1" stop-color="#0EAED1"/>
</linearGradient>
<linearGradient id="paint24_linear" x1="22.6102" y1="156.207" x2="31.9203" y2="159.285" gradientUnits="userSpaceOnUse">
<stop stop-color="#14D2B8"/>
<stop offset="1" stop-color="#0EAED1"/>
</linearGradient>
<linearGradient id="paint25_linear" x1="187.842" y1="60.4597" x2="197.152" y2="63.5384" gradientUnits="userSpaceOnUse">
<stop stop-color="#14D2B8"/>
<stop offset="1" stop-color="#0EAED1"/>
</linearGradient>
<linearGradient id="paint26_linear" x1="149.535" y1="12.8038" x2="160.23" y2="17.6378" gradientUnits="userSpaceOnUse">
<stop stop-color="#14D2B8"/>
<stop offset="1" stop-color="#0EAED1"/>
</linearGradient>
<linearGradient id="paint27_linear" x1="72.8983" y1="0.502935" x2="81.0688" y2="20.2598" gradientUnits="userSpaceOnUse">
<stop stop-color="#14D2B8"/>
<stop offset="1" stop-color="#0EAED1"/>
</linearGradient>
<linearGradient id="paint28_linear" x1="36.2149" y1="22.3089" x2="43.3198" y2="24.8275" gradientUnits="userSpaceOnUse">
<stop stop-color="#14D2B8"/>
<stop offset="1" stop-color="#0EAED1"/>
</linearGradient>
<linearGradient id="paint29_linear" x1="5.86441" y1="52.4474" x2="21.8035" y2="53.7557" gradientUnits="userSpaceOnUse">
<stop stop-color="#14D2B8"/>
<stop offset="1" stop-color="#0EAED1"/>
</linearGradient>
<linearGradient id="paint30_linear" x1="43.4615" y1="170.929" x2="55.2958" y2="176.186" gradientUnits="userSpaceOnUse">
<stop stop-color="#14D2B8"/>
<stop offset="1" stop-color="#0EAED1"/>
</linearGradient>
<linearGradient id="paint31_linear" x1="76.3295" y1="187.073" x2="83.2361" y2="204.416" gradientUnits="userSpaceOnUse">
<stop stop-color="#14D2B8"/>
<stop offset="1" stop-color="#0EAED1"/>
</linearGradient>
<linearGradient id="paint32_linear" x1="149.594" y1="174.065" x2="158.161" y2="177.911" gradientUnits="userSpaceOnUse">
<stop stop-color="#14D2B8"/>
<stop offset="1" stop-color="#0EAED1"/>
</linearGradient>
<linearGradient id="paint33_linear" x1="173.599" y1="120.46" x2="198.739" y2="125.136" gradientUnits="userSpaceOnUse">
<stop stop-color="#14D2B8"/>
<stop offset="1" stop-color="#0EAED1"/>
</linearGradient>
<linearGradient id="paint34_linear" x1="197.564" y1="80.7551" x2="202.044" y2="81.1" gradientUnits="userSpaceOnUse">
<stop stop-color="#14D2B8"/>
<stop offset="1" stop-color="#0EAED1"/>
</linearGradient>
</defs>
</svg>
