<svg width="63" height="99" viewBox="0 0 63 99" fill="none" xmlns="http://www.w3.org/2000/svg">
<path d="M9.9657 46.9989C9.9657 46.9989 15.287 49.6952 40.6291 43.7074C46.2933 42.3688 50.0456 41.5706 53.5895 42.1055C53.5895 42.1055 56.7275 45.397 49.7247 48.3978C42.722 51.3986 32.9242 58.6372 32.9242 58.6372C32.9242 58.6372 18.7788 62.2634 17.454 62.1592C16.1291 62.055 10.3223 62.7709 7.11304 57.5977C3.90379 52.4245 9.9657 46.9989 9.9657 46.9989Z" fill="url(#paint0_linear)"/>
<path d="M9.9657 46.9983C9.9657 46.9983 15.2898 49.7029 40.6291 43.7068C46.2576 42.3737 50.0456 41.57 53.5895 42.1049C53.5895 42.1049 56.7275 45.3965 49.7247 48.3972C42.722 51.398 32.9242 58.6367 32.9242 58.6367C32.9242 58.6367 18.7788 62.2628 17.454 62.1586C16.1291 62.0544 10.3223 62.7703 7.11304 57.5971C3.90379 52.4239 9.9657 46.9983 9.9657 46.9983Z" fill="url(#paint1_linear)"/>
<path opacity="0.43" d="M25.7624 54.9042C10.7365 58.6867 11.1836 55.1456 11.1836 55.1456C11.1836 55.1456 9.47204 52.4383 7.82627 49.528C6.4548 51.5852 5.25887 54.6244 7.10213 57.5868C10.3169 62.76 16.1209 62.0468 17.443 62.1483C18.7651 62.2498 32.9242 58.6374 32.9242 58.6374C32.9242 58.6374 40.7553 52.8772 47.4207 49.4951C41.9897 50.6252 34.3122 52.751 25.7624 54.9042Z" fill="url(#paint2_linear)"/>
<path d="M51.6727 0.258789C51.6727 0.258789 63.8541 14.0092 39.6942 31.9371C13.7871 51.1651 7.07508 62.3618 17.7232 62.1397C17.7232 62.1397 2.79335 65.8097 0.47556 51.5162C-0.895914 43.0954 4.64209 38.0401 11.5516 32.3156C11.5516 32.3266 35.4893 15.2353 51.6727 0.258789Z" fill="url(#paint3_linear)"/>
<path d="M39.0109 73.2568C39.0109 73.2568 30.8177 87.2459 45.9011 98.3822C45.933 98.405 45.9557 98.4384 45.9651 98.4765C45.9745 98.5145 45.9701 98.5546 45.9526 98.5896C45.935 98.6247 45.9056 98.6523 45.8695 98.6676C45.8335 98.6829 45.7931 98.6848 45.7558 98.673C43.3584 97.8912 39.5265 96.2043 36.4298 94.479C27.0022 89.251 34.2711 78.4245 39.0109 73.2568Z" fill="url(#paint4_linear)"/>
<path d="M39.0109 73.2568C39.0109 73.2568 30.8177 87.2459 45.9012 98.3822C45.933 98.405 45.9557 98.4384 45.9651 98.4765C45.9745 98.5145 45.9701 98.5546 45.9526 98.5896C45.935 98.6247 45.9056 98.6523 45.8695 98.6676C45.8335 98.6829 45.7931 98.6848 45.7558 98.673C43.3584 97.8912 37.7354 95.7572 35.3628 93.5272C27.507 86.1459 34.2711 78.4245 39.0109 73.2568Z" fill="url(#paint5_linear)"/>
<path d="M62.4111 49.4177C61.8982 42.8483 52.9589 42.0117 52.9589 42.0117C58.3351 44.9549 41.7622 48.4878 29.6439 62.0517C21.0475 71.6739 24.4707 81.5266 24.4707 81.5266L24.4954 81.5403C27.1807 90.5454 36.4327 94.476 36.4327 94.476C21.5824 73.092 63.2971 61.525 62.4111 49.4177Z" fill="url(#paint6_linear)"/>
<path style="mix-blend-mode:color-burn" d="M25.9297 30.209C53.8365 10.2952 51.6613 0.258789 51.6613 0.258789C37.3459 13.9104 11.5402 32.3266 11.5402 32.3266C4.34274 38.2925 -0.901778 43.0954 0.46421 51.5272C2.782 65.8207 17.7119 62.1506 17.7119 62.1506C0.35175 65.4038 -2.87122 50.7756 25.9297 30.209Z" fill="url(#paint7_linear)"/>
<path d="M55.877 50.979C60.8308 47.3254 58.2881 44.267 58.0357 43.9817C56.4985 42.9775 54.7665 42.3092 52.9531 42.0205C58.3292 44.9637 41.7564 48.4966 29.638 62.0605C21.0416 71.6827 24.4648 81.5354 24.4648 81.5354L24.4895 81.5491C27.1749 90.5542 36.4268 94.4848 36.4268 94.4848C8.99186 78.4331 50.5091 54.937 55.877 50.979Z" fill="url(#paint8_linear)"/>
<defs>
<linearGradient id="paint0_linear" x1="6.94655" y1="57.6492" x2="53.8082" y2="42.0423" gradientUnits="userSpaceOnUse">
<stop stop-color="#262262"/>
<stop offset="0.5" stop-color="#662D91"/>
<stop offset="0.67" stop-color="#642C8E"/>
<stop offset="0.8" stop-color="#5C2A85"/>
<stop offset="0.91" stop-color="#4E2675"/>
<stop offset="1" stop-color="#3E2262"/>
</linearGradient>
<linearGradient id="paint1_linear" x1="6.94655" y1="57.6486" x2="53.8082" y2="42.0417" gradientUnits="userSpaceOnUse">
<stop stop-color="#341D72"/>
<stop offset="0.1" stop-color="#542F84" stop-opacity="0.79"/>
<stop offset="0.32" stop-color="#DADADA" stop-opacity="0.44"/>
<stop offset="0.54" stop-color="#DADADA" stop-opacity="0.21"/>
<stop offset="0.76" stop-color="#DADADA" stop-opacity="0.06"/>
<stop offset="1" stop-color="#DADADA" stop-opacity="0"/>
</linearGradient>
<linearGradient id="paint2_linear" x1="7.21963" y1="58.4691" x2="46.1049" y2="45.5186" gradientUnits="userSpaceOnUse">
<stop offset="0.13" stop-color="#DADADA" stop-opacity="0.39"/>
<stop offset="0.22" stop-color="#DADADA" stop-opacity="0.58"/>
<stop offset="0.32" stop-color="#DADADA" stop-opacity="0.72"/>
<stop offset="0.43" stop-color="#DADADA" stop-opacity="0.8"/>
<stop offset="0.55" stop-color="#DADADA" stop-opacity="0.91"/>
<stop offset="0.71" stop-color="#DADADA" stop-opacity="0.95"/>
<stop offset="1" stop-color="#DADADA"/>
</linearGradient>
<linearGradient id="paint3_linear" x1="-2.4198" y1="43.5695" x2="60.0329" y2="22.77" gradientUnits="userSpaceOnUse">
<stop stop-color="#14D2B8"/>
<stop offset="0.5" stop-color="#62D2C3"/>
<stop offset="1" stop-color="#0BB39C"/>
</linearGradient>
<linearGradient id="paint4_linear" x1="41.7858" y1="100.042" x2="33.4818" y2="75.1087" gradientUnits="userSpaceOnUse">
<stop stop-color="#DA1C5C"/>
<stop offset="0.5" stop-color="#9E1F63"/>
<stop offset="1" stop-color="#9E1F63"/>
</linearGradient>
<linearGradient id="paint5_linear" x1="41.9134" y1="100" x2="33.6093" y2="75.0662" gradientUnits="userSpaceOnUse">
<stop stop-color="#7041EE"/>
<stop offset="1" stop-color="#351840"/>
</linearGradient>
<linearGradient id="paint6_linear" x1="22.511" y1="75.6486" x2="66.484" y2="61.0037" gradientUnits="userSpaceOnUse">
<stop stop-color="#B89DFF"/>
<stop offset="0.5" stop-color="#7041EE"/>
<stop offset="1" stop-color="#44229C"/>
</linearGradient>
<linearGradient id="paint7_linear" x1="-2.42018" y1="43.5695" x2="59.2622" y2="23.0266" gradientUnits="userSpaceOnUse">
<stop stop-color="#D9E8BC"/>
<stop offset="1" stop-color="#4FD5DF"/>
</linearGradient>
<linearGradient id="paint8_linear" x1="22.5106" y1="75.6492" x2="64.2377" y2="61.7523" gradientUnits="userSpaceOnUse">
<stop stop-color="#7041EE" stop-opacity="0"/>
<stop offset="0.25" stop-color="#7041EE" stop-opacity="0.34"/>
<stop offset="0.49" stop-color="#7041EE" stop-opacity="0.63"/>
<stop offset="0.7" stop-color="#7041EE" stop-opacity="0.83"/>
<stop offset="0.88" stop-color="#7041EE" stop-opacity="0.92"/>
<stop offset="1" stop-color="#7041EE"/>
</linearGradient>
</defs>
</svg>
