<svg id="linear_color" data-name="linear color" xmlns="http://www.w3.org/2000/svg" width="109.596" height="126.847" viewBox="0 0 109.596 126.847">
  <path id="Tracé_6603" data-name="Tracé 6603" d="M91.364,312.266H89.842V296.537A2.537,2.537,0,0,0,87.305,294H42.655A10.667,10.667,0,0,0,32,304.655v32.473a10.667,10.667,0,0,0,10.655,10.655h44.65a2.537,2.537,0,0,0,2.537-2.537V329.517h1.522A2.537,2.537,0,0,0,93.9,326.98V314.8A2.537,2.537,0,0,0,91.364,312.266ZM79.187,324.443a1.524,1.524,0,0,1-1.522-1.522v-4.059a1.524,1.524,0,0,1,1.522-1.522h9.64v7.1Zm5.581,18.266H42.655a5.588,5.588,0,0,1-5.581-5.581V304.655a5.588,5.588,0,0,1,5.581-5.581H84.768v13.192H79.187a6.6,6.6,0,0,0-6.6,6.6v4.059a6.6,6.6,0,0,0,6.6,6.6h5.581Z" transform="translate(-32 -220.936)" fill="#1485d8"/>
  <path id="Tracé_6604" data-name="Tracé 6604" d="M88.676,335.133h6.089a1.524,1.524,0,0,1,1.522,1.522,2.537,2.537,0,1,0,5.074,0,6.6,6.6,0,0,0-6.6-6.6H93.242v-1.522a2.537,2.537,0,1,0-5.074,0v1.538a8.626,8.626,0,0,0,.507,17.235h4.059a3.552,3.552,0,1,1,0,7.1H86.9a1.524,1.524,0,0,1-1.522-1.522,2.537,2.537,0,1,0-5.074,0,6.6,6.6,0,0,0,6.6,6.6h1.268v1.522a2.537,2.537,0,1,0,5.074,0v-1.538a8.626,8.626,0,0,0-.507-17.235H88.676a3.552,3.552,0,1,1,0-7.1Z" transform="translate(-67.873 -244.818)" fill="#1485d8"/>
  <path id="Tracé_6605" data-name="Tracé 6605" d="M303.246,31.115a2.537,2.537,0,0,0,2.537-2.537V24.773a2.537,2.537,0,0,0-1.13-2.111L280.3,6.426a2.535,2.535,0,0,0-2.814,0L253.13,22.662A2.537,2.537,0,0,0,252,24.773v3.805a2.537,2.537,0,0,0,2.537,2.537h1.522V54.709h-1.522a2.537,2.537,0,0,0,0,5.074h48.709a2.537,2.537,0,1,0,0-5.074h-1.522V31.115Zm-24.355-19.53,21.684,14.456H257.208ZM261.133,31.369h3.044v23.34h-3.044Zm8.118,0h19.281v23.34H269.251Zm24.355,23.34V31.369h3.044v23.34Z" transform="translate(-196.187 -5.999)" fill="#1485d8"/>
  <path id="Tracé_6606" data-name="Tracé 6606" d="M341.623,246a2.537,2.537,0,0,0-2.537,2.537,41.956,41.956,0,0,1-21.833,36.915l1.6-6.39a2.537,2.537,0,1,0-4.922-1.231l-2.953,11.814a2.537,2.537,0,0,0,1.9,3.089l11.875,2.707a2.537,2.537,0,0,0,1.128-4.947l-5.161-1.176a47.153,47.153,0,0,0,23.444-40.781A2.537,2.537,0,0,0,341.623,246Z" transform="translate(-240.145 -185.113)" fill="#1485d8"/>
  <path id="Tracé_6607" data-name="Tracé 6607" d="M72.537,120.369a2.537,2.537,0,0,0,2.537-2.537A41.956,41.956,0,0,1,96.907,80.917l-1.6,6.39a2.537,2.537,0,1,0,4.922,1.231l2.953-11.814a2.537,2.537,0,0,0-1.9-3.089L89.412,70.928a2.537,2.537,0,1,0-1.128,4.947l5.161,1.176A47.153,47.153,0,0,0,70,117.832a2.537,2.537,0,0,0,2.537,2.537Z" transform="translate(-60.36 -54.408)" fill="#1485d8"/>
</svg>
