<svg width="16" height="17" viewBox="0 0 16 17" fill="none" xmlns="http://www.w3.org/2000/svg">
<path d="M1 4H2.55556M2.55556 4H15M2.55556 4V14.5C2.55556 14.8978 2.71944 15.2794 3.01117 15.5607C3.30289 15.842 3.69855 16 4.11111 16H11.8889C12.3014 16 12.6971 15.842 12.9888 15.5607C13.2806 15.2794 13.4444 14.8978 13.4444 14.5V4H2.55556ZM4.88889 4V2.5C4.88889 2.10218 5.05278 1.72064 5.3445 1.43934C5.63622 1.15804 6.03189 1 6.44444 1H9.55556C9.96811 1 10.3638 1.15804 10.6555 1.43934C10.9472 1.72064 11.1111 2.10218 11.1111 2.5V4M6.44444 7.75V12.25M9.55556 7.75V12.25" stroke="#141414" stroke-opacity="0.67" stroke-linecap="round" stroke-linejoin="round"/>
</svg>
