<svg width="18" height="18" viewBox="0 0 18 18" fill="none" xmlns="http://www.w3.org/2000/svg">
<path d="M11.97 9.00056L17.5385 3.43203C18.1538 2.81676 18.1538 1.81926 17.5385 1.20496L16.7962 0.462602C16.1807 -0.152855 15.1832 -0.152855 14.5689 0.462602L9.00056 6.03094L3.43203 0.461449C2.81676 -0.153816 1.81926 -0.153816 1.20496 0.461449L0.461449 1.2038C-0.153816 1.81926 -0.153816 2.81676 0.461449 3.43106L6.03094 9.00056L0.462602 14.5689C-0.152855 15.1844 -0.152855 16.1819 0.462602 16.7962L1.20496 17.5385C1.82022 18.1538 2.81772 18.1538 3.43203 17.5385L9.00056 11.97L14.5689 17.5385C15.1844 18.1538 16.1819 18.1538 16.7962 17.5385L17.5385 16.7962C18.1538 16.1807 18.1538 15.1832 17.5385 14.5689L11.97 9.00056Z" fill="white"/>
</svg>
