<svg width="20" height="18" viewBox="0 0 20 18" fill="none" xmlns="http://www.w3.org/2000/svg">
<path d="M13.6 17V2.77778C13.6 2.30628 13.4104 1.8541 13.0728 1.5207C12.7352 1.1873 12.2774 1 11.8 1H8.2C7.72261 1 7.26477 1.1873 6.92721 1.5207C6.58964 1.8541 6.4 2.30628 6.4 2.77778V17M2.8 4.55556H17.2C18.1941 4.55556 19 5.35149 19 6.33333V15.2222C19 16.2041 18.1941 17 17.2 17H2.8C1.80589 17 1 16.2041 1 15.2222V6.33333C1 5.35149 1.80589 4.55556 2.8 4.55556Z" stroke="#14D2B8" stroke-linecap="round" stroke-linejoin="round"/>
</svg>
