<svg width="17" height="9" viewBox="0 0 17 9" fill="none" xmlns="http://www.w3.org/2000/svg">
<path d="M8.06636 6.09162C7.20088 5.91332 6.65414 5.01705 6.84518 4.08975C7.03621 3.16245 7.89269 2.55526 8.75817 2.73357C9.62365 2.91187 10.1704 3.80813 9.97936 4.73543C9.78832 5.66273 8.93184 6.26992 8.06636 6.09162ZM1.5674 5.91959C0.701919 5.74129 0.155175 4.84503 0.346212 3.91773C0.53725 2.99043 1.39373 2.38324 2.25921 2.56154C3.12469 2.73984 3.67143 3.63611 3.48039 4.56341C3.28936 5.49071 2.43288 6.0979 1.5674 5.91959ZM14.5653 6.26364C13.6998 6.08534 13.1531 5.18907 13.3441 4.26177C13.5352 3.33447 14.3917 2.72729 15.2571 2.90559C16.1226 3.08389 16.6694 3.98016 16.4783 4.90746C16.2873 5.83476 15.4308 6.44194 14.5653 6.26364Z" fill="#3F3356"/>
</svg>
