<svg width="20" height="20" viewBox="0 0 20 20" fill="none" xmlns="http://www.w3.org/2000/svg">
<path d="M19 9.38589C19.0034 10.7058 18.6951 12.0078 18.1 13.1859C17.3944 14.5976 16.3098 15.7851 14.9674 16.6152C13.6251 17.4453 12.0782 17.8853 10.5 17.8859C9.18013 17.8893 7.87812 17.581 6.7 16.9859L1 18.8859L2.9 13.1859C2.30493 12.0078 1.99656 10.7058 2 9.38589C2.00061 7.80765 2.44061 6.26074 3.27072 4.91844C4.10083 3.57614 5.28825 2.49146 6.7 1.78589C7.87812 1.19082 9.18013 0.882451 10.5 0.885893H11C13.0843 1.00088 15.053 1.88065 16.5291 3.35675C18.0052 4.83285 18.885 6.80155 19 8.88589V9.38589Z" fill="#7041EE" stroke="#7041EE" stroke-linecap="round" stroke-linejoin="round"/>
</svg>
