<svg width="16" height="16" viewBox="0 0 16 16" fill="none" xmlns="http://www.w3.org/2000/svg">
<path d="M15.832 7.06587C15.6676 6.7264 15.3935 6.45232 15.0541 6.28794L2.407 0.168092C1.57387 -0.235541 0.571319 0.112666 0.167686 0.945796C-0.0379446 1.37028 -0.0552305 1.86179 0.120117 2.29966L2.31929 7.79653L0.120117 13.2939C-0.222426 14.1563 0.198984 15.1331 1.06135 15.4756C1.25634 15.5531 1.46413 15.5933 1.67395 15.5943C1.92781 15.5943 2.17839 15.537 2.407 15.4266L15.054 9.30512C15.8872 8.90158 16.2355 7.89903 15.832 7.06587ZM1.92034 14.4192C1.64259 14.5537 1.30843 14.4375 1.17397 14.1598C1.10545 14.0183 1.09975 13.8545 1.15822 13.7085L3.29929 8.35524H14.4523L1.92034 14.4192ZM3.29932 7.23778L1.15826 1.88451C1.06914 1.67112 1.12447 1.42469 1.29625 1.26991C1.46253 1.10788 1.7136 1.06987 1.92034 1.17549L14.4523 7.23778H3.29932Z" fill="white"/>
</svg>
